<svg width="200" height="110" viewBox="0 0 200 110" fill="none" xmlns="http://www.w3.org/2000/svg">
<rect y="25" width="60" height="60" rx="2" fill="#F4F6F8"/>
<rect x="71" y="25" width="60" height="60" rx="2" fill="#F4F6F8"/>
<rect x="140" y="25" width="60" height="60" rx="2" fill="#F4F6F8"/>
<path d="M16.7008 44.889L17.1947 44L18.071 44.5163C18.1925 44.5879 21.0761 46.305 23.6245 49.3631C25.1045 51.139 26.1985 52.9142 27.1637 54.4804C28.3632 56.4266 29.3991 58.1075 30.7644 59.1158C31.3463 59.5455 31.8826 59.7082 32.4035 59.613C33.3989 59.4312 34.0897 58.3775 34.0936 58.3714L34.6359 57.5105L43.7193 63.566C44.2388 63.9123 44.4662 64.5464 44.2852 65.1439C44.1043 65.7413 43.5634 66.1427 42.9391 66.1427H28.6227C26.7704 66.1427 25.0795 65.053 24.3149 63.3664C23.6526 61.9057 22.9883 60.5625 22.3403 59.3743C21.2217 57.3231 20.0919 56.6018 19.34 56.3576V66.193H17.3569V55.8676C16.8867 55.4837 16.0632 54.6704 15.5189 53.3415C14.2862 50.3326 15.4813 47.0843 16.7008 44.889Z" fill="#919EAB"/>
<path d="M116.894 49.1157L115.678 47.6462C115.62 46.5489 115.268 45.5844 114.626 44.8076C113.36 43.2785 111.146 42.6912 108.391 43.1543C105.732 43.6013 102.859 44.9801 100.302 47.0368C95.9176 50.5629 93.4994 55.2519 94.3035 58.5828L86.3551 64.607C85.6109 65.1689 85.1104 65.979 85.0161 66.7739C84.9486 67.3463 85.0949 67.8838 85.4293 68.2878C85.7637 68.6918 86.2684 68.9415 86.8507 68.9909C86.9227 68.997 86.9955 69 87.0691 69C87.8195 69 88.6286 68.6847 89.2733 68.1328L96.8331 61.6565C97.2137 61.8317 97.6125 61.9656 98.0225 62.0558L99.2284 63.5133C99.2677 63.5607 99.316 63.6 99.3706 63.629C99.4253 63.658 99.4852 63.6761 99.5469 63.6823C99.6087 63.6885 99.671 63.6826 99.7305 63.665C99.7899 63.6474 99.8453 63.6185 99.8934 63.5798C99.9414 63.5411 99.9813 63.4935 100.011 63.4396C100.04 63.3857 100.059 63.3267 100.065 63.2658C100.071 63.2049 100.065 63.1435 100.047 63.0849C100.029 63.0263 100 62.9717 99.9608 62.9243L99.383 62.226C99.4907 62.23 99.5991 62.2327 99.7088 62.2327C100.041 62.2319 100.373 62.2143 100.703 62.1801L101.819 63.5281C101.858 63.5755 101.907 63.6148 101.961 63.6438C102.016 63.6728 102.076 63.6909 102.138 63.6971C102.2 63.7033 102.262 63.6974 102.321 63.6798C102.381 63.6622 102.436 63.6333 102.484 63.5946C102.532 63.5559 102.572 63.5083 102.602 63.4544C102.631 63.4005 102.649 63.3415 102.656 63.2806C102.662 63.2197 102.656 63.1582 102.638 63.0996C102.62 63.041 102.591 62.9865 102.552 62.9391L101.788 62.0166C102.16 61.9434 102.537 61.8518 102.919 61.7419L104.03 63.0842C104.069 63.1316 104.118 63.171 104.172 63.2C104.227 63.2289 104.287 63.2471 104.349 63.2532C104.41 63.2594 104.473 63.2535 104.532 63.2359C104.592 63.2183 104.647 63.1894 104.695 63.1507C104.743 63.112 104.783 63.0644 104.812 63.0105C104.842 62.9567 104.86 62.8976 104.867 62.8367C104.873 62.7759 104.867 62.7144 104.849 62.6558C104.831 62.5972 104.802 62.5426 104.763 62.4952L103.881 61.4304C104.22 61.3083 104.561 61.1727 104.903 61.0234L105.999 62.3478C106.038 62.3952 106.086 62.4346 106.141 62.4636C106.196 62.4926 106.256 62.5107 106.317 62.5168C106.379 62.523 106.441 62.5172 106.501 62.4996C106.56 62.482 106.616 62.453 106.664 62.4144C106.712 62.3757 106.752 62.3281 106.781 62.2742C106.811 62.2203 106.829 62.1613 106.835 62.1004C106.841 62.0395 106.835 61.9781 106.818 61.9195C106.8 61.8609 106.77 61.8063 106.731 61.7589L105.783 60.613C106.097 60.4561 106.411 60.2883 106.725 60.1097L107.782 61.3875C107.862 61.4833 107.976 61.5441 108.101 61.5566C108.226 61.569 108.35 61.5322 108.447 61.4541C108.544 61.376 108.606 61.263 108.619 61.1401C108.631 61.0172 108.594 60.8943 108.515 60.7986L107.539 59.6193C107.832 59.4337 108.124 59.2389 108.414 59.0349L109.457 60.2957C109.496 60.3431 109.544 60.3824 109.599 60.4114C109.654 60.4404 109.714 60.4585 109.775 60.4647C109.837 60.4709 109.9 60.465 109.959 60.4474C110.018 60.4298 110.074 60.4009 110.122 60.3622C110.17 60.3235 110.21 60.2759 110.239 60.222C110.269 60.1682 110.287 60.1091 110.293 60.0482C110.3 59.9874 110.294 59.9259 110.276 59.8673C110.258 59.8087 110.229 59.7541 110.189 59.7067L109.172 58.4768C109.293 58.3836 109.414 58.2888 109.534 58.1921C109.687 58.0693 109.837 57.9448 109.986 57.8189L111.005 59.0508C111.044 59.0982 111.093 59.1376 111.147 59.1666C111.202 59.1956 111.262 59.2137 111.323 59.2198C111.385 59.226 111.448 59.2201 111.507 59.2026C111.566 59.185 111.622 59.156 111.67 59.1173C111.718 59.0787 111.758 59.031 111.787 58.9772C111.817 58.9233 111.835 58.8642 111.841 58.8034C111.848 58.7425 111.842 58.681 111.824 58.6224C111.806 58.5638 111.777 58.5093 111.737 58.4618L110.689 57.1955C110.948 56.9555 111.199 56.7113 111.441 56.4628L112.426 57.6535C112.506 57.7492 112.62 57.81 112.745 57.8225C112.87 57.835 112.994 57.7981 113.091 57.72C113.189 57.6419 113.25 57.529 113.263 57.406C113.276 57.2831 113.238 57.1602 113.159 57.0645L112.087 55.7697C112.326 55.5016 112.554 55.2301 112.772 54.9552L113.688 56.0629C113.728 56.1104 113.776 56.1497 113.831 56.1787C113.885 56.2077 113.945 56.2258 114.007 56.232C114.069 56.2382 114.131 56.2323 114.191 56.2147C114.25 56.1971 114.305 56.1682 114.353 56.1295C114.401 56.0908 114.441 56.0432 114.471 55.9893C114.5 55.9355 114.519 55.8764 114.525 55.8155C114.531 55.7547 114.525 55.6932 114.507 55.6346C114.49 55.576 114.46 55.5214 114.421 55.474L113.352 54.1824C113.566 53.8802 113.767 53.5758 113.955 53.269L114.866 54.3708C114.945 54.4665 115.06 54.5273 115.185 54.5398C115.309 54.5523 115.434 54.5154 115.531 54.4373C115.628 54.3592 115.69 54.2463 115.703 54.1234C115.715 54.0004 115.678 53.8776 115.599 53.7818L114.45 52.3937C114.632 52.045 114.796 51.6956 114.941 51.3454L115.751 52.3248C115.791 52.3722 115.839 52.4115 115.893 52.4405C115.948 52.4695 116.008 52.4876 116.07 52.4938C116.132 52.5 116.194 52.4941 116.253 52.4765C116.313 52.4589 116.368 52.43 116.416 52.3913C116.464 52.3526 116.504 52.305 116.534 52.2511C116.563 52.1973 116.581 52.1382 116.588 52.0773C116.594 52.0165 116.588 51.955 116.57 51.8964C116.552 51.8378 116.523 51.7832 116.484 51.7358L115.31 50.3177C115.44 49.8967 115.538 49.467 115.605 49.0321L116.161 49.7043C116.24 49.8 116.355 49.8608 116.48 49.8733C116.604 49.8857 116.729 49.8489 116.826 49.7707C116.923 49.6926 116.985 49.5797 116.998 49.4568C117.01 49.3338 116.973 49.211 116.894 49.1153L116.894 49.1157Z" fill="#919EAB"/>
<path d="M173.342 45.7608H171.101V44.6019H171.645C172.131 44.6019 172.524 44.2084 172.524 43.723V40.8789C172.524 40.3935 172.131 40 171.645 40H168.799C168.314 40 167.92 40.3935 167.92 40.8789V41.4235C167.91 41.4232 167.901 41.422 167.891 41.422H165.295C164.029 41.422 163 42.4513 163 43.7165V44.2577C163 44.743 163.394 45.1366 163.879 45.1366C164.364 45.1366 164.758 44.743 164.758 44.2577V43.7165C164.758 43.4206 164.999 43.1798 165.295 43.1798H167.891C167.901 43.1798 167.91 43.1787 167.92 43.1783V43.7229C167.92 44.2083 168.314 44.6018 168.799 44.6018H169.343V45.7607H167.103C166.617 45.7607 166.224 46.1542 166.224 46.6396V47.8972H174.221V46.6397C174.221 46.1543 173.827 45.7608 173.342 45.7608Z" fill="#919EAB"/>
<path d="M174.461 49.6551H165.983C164.333 49.8375 163.044 51.2404 163.044 52.939V69.1211C163.044 69.6065 163.438 70 163.923 70H176.522C177.007 70 177.4 69.6065 177.4 69.1211V52.939C177.4 51.2404 176.112 49.8375 174.461 49.6551Z" fill="#919EAB"/>
</svg>
