<svg width="200" height="110" viewBox="0 0 200 110" fill="none" xmlns="http://www.w3.org/2000/svg">
<rect y="25" width="60" height="60" rx="2" fill="#F4F6F8"/>
<rect x="71" y="25" width="60" height="60" rx="2" fill="#F4F6F8"/>
<path d="M87.7008 44.889L88.1947 44L89.071 44.5163C89.1925 44.5879 92.0761 46.305 94.6245 49.3631C96.1045 51.139 97.1985 52.9142 98.1637 54.4804C99.3632 56.4266 100.399 58.1075 101.764 59.1158C102.346 59.5455 102.883 59.7082 103.403 59.613C104.399 59.4312 105.09 58.3775 105.094 58.3714L105.636 57.5105L114.719 63.566C115.239 63.9123 115.466 64.5464 115.285 65.1439C115.104 65.7413 114.563 66.1427 113.939 66.1427H99.6227C97.7704 66.1427 96.0795 65.053 95.3149 63.3664C94.6526 61.9057 93.9883 60.5625 93.3403 59.3743C92.2217 57.3231 91.0919 56.6018 90.34 56.3576V66.193H88.3569V55.8676C87.8867 55.4837 87.0632 54.6704 86.5189 53.3415C85.2862 50.3326 86.4813 47.0843 87.7008 44.889Z" fill="#919EAB"/>
<rect x="140" y="25" width="60" height="60" rx="2" fill="#F4F6F8"/>
<path d="M156.354 44.889L156.848 44L157.724 44.5163C157.846 44.5879 160.729 46.305 163.278 49.3631C164.758 51.139 165.852 52.9142 166.817 54.4804C168.017 56.4266 169.052 58.1075 170.418 59.1158C171 59.5455 171.536 59.7082 172.057 59.613C173.052 59.4312 173.743 58.3775 173.747 58.3714L174.289 57.5105L183.373 63.566C183.892 63.9123 184.119 64.5464 183.939 65.1439C183.758 65.7413 183.217 66.1427 182.592 66.1427H168.276C166.424 66.1427 164.733 65.053 163.968 63.3664C163.306 61.9057 162.642 60.5625 161.994 59.3743C160.875 57.3231 159.745 56.6018 158.993 56.3576V66.193H157.01V55.8676C156.54 55.4837 155.717 54.6704 155.172 53.3415C153.94 50.3326 155.135 47.0843 156.354 44.889Z" fill="#919EAB"/>
<path d="M16.7008 44.889L17.1947 44L18.071 44.5163C18.1925 44.5879 21.0761 46.305 23.6245 49.3631C25.1045 51.139 26.1985 52.9142 27.1637 54.4804C28.3632 56.4266 29.3991 58.1075 30.7644 59.1158C31.3463 59.5455 31.8826 59.7082 32.4035 59.613C33.3989 59.4312 34.0897 58.3775 34.0936 58.3714L34.6359 57.5105L43.7193 63.566C44.2388 63.9123 44.4662 64.5464 44.2852 65.1439C44.1043 65.7413 43.5634 66.1427 42.9391 66.1427H28.6227C26.7704 66.1427 25.0795 65.053 24.3149 63.3664C23.6526 61.9057 22.9883 60.5625 22.3403 59.3743C21.2217 57.3231 20.0919 56.6018 19.34 56.3576V66.193H17.3569V55.8676C16.8867 55.4837 16.0632 54.6704 15.5189 53.3415C14.2862 50.3326 15.4813 47.0843 16.7008 44.889Z" fill="#919EAB"/>
</svg>
