<svg width="200" height="110" viewBox="0 0 200 110" fill="none" xmlns="http://www.w3.org/2000/svg">
<rect y="25" width="60" height="60" rx="2" fill="#F4F6F8"/>
<rect x="71" y="25" width="60" height="60" rx="2" fill="#F4F6F8"/>
<rect x="140" y="25" width="60" height="60" rx="2" fill="#F4F6F8"/>
<path d="M30 40L18 45.2727V53.1818C18 60.4977 23.12 67.3391 30 69C36.88 67.3391 42 60.4977 42 53.1818V45.2727L30 40ZM27.3333 61.0909L22 55.8182L23.88 53.9595L27.3333 57.3605L36.12 48.6736L38 50.5455L27.3333 61.0909Z" fill="#919EAB"/>
<path d="M113.364 49.25H108.727V43H87.0909C85.3909 43 84 44.4062 84 46.125V63.3125H87.0909C87.0909 65.9062 89.1618 68 91.7273 68C94.2927 68 96.3636 65.9062 96.3636 63.3125H105.636C105.636 65.9062 107.707 68 110.273 68C112.838 68 114.909 65.9062 114.909 63.3125H118V55.5L113.364 49.25ZM91.7273 65.6562C90.4445 65.6562 89.4091 64.6094 89.4091 63.3125C89.4091 62.0156 90.4445 60.9688 91.7273 60.9688C93.01 60.9688 94.0455 62.0156 94.0455 63.3125C94.0455 64.6094 93.01 65.6562 91.7273 65.6562ZM112.591 51.5938L115.62 55.5H108.727V51.5938H112.591ZM110.273 65.6562C108.99 65.6562 107.955 64.6094 107.955 63.3125C107.955 62.0156 108.99 60.9688 110.273 60.9688C111.555 60.9688 112.591 62.0156 112.591 63.3125C112.591 64.6094 111.555 65.6562 110.273 65.6562Z" fill="#919EAB"/>
<path d="M169.5 60.8774L177.225 65L175.175 57.23L182 52.0021L173.013 51.3279L169.5 44L165.987 51.3279L157 52.0021L163.825 57.23L161.775 65L169.5 60.8774Z" fill="#919EAB"/>
</svg>
