<svg width="122" height="18" viewBox="0 0 122 18" fill="none" xmlns="http://www.w3.org/2000/svg">
<g clip-path="url(#clip0)">
<path fill-rule="evenodd" clip-rule="evenodd" d="M7.50005 2.03143L5.16671 6.6981L0.500046 7.47588L3.61116 10.587L2.83338 16.0314L7.50005 13.6981L12.1667 16.0314L11.3889 10.587L14.5 7.47588L9.83338 6.6981L7.50005 2.03143Z" fill="#FFD628"/>
<path fill-rule="evenodd" clip-rule="evenodd" d="M26 2.03143L23.6667 6.6981L19 7.47588L22.1111 10.587L21.3333 16.0314L26 13.6981L30.6667 16.0314L29.8889 10.587L33 7.47588L28.3333 6.6981L26 2.03143Z" fill="#FFD628"/>
<path fill-rule="evenodd" clip-rule="evenodd" d="M44 2.03143L41.6667 6.6981L37 7.47588L40.1111 10.587L39.3333 16.0314L44 13.6981L48.6667 16.0314L47.8889 10.587L51 7.47588L46.3333 6.6981L44 2.03143Z" fill="#FFD628"/>
<path fill-rule="evenodd" clip-rule="evenodd" d="M62 2.03143L59.6667 6.6981L55 7.47588L58.1111 10.587L57.3333 16.0314L62 13.6981L66.6667 16.0314L65.8889 10.587L69 7.47588L64.3333 6.6981L62 2.03143Z" fill="#FFD628"/>
<path fill-rule="evenodd" clip-rule="evenodd" d="M80 2.03143L77.6667 6.6981L73 7.47588L76.1111 10.587L75.3333 16.0314L80 13.6981L84.6667 16.0314L83.8889 10.587L87 7.47588L82.3333 6.6981L80 2.03143Z" fill="#FFD628"/>
<path d="M92.6543 10.8984C92.6543 13.3662 93.2832 15.3623 94.5957 17.0986H95.5938C94.6162 15.8545 93.8643 13.2227 93.8643 10.8984C93.8643 8.58789 94.623 5.94922 95.5938 4.70508H94.5957C93.2832 6.44141 92.6543 8.4375 92.6543 10.8984ZM100.728 15.2324C102.744 15.2324 104.118 13.8379 104.118 11.8076C104.118 9.85254 102.751 8.55371 101.097 8.55371C100.112 8.55371 99.3809 8.85449 98.9023 9.44922H98.793L99.1006 6.23633H103.612V5.13574H98.1367L97.5693 10.7754H98.7246C99.1143 10.0439 99.8525 9.61328 100.789 9.61328C102.033 9.61328 102.888 10.5088 102.888 11.8418C102.888 13.2227 102.033 14.1523 100.741 14.1523C99.5791 14.1523 98.7314 13.4482 98.6221 12.3955H97.4121C97.5215 14.084 98.8613 15.2324 100.728 15.2324ZM106.613 15.0684C107.105 15.0684 107.502 14.665 107.502 14.1797C107.502 13.6875 107.105 13.291 106.613 13.291C106.128 13.291 105.725 13.6875 105.725 14.1797C105.725 14.665 106.128 15.0684 106.613 15.0684ZM112.561 15.2324C114.775 15.2324 116.047 13.3594 116.047 10.085C116.047 6.81738 114.755 4.90332 112.561 4.90332C110.353 4.90332 109.061 6.81055 109.061 10.0645C109.061 13.3457 110.339 15.2324 112.561 15.2324ZM112.561 14.1592C111.104 14.1592 110.298 12.7031 110.298 10.0645C110.298 7.45996 111.118 5.9834 112.561 5.9834C114.003 5.9834 114.81 7.44629 114.81 10.0645C114.81 12.71 114.017 14.1592 112.561 14.1592ZM120.654 10.9053C120.654 8.4375 120.025 6.44141 118.713 4.70508H117.715C118.692 5.94922 119.444 8.58105 119.444 10.9053C119.444 13.2158 118.686 15.8545 117.715 17.0986H118.713C120.025 15.3623 120.654 13.3662 120.654 10.9053Z" fill="white"/>
</g>
<defs>
<clipPath id="clip0">
<rect width="122" height="18" fill="white"/>
</clipPath>
</defs>
</svg>
