<svg width="190" height="44" viewBox="0 0 190 44" fill="none" xmlns="http://www.w3.org/2000/svg">
<rect x="0.5" y="0.5" width="189" height="43" rx="2.5" fill="url(#paint0_linear)" stroke="#C8D0D8"/>
<path d="M69.0439 14.7217H76.0049V16.2861H70.8018V20.0303H75.8291V21.6035H70.8018V25.418H76.1719V26.9824H69.0439V14.7217ZM83.4053 18.9141H85.4531L82.1221 22.8955L85.6904 27H83.6426L81.1025 24.0996L78.7031 27H76.6904L80.0918 22.8955L76.6904 18.9141H78.7031L81.1025 21.6914L83.4053 18.9141ZM86.7188 31.1221V18.9141H89.5225C90.958 18.9141 92.0742 19.2715 92.8711 19.9863C93.6738 20.7012 94.0752 21.7002 94.0752 22.9834C94.0752 24.1963 93.6973 25.1924 92.9414 25.9717C92.1914 26.751 91.2334 27.1406 90.0674 27.1406C89.5518 27.1406 88.9805 27.0264 88.3535 26.7979V31.1221H86.7188ZM89.4873 20.4082H88.3535V25.3828C88.8457 25.6348 89.3613 25.7607 89.9004 25.7607C90.6504 25.7607 91.2627 25.5 91.7373 24.9785C92.2178 24.457 92.458 23.7861 92.458 22.9658C92.458 22.4385 92.3438 21.9727 92.1152 21.5684C91.8926 21.1641 91.585 20.8711 91.1924 20.6895C90.8057 20.502 90.2373 20.4082 89.4873 20.4082ZM97.5381 18.9141V20.7686L97.626 20.6279C98.3994 19.3799 99.1729 18.7559 99.9463 18.7559C100.55 18.7559 101.18 19.0605 101.836 19.6699L100.992 21.0762C100.436 20.5488 99.9199 20.2852 99.4453 20.2852C98.9297 20.2852 98.4814 20.5312 98.1006 21.0234C97.7256 21.5156 97.5381 22.0986 97.5381 22.7725V27H95.9297V18.9141H97.5381ZM109.852 23.0977H104.165C104.206 23.8711 104.464 24.4863 104.938 24.9434C105.419 25.4004 106.037 25.6289 106.793 25.6289C107.848 25.6289 108.82 25.3008 109.711 24.6445V26.209C109.219 26.5371 108.729 26.7715 108.243 26.9121C107.763 27.0527 107.197 27.123 106.547 27.123C105.656 27.123 104.936 26.9385 104.385 26.5693C103.834 26.2002 103.392 25.7051 103.058 25.084C102.729 24.457 102.565 23.7334 102.565 22.9131C102.565 21.6826 102.914 20.6836 103.611 19.916C104.309 19.1426 105.214 18.7559 106.327 18.7559C107.399 18.7559 108.255 19.1309 108.894 19.8809C109.532 20.6309 109.852 21.6357 109.852 22.8955V23.0977ZM104.2 22.1396H108.27C108.229 21.501 108.038 21.0088 107.698 20.6631C107.358 20.3174 106.901 20.1445 106.327 20.1445C105.753 20.1445 105.281 20.3174 104.912 20.6631C104.549 21.0088 104.312 21.501 104.2 22.1396ZM111.196 26.4199V24.6973C111.647 25.0137 112.107 25.2715 112.576 25.4707C113.051 25.6641 113.449 25.7607 113.771 25.7607C114.105 25.7607 114.393 25.6787 114.633 25.5146C114.873 25.3506 114.993 25.1543 114.993 24.9258C114.993 24.6914 114.914 24.498 114.756 24.3457C114.604 24.1875 114.27 23.9619 113.754 23.6689C112.723 23.0947 112.046 22.6055 111.724 22.2012C111.407 21.791 111.249 21.3457 111.249 20.8652C111.249 20.2441 111.489 19.7373 111.97 19.3447C112.456 18.9521 113.08 18.7559 113.842 18.7559C114.633 18.7559 115.444 18.9785 116.276 19.4238V21.0059C115.327 20.4316 114.551 20.1445 113.947 20.1445C113.637 20.1445 113.385 20.2119 113.191 20.3467C113.004 20.4756 112.91 20.6484 112.91 20.8652C112.91 21.0527 112.995 21.2314 113.165 21.4014C113.341 21.5713 113.646 21.7764 114.079 22.0166L114.65 22.3418C115.998 23.1035 116.672 23.9473 116.672 24.873C116.672 25.5352 116.411 26.0801 115.89 26.5078C115.374 26.9297 114.709 27.1406 113.895 27.1406C113.414 27.1406 112.986 27.0908 112.611 26.9912C112.236 26.8857 111.765 26.6953 111.196 26.4199ZM118.122 26.4199V24.6973C118.573 25.0137 119.033 25.2715 119.502 25.4707C119.977 25.6641 120.375 25.7607 120.697 25.7607C121.031 25.7607 121.318 25.6787 121.559 25.5146C121.799 25.3506 121.919 25.1543 121.919 24.9258C121.919 24.6914 121.84 24.498 121.682 24.3457C121.529 24.1875 121.195 23.9619 120.68 23.6689C119.648 23.0947 118.972 22.6055 118.649 22.2012C118.333 21.791 118.175 21.3457 118.175 20.8652C118.175 20.2441 118.415 19.7373 118.896 19.3447C119.382 18.9521 120.006 18.7559 120.768 18.7559C121.559 18.7559 122.37 18.9785 123.202 19.4238V21.0059C122.253 20.4316 121.477 20.1445 120.873 20.1445C120.562 20.1445 120.311 20.2119 120.117 20.3467C119.93 20.4756 119.836 20.6484 119.836 20.8652C119.836 21.0527 119.921 21.2314 120.091 21.4014C120.267 21.5713 120.571 21.7764 121.005 22.0166L121.576 22.3418C122.924 23.1035 123.598 23.9473 123.598 24.873C123.598 25.5352 123.337 26.0801 122.815 26.5078C122.3 26.9297 121.635 27.1406 120.82 27.1406C120.34 27.1406 119.912 27.0908 119.537 26.9912C119.162 26.8857 118.69 26.6953 118.122 26.4199Z" fill="white"/>
<path d="M1 28L71 43H3C1.89543 43 1 42.1046 1 41V28Z" fill="#FF7131"/>
<path d="M189 16L119 1H187C188.105 1 189 1.89543 189 3V16Z" fill="#FDB42A"/>
<path d="M176.298 29.3739L176.863 30.9042C176.884 30.9618 176.939 31 177 31C177.061 31 177.116 30.9618 177.137 30.9042L177.702 29.3739C178.159 28.135 179.135 27.1585 180.374 26.7017L181.904 26.1373C181.962 26.1161 182 26.0612 182 25.9999C182 25.9386 181.962 25.8837 181.904 25.8625L180.374 25.2981C179.135 24.8413 178.159 23.8648 177.702 22.626L177.137 21.0957C177.116 21.0382 177.061 21 177 21C176.939 21 176.884 21.0382 176.863 21.0957L176.298 22.626C175.841 23.8648 174.865 24.8413 173.626 25.2981L172.096 25.8625C172.038 25.8837 172 25.9386 172 25.9999C172 26.0612 172.038 26.1161 172.096 26.1373L173.626 26.7017C174.865 27.1585 175.841 28.135 176.298 29.3739Z" fill="#FCCC0A"/>
<path d="M168.579 20.0243L168.918 20.9425C168.93 20.9771 168.963 21 169 21C169.037 21 169.07 20.9771 169.082 20.9425L169.421 20.0243C169.695 19.281 170.281 18.6951 171.024 18.421L171.943 18.0824C171.977 18.0697 172 18.0367 172 17.9999C172 17.9632 171.977 17.9302 171.943 17.9175L171.024 17.5789C170.281 17.3048 169.695 16.7189 169.421 15.9756L169.082 15.0574C169.07 15.0229 169.037 15 169 15C168.963 15 168.93 15.0229 168.918 15.0574L168.579 15.9756C168.305 16.7189 167.719 17.3048 166.976 17.5789L166.057 17.9175C166.023 17.9302 166 17.9632 166 17.9999C166 18.0367 166.023 18.0697 166.057 18.0824L166.976 18.421C167.719 18.6951 168.305 19.281 168.579 20.0243Z" fill="#FDDE03" fill-opacity="0.7"/>
<path d="M16.2983 22.3739L16.8627 23.9042C16.8839 23.9618 16.9387 24 17 24C17.0614 24 17.1162 23.9618 17.1374 23.9042L17.7018 22.3739C18.1587 21.135 19.1352 20.1585 20.374 19.7017L21.9043 19.1373C21.9618 19.1161 22 19.0612 22 18.9999C22 18.9386 21.9618 18.8837 21.9043 18.8625L20.3739 18.2981C19.1352 17.8413 18.1586 16.8648 17.7018 15.626L17.1374 14.0957C17.1162 14.0382 17.0614 14 17 14C16.9387 14 16.8839 14.0382 16.8627 14.0957L16.2983 15.626C15.8414 16.8648 14.8649 17.8413 13.6261 18.2981L12.0957 18.8625C12.0382 18.8837 12 18.9386 12 18.9999C12 19.0612 12.0382 19.1161 12.0957 19.1373L13.626 19.7017C14.8648 20.1585 15.8414 21.135 16.2983 22.3739Z" fill="#FCCC0A" fill-opacity="0.7"/>
<path d="M8.57895 14.0243L8.91759 14.9425C8.93032 14.9771 8.96323 15 9.00003 15C9.03682 15 9.06973 14.9771 9.08246 14.9425L9.4211 14.0243C9.69521 13.281 10.2811 12.6951 11.0244 12.421L11.9426 12.0824C11.9771 12.0697 12 12.0367 12 11.9999C12 11.9632 11.9771 11.9302 11.9426 11.9175L11.0243 11.5789C10.2811 11.3048 9.69515 10.7189 9.4211 9.97561L9.08246 9.05744C9.06973 9.02292 9.03682 9 9.00003 9C8.96323 9 8.93032 9.02292 8.91759 9.05744L8.57895 9.97561C8.30485 10.7189 7.71896 11.3048 6.97565 11.5789L6.05744 11.9175C6.02292 11.9302 6 11.9632 6 11.9999C6 12.0367 6.02292 12.0697 6.05744 12.0824L6.9756 12.421C7.71891 12.6951 8.30485 13.281 8.57895 14.0243Z" fill="#FDDE03"/>
<defs>
<linearGradient id="paint0_linear" x1="0" y1="22" x2="190" y2="22" gradientUnits="userSpaceOnUse">
<stop stop-color="#FC484E"/>
<stop offset="1" stop-color="#FC1F7C"/>
</linearGradient>
</defs>
</svg>
