<svg width="190" height="44" viewBox="0 0 190 44" fill="none" xmlns="http://www.w3.org/2000/svg">
<rect x="0.5" y="0.5" width="189" height="43" rx="2.5" fill="#242F3E" stroke="#C8D0D8"/>
<path d="M73.5563 15.1865H71.2359V23H68.5553V15.1865H67.0787V13.8945L68.5553 13.1738V12.4531C68.5553 11.334 68.8307 10.5166 69.3814 10.001C69.9322 9.48535 70.8141 9.22754 72.027 9.22754C72.9527 9.22754 73.776 9.36523 74.4967 9.64062L73.8111 11.6094C73.2721 11.4395 72.774 11.3545 72.317 11.3545C71.9361 11.3545 71.6607 11.4688 71.4908 11.6973C71.3209 11.9199 71.2359 12.207 71.2359 12.5586V13.1738H73.5563V15.1865ZM76.8789 18.0693C76.8789 19.042 77.0371 19.7773 77.3535 20.2754C77.6757 20.7734 78.1972 21.0225 78.9179 21.0225C79.6328 21.0225 80.1455 20.7764 80.456 20.2842C80.7724 19.7861 80.9306 19.0479 80.9306 18.0693C80.9306 17.0967 80.7724 16.3672 80.456 15.8809C80.1396 15.3945 79.6211 15.1514 78.9004 15.1514C78.1855 15.1514 77.6699 15.3945 77.3535 15.8809C77.0371 16.3613 76.8789 17.0908 76.8789 18.0693ZM83.6728 18.0693C83.6728 19.6689 83.2509 20.9199 82.4072 21.8223C81.5634 22.7246 80.3886 23.1758 78.8828 23.1758C77.9394 23.1758 77.1074 22.9707 76.3867 22.5605C75.666 22.1445 75.1123 21.5498 74.7255 20.7764C74.3388 20.0029 74.1455 19.1006 74.1455 18.0693C74.1455 16.4639 74.5644 15.2158 75.4023 14.3252C76.2402 13.4346 77.4179 12.9893 78.9355 12.9893C79.8789 12.9893 80.7109 13.1943 81.4316 13.6045C82.1523 14.0146 82.706 14.6035 83.0927 15.3711C83.4795 16.1387 83.6728 17.0381 83.6728 18.0693ZM91.012 12.9893C91.3753 12.9893 91.6771 13.0156 91.9173 13.0684L91.7152 15.582C91.4984 15.5234 91.2347 15.4941 90.9241 15.4941C90.0687 15.4941 89.4007 15.7139 88.9202 16.1533C88.4456 16.5928 88.2083 17.208 88.2083 17.999V23H85.5277V13.1738H87.5579L87.9534 14.8262H88.0853C88.39 14.2754 88.8001 13.833 89.3157 13.499C89.8372 13.1592 90.4027 12.9893 91.012 12.9893ZM102.139 23H99.4587V17.2607C99.4587 16.5518 99.3386 16.0215 99.0983 15.6699C98.8639 15.3125 98.4919 15.1338 97.9821 15.1338C97.2966 15.1338 96.7985 15.3857 96.488 15.8896C96.1774 16.3936 96.0221 17.2227 96.0221 18.377V23H93.3415V13.1738H95.3893L95.7497 14.4307H95.8991C96.1628 13.9795 96.5436 13.6279 97.0417 13.376C97.5397 13.1182 98.111 12.9893 98.7555 12.9893C100.226 12.9893 101.222 13.4697 101.744 14.4307H101.981C102.245 13.9736 102.632 13.6191 103.141 13.3672C103.657 13.1152 104.237 12.9893 104.882 12.9893C105.995 12.9893 106.836 13.2764 107.404 13.8506C107.978 14.4189 108.265 15.333 108.265 16.5928V23H105.576V17.2607C105.576 16.5518 105.456 16.0215 105.216 15.6699C104.981 15.3125 104.609 15.1338 104.099 15.1338C103.443 15.1338 102.951 15.3682 102.623 15.8369C102.3 16.3057 102.139 17.0498 102.139 18.0693V23ZM116.905 23L116.387 21.6641H116.316C115.865 22.2324 115.399 22.6279 114.919 22.8506C114.444 23.0674 113.823 23.1758 113.056 23.1758C112.112 23.1758 111.368 22.9062 110.823 22.3672C110.284 21.8281 110.015 21.0605 110.015 20.0645C110.015 19.0215 110.378 18.2539 111.105 17.7617C111.837 17.2637 112.939 16.9883 114.409 16.9355L116.114 16.8828V16.4521C116.114 15.4561 115.605 14.958 114.585 14.958C113.8 14.958 112.877 15.1953 111.816 15.6699L110.929 13.8594C112.06 13.2676 113.314 12.9717 114.69 12.9717C116.009 12.9717 117.02 13.2588 117.723 13.833C118.426 14.4072 118.777 15.2803 118.777 16.4521V23H116.905ZM116.114 18.4473L115.077 18.4824C114.298 18.5059 113.718 18.6465 113.337 18.9043C112.956 19.1621 112.766 19.5547 112.766 20.082C112.766 20.8379 113.199 21.2158 114.066 21.2158C114.688 21.2158 115.183 21.0371 115.552 20.6797C115.927 20.3223 116.114 19.8477 116.114 19.2559V18.4473ZM123.867 23H121.186V9.32422H123.867V23Z" fill="white"/>
<path d="M55 28.5L55.9637 28.6858C82.7354 33.8466 110.252 33.7835 137 28.5V28.5" stroke="#F8982D" stroke-width="3"/>
</svg>
