<svg width="111" height="111" viewBox="0 0 111 111" fill="none" xmlns="http://www.w3.org/2000/svg">
<g clip-path="url(#clip0)">
<circle cx="55.5" cy="55.5" r="55.5" fill="url(#paint0_linear)"/>
<path d="M20.5576 44.3651L14.4837 74.2377L58.2372 30.4842L28.3646 36.558C24.4313 37.3578 21.3573 40.4318 20.5576 44.3651Z" fill="url(#paint1_linear)"/>
<path d="M51.3796 67.3787L58.2362 30.4818L14.4827 74.2352L51.3796 67.3787Z" fill="#2394FF"/>
<rect width="51.5601" height="30.8858" rx="4" transform="matrix(0.707107 -0.707107 0.712457 0.701716 12 67.459)" fill="url(#paint2_linear)"/>
<path d="M46.5056 64.4754C47.104 63.7196 47.3968 62.9904 47.3839 62.2878C47.3767 61.5794 47.0889 60.9451 46.5207 60.3847C46.2788 60.1462 46.0223 59.9837 45.7512 59.8973C45.4801 59.8109 45.1974 59.7809 44.9031 59.8073C44.6144 59.828 44.3141 59.8995 44.0022 60.0217C43.6847 60.1383 43.3585 60.2804 43.0238 60.4479L46.5056 64.4754ZM36.7962 55.7314C36.4885 56.1066 36.2657 56.4694 36.1279 56.8198C35.9845 57.1647 35.909 57.4918 35.9016 57.8011C35.8885 58.1049 35.9378 58.3854 36.0495 58.6426C36.1611 58.8997 36.3211 59.1309 36.5292 59.3362C36.7655 59.5692 37.0163 59.7318 37.2817 59.8239C37.5471 59.9159 37.8241 59.9572 38.1127 59.9478C38.4014 59.9271 38.7016 59.8669 39.0134 59.7672C39.3195 59.6619 39.6371 59.534 39.9661 59.3835L36.7962 55.7314ZM41.4388 58.6134C41.9723 58.3252 42.5142 58.0566 43.0645 57.8075C43.6148 57.5472 44.1674 57.374 44.7224 57.288C45.2718 57.1964 45.8176 57.2257 46.3599 57.3759C46.9079 57.5205 47.4435 57.8508 47.9667 58.3667C48.4786 58.8716 48.8742 59.4371 49.1535 60.0631C49.4329 60.6779 49.5791 61.3254 49.5921 62.0055C49.5995 62.6802 49.4682 63.3707 49.1982 64.0771C48.9283 64.7722 48.5029 65.4498 47.9219 66.1097L49.1697 67.5438C49.2822 67.666 49.3407 67.8198 49.3453 68.0053C49.3555 68.1964 49.2895 68.3631 49.1472 68.5055L48.4643 69.1893L46.7613 67.2214C46.011 67.8161 45.2106 68.2709 44.3601 68.5858C43.5097 68.8894 42.6742 69.0438 41.8538 69.0491L41.5732 67.6696C41.5513 67.5462 41.5577 67.4224 41.5923 67.2983C41.6271 67.1629 41.6928 67.0468 41.7896 66.9499C41.9091 66.8302 42.0849 66.7492 42.3171 66.7068C42.5551 66.6586 42.8326 66.6043 43.1498 66.5439C43.4614 66.4779 43.8071 66.3778 44.1869 66.2434C44.5612 66.1035 44.95 65.8876 45.3534 65.5955L41.5764 61.243C41.0599 61.5253 40.5322 61.7909 39.9932 62.0398C39.4544 62.2775 38.9046 62.4309 38.3441 62.5002C37.7893 62.5638 37.2294 62.5093 36.6646 62.3369C36.1055 62.1588 35.5447 61.7923 34.9821 61.2375C34.5602 60.8214 34.232 60.3337 33.9976 59.7746C33.7689 59.2097 33.6592 58.6152 33.6684 57.9909C33.6777 57.3555 33.8201 56.7042 34.0956 56.037C34.3654 55.3644 34.7907 54.7093 35.3715 54.0719L34.326 52.8713C34.2079 52.7435 34.1466 52.5869 34.142 52.4014C34.1374 52.2159 34.2063 52.052 34.3485 51.9095L35.0314 51.2258L36.5574 52.9851C37.2393 52.4701 37.9204 52.1124 38.6005 51.9123C39.2749 51.7066 39.9319 51.5967 40.5713 51.5826L40.8025 52.6928C40.8743 53.0123 40.8191 53.2633 40.6369 53.4456C40.5516 53.5311 40.4182 53.6031 40.2368 53.6617C40.0611 53.7147 39.8514 53.7793 39.6077 53.8556C39.3696 53.9262 39.1088 54.0196 38.8253 54.1358C38.5417 54.2521 38.255 54.4105 37.9653 54.6111L41.4388 58.6134Z" fill="white"/>
<path fill-rule="evenodd" clip-rule="evenodd" d="M14.5454 74.2998L38.3045 98.0589C40.2571 100.012 43.423 100.012 45.3756 98.0589L82.058 61.3765C84.0106 59.4239 84.0106 56.2581 82.058 54.3055L58.2988 30.5464L58.2058 30.6394L51.3786 67.3785L14.6394 74.2058L14.5454 74.2998Z" fill="url(#paint3_linear)"/>
<path d="M94.6578 25.7481L101.5 23.5C108.315 33.5596 111.672 45.563 111.065 57.6983L111 59L86.9214 58.218L63.4869 43.1519C60.7885 41.4171 57.4518 40.9913 54.4042 41.9927L42.6595 46.7708C42.0645 47.0129 41.4282 47.1373 40.7859 47.1373H37.2159C35.0687 47.1373 33.3281 45.3967 33.3281 43.2496C33.3281 42.4559 33.6918 41.7059 34.315 41.2144L42.9351 34.4164C46.4636 31.6338 50.8262 30.1205 55.3198 30.1205H66.5687C67.5904 30.1205 68.6107 30.0422 69.6205 29.8863L91.4666 26.5133C92.5495 26.3461 93.6168 26.0902 94.6578 25.7481Z" fill="url(#paint4_linear)"/>
</g>
<defs>
<linearGradient id="paint0_linear" x1="22" y1="9" x2="90" y2="99" gradientUnits="userSpaceOnUse">
<stop stop-color="#FF00B5"/>
<stop offset="1" stop-color="#890095"/>
</linearGradient>
<linearGradient id="paint1_linear" x1="21.8767" y1="37.8772" x2="36.3605" y2="52.3609" gradientUnits="userSpaceOnUse">
<stop stop-color="#21319F"/>
<stop offset="1" stop-color="#0166C5"/>
</linearGradient>
<linearGradient id="paint2_linear" x1="14.1287" y1="-2.09203" x2="34.2765" y2="28.2816" gradientUnits="userSpaceOnUse">
<stop stop-color="#3DFF17"/>
<stop offset="1" stop-color="#00FFE0"/>
</linearGradient>
<linearGradient id="paint3_linear" x1="57.4998" y1="73.5" x2="31.9998" y2="51" gradientUnits="userSpaceOnUse">
<stop stop-color="#0066C5"/>
<stop offset="1" stop-color="#3E007C"/>
</linearGradient>
<linearGradient id="paint4_linear" x1="111.46" y1="34.5726" x2="111.2" y2="22.2974" gradientUnits="userSpaceOnUse">
<stop stop-color="white"/>
<stop offset="1" stop-color="#DFE3E8"/>
</linearGradient>
<clipPath id="clip0">
<rect width="111" height="111" fill="white"/>
</clipPath>
</defs>
</svg>
