<svg width="141" height="90" viewBox="0 0 141 90" fill="none" xmlns="http://www.w3.org/2000/svg">
<path d="M22.0264 62.722L66.8522 39.2012L119.298 62.722V89.7547H22.0264V62.722Z" fill="url(#paint0_linear)"/>
<path d="M70.5002 79.0562C70.0431 79.0562 69.586 78.919 69.1928 78.6446L37.2096 56.3172C36.5899 55.8846 36.2201 55.1729 36.2201 54.4129V27.1241C36.2201 26.8753 36.2599 26.6279 36.338 26.3918L38.3493 20.3074L36.8916 18.8376C33.2835 15.1993 33.2835 9.27955 36.8916 5.64141C36.8952 5.63766 36.899 5.63398 36.9028 5.63014C40.4938 2.01822 46.3438 1.97118 49.9808 5.63896L51.0341 6.70091C52.1503 5.8571 59.3834 0 70.499 0C81.6163 0 88.8507 5.85661 89.9667 6.70051L91.0196 5.63864C94.606 2.02231 100.456 1.96718 104.098 5.62998C104.101 5.63366 104.105 5.63741 104.109 5.64125C107.717 9.27955 107.717 15.1992 104.109 18.8373L102.651 20.3072L104.663 26.3916C104.74 26.6277 104.78 26.8751 104.78 27.124V54.4129C104.78 55.1729 104.411 55.8846 103.79 56.3172L71.8076 78.6446C71.4144 78.919 70.9573 79.0562 70.5002 79.0562Z" fill="url(#paint1_linear)"/>
<path d="M70.4748 59.4303C61.475 59.4303 53.2373 52.7543 53.2373 43.284V37.2235C53.2373 33.2854 54.7718 29.5829 57.5581 26.7979L65.3183 19.0415C68.1616 16.1996 72.788 16.1998 75.6314 19.0413L83.3917 26.7979C86.178 29.5829 87.7124 33.2854 87.7124 37.2235V43.284C87.7124 52.736 79.4858 59.4303 70.4748 59.4303Z" fill="url(#paint2_linear)"/>
<path d="M70.4748 49.3718C65.9725 49.3718 62.3096 46.0902 62.3096 42.0566C62.3096 38.0229 65.9723 34.7412 70.4748 34.7412C74.9772 34.7412 78.6399 38.0229 78.6399 42.0566C78.6399 46.0902 74.977 49.3718 70.4748 49.3718Z" fill="#212B36"/>
<path d="M70.4748 55.0469C70.4748 55.0469 65.2617 56.8587 60.374 55.2487C60.5051 61.972 64.9755 67.8675 70.4748 67.8675C75.975 67.8675 80.4455 61.972 80.5765 55.2487C75.6878 56.8587 70.4748 55.0469 70.4748 55.0469Z" fill="#ED435C"/>
<path d="M64.7144 61.0351C66.9546 61.197 68.9576 60.7722 69.9024 60.5231C70.2781 60.4241 70.6713 60.4241 71.047 60.5231C71.9918 60.7722 73.9949 61.197 76.235 61.0351C77.3163 60.9564 78.2021 61.6611 78.4642 62.5884C79.7432 60.5029 80.5219 57.9415 80.5765 55.2448C75.6878 56.8258 70.4748 55.0469 70.4748 55.0469C70.4748 55.0469 65.2617 56.8258 60.374 55.2448C60.4275 57.9426 61.2074 60.5029 62.4853 62.5884C62.7474 61.6611 63.6332 60.9564 64.7144 61.0351Z" fill="url(#paint3_linear)"/>
<path d="M53.2751 22.2158C54.73 22.2158 55.9095 21.027 55.9095 19.5605C55.9095 18.0941 54.73 16.9053 53.2751 16.9053C51.8201 16.9053 50.6406 18.0941 50.6406 19.5605C50.6406 21.027 51.8201 22.2158 53.2751 22.2158Z" fill="#212B36"/>
<path d="M87.6442 22.2158C89.0991 22.2158 90.2786 21.027 90.2786 19.5605C90.2786 18.0941 89.0991 16.9053 87.6442 16.9053C86.1893 16.9053 85.0098 18.0941 85.0098 19.5605C85.0098 21.027 86.1893 22.2158 87.6442 22.2158Z" fill="#212B36"/>
<path fill-rule="evenodd" clip-rule="evenodd" d="M67.0244 76.3323L56.1892 72.6111C55.1374 72.2498 54.0449 73.0375 54.0449 74.1575V84.6194C54.0449 85.7391 55.1374 86.5264 56.1892 86.1654L67.1407 82.4037C67.9345 83.2146 69.0373 83.7169 70.2568 83.7169C71.569 83.7169 72.7463 83.1346 73.5486 82.2134L85.054 86.1654C86.1057 86.5264 87.1982 85.7391 87.1982 84.6194V74.1575C87.1982 73.0375 86.1057 72.2498 85.054 72.6111L73.6549 76.5267C72.8523 75.532 71.6283 74.8966 70.2568 74.8966C68.9766 74.8966 67.8249 75.4503 67.0244 76.3323Z" fill="url(#paint4_radial)"/>
<path d="M91.5 90.0004L104.788 55.6992L121 62.8861L140.5 90.0004H121H91.5Z" fill="url(#paint5_linear)"/>
<path d="M49.8299 89.5923L36.2119 55.291L20 62.4779L0 89.5923H20H49.8299Z" fill="url(#paint6_linear)"/>
<path d="M41.7241 25.1221H61.6076V33.0139C61.6076 36.7019 58.6402 39.6916 54.9798 39.6916C47.6589 39.6916 41.7241 33.7122 41.7241 26.3362V25.1221Z" fill="url(#paint7_linear)"/>
<path d="M79.6836 25.1221H99.5671V26.3362C99.5671 33.7122 93.6324 39.6916 86.3114 39.6916C82.651 39.6916 79.6836 36.7019 79.6836 33.0139V25.1221Z" fill="url(#paint8_linear)"/>
<path d="M81.4909 21.4795H59.7998V23.3007H81.4909V21.4795Z" fill="#F201A7"/>
<path d="M61.6074 23.3037H59.7998V25.1249H61.6074V23.3037Z" fill="#F201A7"/>
<path d="M81.4912 23.3037H79.6836V25.1249H81.4912V23.3037Z" fill="#F201A7"/>
<defs>
<linearGradient id="paint0_linear" x1="70.662" y1="93.8382" x2="70.662" y2="74.8908" gradientUnits="userSpaceOnUse">
<stop/>
<stop offset="1" stop-color="#001C64"/>
</linearGradient>
<linearGradient id="paint1_linear" x1="70.5314" y1="0" x2="70.5314" y2="36.7462" gradientUnits="userSpaceOnUse">
<stop stop-color="#F9FAFB"/>
<stop offset="1" stop-color="white"/>
</linearGradient>
<linearGradient id="paint2_linear" x1="70.4842" y1="23.033" x2="70.4842" y2="62.2489" gradientUnits="userSpaceOnUse">
<stop stop-color="#C4CDD5"/>
<stop offset="1" stop-color="#F9FAFB"/>
</linearGradient>
<linearGradient id="paint3_linear" x1="70.4753" y1="55.0469" x2="70.5069" y2="58.8176" gradientUnits="userSpaceOnUse">
<stop stop-color="#DA2F3C"/>
<stop offset="1" stop-color="#ED435C"/>
</linearGradient>
<radialGradient id="paint4_radial" cx="0" cy="0" r="1" gradientUnits="userSpaceOnUse" gradientTransform="translate(70.6216 79.3827) scale(16.5767 40.6275)">
<stop stop-color="#FFE600"/>
<stop offset="0.5625" stop-color="#FFB904"/>
<stop offset="1" stop-color="#FFD600"/>
</radialGradient>
<linearGradient id="paint5_linear" x1="106.085" y1="55.6992" x2="106.085" y2="90.0004" gradientUnits="userSpaceOnUse">
<stop stop-color="#FF009D"/>
<stop offset="1" stop-color="#57007E"/>
</linearGradient>
<linearGradient id="paint6_linear" x1="34.9149" y1="55.291" x2="34.9149" y2="89.5923" gradientUnits="userSpaceOnUse">
<stop stop-color="#FF009D"/>
<stop offset="1" stop-color="#57007E"/>
</linearGradient>
<linearGradient id="paint7_linear" x1="51.6659" y1="25.1221" x2="51.6659" y2="39.6916" gradientUnits="userSpaceOnUse">
<stop stop-color="#F900A6"/>
<stop offset="1" stop-color="#0400B5"/>
</linearGradient>
<linearGradient id="paint8_linear" x1="89.6254" y1="25.1221" x2="89.6254" y2="39.6916" gradientUnits="userSpaceOnUse">
<stop stop-color="#F900A6"/>
<stop offset="1" stop-color="#0400B5"/>
</linearGradient>
</defs>
</svg>
