<svg width="131" height="131" viewBox="0 0 131 131" fill="none" xmlns="http://www.w3.org/2000/svg">
<path d="M0 65.5C0 101.675 29.3253 131 65.5 131C101.675 131 131 101.675 131 65.5C131 29.3253 101.675 0 65.5 0C29.3253 0 0 29.3253 0 65.5Z" fill="url(#paint0_linear)"/>
<path d="M7.75586 91.379L61.0409 63.6284L123.383 91.379L99.5869 114.291L86.8879 127.658L85.785 127.983C78.9805 129.984 71.9244 131 64.8318 131H63.4055C56.8305 131 50.3044 129.87 44.1124 127.658L35.0894 121.643L29.4083 110.949L7.75586 91.379Z" fill="url(#paint1_linear)"/>
<path d="M65.3768 110.65C64.8335 110.65 64.2901 110.489 63.8227 110.165L25.8039 83.8223C25.0673 83.3119 24.6277 82.4722 24.6277 81.5755V49.3794C24.6277 49.0858 24.675 48.794 24.7679 48.5154L27.1588 41.3368L25.4259 39.6027C21.137 35.3101 21.137 28.3259 25.4259 24.0335C25.4302 24.029 25.4348 24.0247 25.4392 24.0202C29.7079 19.7587 36.6619 19.7032 40.9852 24.0306L42.2373 25.2835C43.5641 24.2879 52.1622 17.3776 65.3754 17.3776C78.5907 17.3776 87.1903 24.2874 88.5169 25.283L89.7685 24.0302C94.0317 19.7635 100.986 19.6985 105.315 24.02C105.318 24.0243 105.323 24.0287 105.328 24.0333C109.617 28.3259 109.617 35.31 105.328 39.6023L103.595 41.3367L105.986 48.5152C106.079 48.7938 106.126 49.0856 106.126 49.3793V81.5755C106.126 82.4722 105.686 83.3119 104.949 83.8223L66.931 110.165C66.4635 110.489 65.9202 110.65 65.3768 110.65Z" fill="url(#paint2_linear)"/>
<path d="M65.3467 87.4957C54.6484 87.4957 44.8562 79.6192 44.8562 68.4459V61.2955C44.8562 56.6492 46.6802 52.2809 49.9924 48.9951L59.2171 39.8439C62.5969 36.4909 68.0964 36.4911 71.4764 39.8437L80.7011 48.9951C84.0132 52.2809 85.8372 56.6492 85.8372 61.2955V68.4459C85.8372 79.5976 76.0581 87.4957 65.3467 87.4957Z" fill="url(#paint3_linear)"/>
<path d="M65.3482 75.6276C59.9962 75.6276 55.6421 71.756 55.6421 66.997C55.6421 62.2379 59.996 58.3661 65.3482 58.3661C70.7003 58.3661 75.0541 62.2379 75.0541 66.997C75.0541 71.756 70.7001 75.6276 65.3482 75.6276Z" fill="#212B36"/>
<path d="M65.346 82.3234C65.346 82.3234 59.1491 84.461 53.3391 82.5615C53.4949 90.4938 58.809 97.4495 65.346 97.4495C71.8843 97.4495 77.1983 90.4938 77.3541 82.5615C71.5429 84.461 65.346 82.3234 65.346 82.3234Z" fill="#ED435C"/>
<path d="M58.4986 89.3885C61.1615 89.5795 63.5426 89.0783 64.6656 88.7843C65.1122 88.6676 65.5797 88.6676 66.0263 88.7843C67.1493 89.0783 69.5305 89.5795 72.1933 89.3885C73.4787 89.2956 74.5316 90.1271 74.8432 91.2211C76.3635 88.7605 77.2892 85.7385 77.3541 82.5569C71.5429 84.4222 65.346 82.3234 65.346 82.3234C65.346 82.3234 59.1491 84.4222 53.3391 82.5569C53.4027 85.7398 54.3298 88.7605 55.8488 91.2211C56.1603 90.1271 57.2133 89.2956 58.4986 89.3885Z" fill="url(#paint4_linear)"/>
<path d="M44.9018 43.5882C46.6313 43.5882 48.0334 42.1857 48.0334 40.4555C48.0334 38.7253 46.6313 37.3228 44.9018 37.3228C43.1723 37.3228 41.7703 38.7253 41.7703 40.4555C41.7703 42.1857 43.1723 43.5882 44.9018 43.5882Z" fill="#212B36"/>
<path d="M85.7566 43.5882C87.4861 43.5882 88.8882 42.1857 88.8882 40.4555C88.8882 38.7253 87.4861 37.3228 85.7566 37.3228C84.0271 37.3228 82.625 38.7253 82.625 40.4555C82.625 42.1857 84.0271 43.5882 85.7566 43.5882Z" fill="#212B36"/>
<path fill-rule="evenodd" clip-rule="evenodd" d="M61.245 107.437L48.3651 103.047C47.1149 102.62 45.8162 103.55 45.8162 104.871V117.214C45.8162 118.535 47.1149 119.464 48.3651 119.038L61.3833 114.6C62.3268 115.557 63.6379 116.15 65.0874 116.15C66.6473 116.15 68.0467 115.463 69.0005 114.376L82.677 119.038C83.9272 119.464 85.2259 118.535 85.2259 117.214V104.871C85.2259 103.55 83.9272 102.62 82.677 103.047L69.1268 107.666C68.1728 106.493 66.7177 105.743 65.0874 105.743C63.5657 105.743 62.1966 106.396 61.245 107.437Z" fill="url(#paint5_radial)"/>
<path d="M86.5537 127.658L106.136 83.0931L125.407 91.5724C120.359 103.938 111.463 114.35 100.038 121.267L96.245 123.563L86.5537 127.658Z" fill="url(#paint6_linear)"/>
<path d="M44.2002 127.443L24.618 82.8776L5.34668 91.3569C10.3952 103.722 19.2905 114.134 30.7163 121.051L34.5089 123.347L44.2002 127.443Z" fill="url(#paint7_linear)"/>
<path d="M31.1697 47.0173H54.8054V56.3283C54.8054 60.6796 51.2781 64.2069 46.9268 64.2069C38.2244 64.2069 31.1697 57.1522 31.1697 48.4498V47.0173Z" fill="url(#paint8_linear)"/>
<path d="M76.2939 47.0173H99.9297V48.4498C99.9297 57.1522 92.875 64.2069 84.1725 64.2069C79.8214 64.2069 76.2939 60.6796 76.2939 56.3283V47.0173Z" fill="url(#paint9_linear)"/>
<path d="M78.4414 42.7205H52.657V44.8692H78.4414V42.7205Z" fill="#F201A7"/>
<path d="M54.8057 44.8724H52.657V47.0211H54.8057V44.8724Z" fill="#F201A7"/>
<path d="M78.4427 44.8724H76.2939V47.0211H78.4427V44.8724Z" fill="#F201A7"/>
<defs>
<linearGradient id="paint0_linear" x1="65.5" y1="0" x2="65.5" y2="131" gradientUnits="userSpaceOnUse">
<stop stop-color="#212C38"/>
<stop offset="1" stop-color="#0054B1"/>
</linearGradient>
<linearGradient id="paint1_linear" x1="65.5696" y1="128.091" x2="65.5696" y2="105.736" gradientUnits="userSpaceOnUse">
<stop/>
<stop offset="1" stop-color="#001C64"/>
</linearGradient>
<linearGradient id="paint2_linear" x1="65.4139" y1="17.3776" x2="65.4139" y2="60.7318" gradientUnits="userSpaceOnUse">
<stop stop-color="#F9FAFB"/>
<stop offset="1" stop-color="white"/>
</linearGradient>
<linearGradient id="paint3_linear" x1="65.3579" y1="44.5532" x2="65.3579" y2="90.8212" gradientUnits="userSpaceOnUse">
<stop stop-color="#C4CDD5"/>
<stop offset="1" stop-color="#F9FAFB"/>
</linearGradient>
<linearGradient id="paint4_linear" x1="65.3467" y1="82.3234" x2="65.3837" y2="86.7722" gradientUnits="userSpaceOnUse">
<stop stop-color="#DA2F3C"/>
<stop offset="1" stop-color="#ED435C"/>
</linearGradient>
<radialGradient id="paint5_radial" cx="0" cy="0" r="1" gradientUnits="userSpaceOnUse" gradientTransform="translate(65.521 111.036) scale(19.7049 47.9335)">
<stop stop-color="#FFE600"/>
<stop offset="0.5625" stop-color="#FFB904"/>
<stop offset="1" stop-color="#FFD600"/>
</radialGradient>
<linearGradient id="paint6_linear" x1="107.678" y1="83.0931" x2="107.678" y2="123.563" gradientUnits="userSpaceOnUse">
<stop stop-color="#FF009D"/>
<stop offset="1" stop-color="#57007E"/>
</linearGradient>
<linearGradient id="paint7_linear" x1="23.0762" y1="82.8776" x2="23.0762" y2="123.347" gradientUnits="userSpaceOnUse">
<stop stop-color="#FF009D"/>
<stop offset="1" stop-color="#57007E"/>
</linearGradient>
<linearGradient id="paint8_linear" x1="42.9876" y1="47.0173" x2="42.9876" y2="64.2069" gradientUnits="userSpaceOnUse">
<stop stop-color="#F900A6"/>
<stop offset="1" stop-color="#0400B5"/>
</linearGradient>
<linearGradient id="paint9_linear" x1="88.1118" y1="47.0173" x2="88.1118" y2="64.2069" gradientUnits="userSpaceOnUse">
<stop stop-color="#F900A6"/>
<stop offset="1" stop-color="#0400B5"/>
</linearGradient>
</defs>
</svg>
