<svg width="190" height="44" viewBox="0 0 190 44" fill="none" xmlns="http://www.w3.org/2000/svg">
<rect x="0.5" y="0.5" width="189" height="43" rx="2.5" fill="url(#paint0_linear)" stroke="#C8D0D8"/>
<mask id="path-2-inside-1" fill="white">
<path fill-rule="evenodd" clip-rule="evenodd" d="M120 8C120 7.44772 119.552 7 119 7H71.4148C71.1767 7 70.9464 7.08498 70.7653 7.23965L62.3505 14.4279C62.1281 14.6179 62 14.8957 62 15.1882L62 22.4545L62 29.2481C62 29.5511 62.1373 29.8377 62.3734 30.0275L70.7714 36.7794C70.949 36.9222 71.1701 37 71.398 37H119C119.552 37 120 36.5523 120 36V8ZM67.4999 24C68.3283 24 68.9999 23.3284 68.9999 22.5C68.9999 21.6716 68.3283 21 67.4999 21C66.6715 21 65.9999 21.6716 65.9999 22.5C65.9999 23.3284 66.6715 24 67.4999 24Z"/>
</mask>
<path fill-rule="evenodd" clip-rule="evenodd" d="M120 8C120 7.44772 119.552 7 119 7H71.4148C71.1767 7 70.9464 7.08498 70.7653 7.23965L62.3505 14.4279C62.1281 14.6179 62 14.8957 62 15.1882L62 22.4545L62 29.2481C62 29.5511 62.1373 29.8377 62.3734 30.0275L70.7714 36.7794C70.949 36.9222 71.1701 37 71.398 37H119C119.552 37 120 36.5523 120 36V8ZM67.4999 24C68.3283 24 68.9999 23.3284 68.9999 22.5C68.9999 21.6716 68.3283 21 67.4999 21C66.6715 21 65.9999 21.6716 65.9999 22.5C65.9999 23.3284 66.6715 24 67.4999 24Z" fill="#F7E902"/>
<path d="M62 22.4545L62.5 22.4545V22.4545L62 22.4545ZM62.3734 30.0275L62.0601 30.4172L62.3734 30.0275ZM70.7714 36.7794L71.0847 36.3897L70.7714 36.7794ZM70.7653 7.23965L70.4406 6.85948L70.7653 7.23965ZM71.4148 7.5H119V6.5H71.4148V7.5ZM62.6752 14.8081L71.0901 7.61983L70.4406 6.85948L62.0257 14.0477L62.6752 14.8081ZM62.5 22.4545L62.5 15.1882L61.5 15.1882L61.5 22.4545L62.5 22.4545ZM62.5 29.2481L62.5 22.4545L61.5 22.4545L61.5 29.2481L62.5 29.2481ZM71.0847 36.3897L62.6867 29.6378L62.0601 30.4172L70.4581 37.169L71.0847 36.3897ZM119 36.5H71.398V37.5H119V36.5ZM119.5 8V36H120.5V8H119.5ZM68.4999 22.5C68.4999 23.0523 68.0522 23.5 67.4999 23.5V24.5C68.6045 24.5 69.4999 23.6046 69.4999 22.5H68.4999ZM67.4999 21.5C68.0522 21.5 68.4999 21.9477 68.4999 22.5H69.4999C69.4999 21.3954 68.6045 20.5 67.4999 20.5V21.5ZM66.4999 22.5C66.4999 21.9477 66.9476 21.5 67.4999 21.5V20.5C66.3953 20.5 65.4999 21.3954 65.4999 22.5H66.4999ZM67.4999 23.5C66.9476 23.5 66.4999 23.0523 66.4999 22.5H65.4999C65.4999 23.6046 66.3953 24.5 67.4999 24.5V23.5ZM119 37.5C119.828 37.5 120.5 36.8284 120.5 36H119.5C119.5 36.2761 119.276 36.5 119 36.5V37.5ZM61.5 29.2481C61.5 29.7025 61.706 30.1324 62.0601 30.4172L62.6867 29.6378C62.5687 29.5429 62.5 29.3996 62.5 29.2481L61.5 29.2481ZM62.0257 14.0477C61.6921 14.3327 61.5 14.7495 61.5 15.1882L62.5 15.1882C62.5 15.042 62.564 14.903 62.6752 14.8081L62.0257 14.0477ZM119 7.5C119.276 7.5 119.5 7.72386 119.5 8H120.5C120.5 7.17157 119.828 6.5 119 6.5V7.5ZM70.4581 37.169C70.7246 37.3832 71.0562 37.5 71.398 37.5V36.5C71.2841 36.5 71.1735 36.4611 71.0847 36.3897L70.4581 37.169ZM71.4148 6.5C71.0576 6.5 70.7122 6.62747 70.4406 6.85948L71.0901 7.61983C71.1806 7.54249 71.2958 7.5 71.4148 7.5V6.5Z" fill="black" mask="url(#path-2-inside-1)"/>
<path d="M78.0882 10.9785H83.8851C84.8512 10.9785 85.5918 11.2178 86.1068 11.6963C86.6263 12.1748 86.8861 12.7673 86.8861 13.4736C86.8861 14.0661 86.7015 14.5742 86.3323 14.998C86.0863 15.2806 85.7262 15.5039 85.2523 15.668C85.9723 15.8411 86.501 16.1396 86.8382 16.5635C87.18 16.9827 87.3509 17.5114 87.3509 18.1494C87.3509 18.6689 87.2301 19.1361 86.9886 19.5508C86.7471 19.9655 86.4167 20.2936 85.9974 20.5352C85.7376 20.6855 85.3457 20.7949 84.8216 20.8633C84.1243 20.9544 83.6618 21 83.4339 21H78.0882V10.9785ZM81.2122 14.9092H82.5589C83.042 14.9092 83.3769 14.8271 83.5638 14.6631C83.7552 14.4945 83.8509 14.2529 83.8509 13.9385C83.8509 13.6468 83.7552 13.4189 83.5638 13.2549C83.3769 13.0908 83.0488 13.0088 82.5794 13.0088H81.2122V14.9092ZM81.2122 18.8467H82.7913C83.3245 18.8467 83.7005 18.7533 83.9193 18.5664C84.138 18.375 84.2474 18.1198 84.2474 17.8008C84.2474 17.5046 84.138 17.2676 83.9193 17.0898C83.7051 16.9076 83.3268 16.8164 82.7845 16.8164H81.2122V18.8467ZM87.851 10.9785H96.1498V13.1182H90.9545V14.7109H95.7739V16.7549H90.9545V18.7305H96.3002V21H87.851V10.9785ZM96.315 17.6846L99.2613 17.5C99.3251 17.9785 99.455 18.3431 99.6509 18.5938C99.9699 18.9993 100.426 19.2021 101.018 19.2021C101.46 19.2021 101.8 19.0996 102.037 18.8945C102.278 18.6849 102.399 18.4434 102.399 18.1699C102.399 17.9102 102.285 17.6777 102.057 17.4727C101.829 17.2676 101.301 17.0739 100.471 16.8916C99.1132 16.5863 98.1448 16.1807 97.566 15.6748C96.9826 15.1689 96.691 14.5241 96.691 13.7402C96.691 13.2253 96.8391 12.7399 97.1353 12.2842C97.4361 11.8239 97.885 11.4639 98.482 11.2041C99.0836 10.9398 99.9061 10.8076 100.95 10.8076C102.23 10.8076 103.206 11.0469 103.876 11.5254C104.55 11.9993 104.951 12.7559 105.079 13.7949L102.16 13.9658C102.082 13.5146 101.918 13.1865 101.668 12.9814C101.421 12.7764 101.08 12.6738 100.642 12.6738C100.282 12.6738 100.011 12.7513 99.8287 12.9062C99.6464 13.0566 99.5552 13.2412 99.5552 13.46C99.5552 13.6195 99.6304 13.763 99.7808 13.8906C99.9267 14.0228 100.273 14.1458 100.82 14.2598C102.173 14.5514 103.142 14.8477 103.725 15.1484C104.313 15.4447 104.739 15.8138 105.003 16.2559C105.272 16.6979 105.407 17.1924 105.407 17.7393C105.407 18.3818 105.229 18.9743 104.874 19.5166C104.518 20.0589 104.021 20.4714 103.383 20.7539C102.745 21.0319 101.941 21.1709 100.97 21.1709C99.2658 21.1709 98.0855 20.8428 97.4293 20.1865C96.773 19.5303 96.4016 18.6963 96.315 17.6846ZM105.148 10.9785H114.561V13.4531H111.403V21H108.306V13.4531H105.148V10.9785ZM84.5624 23.9785H89.163C90.0699 23.9785 90.8013 24.1016 91.3573 24.3477C91.9179 24.5938 92.3804 24.9469 92.745 25.4072C93.1096 25.8675 93.3739 26.403 93.538 27.0137C93.702 27.6243 93.7841 28.2715 93.7841 28.9551C93.7841 30.026 93.661 30.8577 93.4149 31.4502C93.1734 32.0381 92.8361 32.5326 92.4032 32.9336C91.9703 33.3301 91.5054 33.5944 91.0087 33.7266C90.3296 33.9089 89.7144 34 89.163 34H84.5624V23.9785ZM87.6591 26.248V31.7236H88.4179C89.065 31.7236 89.5253 31.653 89.7987 31.5117C90.0721 31.3659 90.2863 31.1152 90.4413 30.7598C90.5962 30.3997 90.6737 29.8187 90.6737 29.0166C90.6737 27.9548 90.5005 27.2279 90.1542 26.8359C89.8078 26.444 89.2336 26.248 88.4315 26.248H87.6591ZM94.4209 23.9785H97.5244V34H94.4209V23.9785ZM97.6212 23.9785H101.06L103.083 27.3623L105.107 23.9785H108.525L104.628 29.8027V34H101.525V29.8027L97.6212 23.9785Z" fill="black"/>
<path d="M78.0882 10.9785V10.7785H77.8882V10.9785H78.0882ZM86.1068 11.6963L85.9706 11.8428L85.9713 11.8434L86.1068 11.6963ZM86.3323 14.998L86.1815 14.8667L86.3323 14.998ZM85.2523 15.668L85.1868 15.479L84.5409 15.7026L85.2055 15.8624L85.2523 15.668ZM86.8382 16.5635L86.6817 16.688L86.6832 16.6898L86.8382 16.5635ZM85.9974 20.5352L85.8975 20.3619L85.8972 20.3621L85.9974 20.5352ZM84.8216 20.8633L84.7957 20.665L84.7957 20.665L84.8216 20.8633ZM78.0882 21H77.8882V21.2H78.0882V21ZM81.2122 14.9092H81.0122V15.1092H81.2122V14.9092ZM83.5638 14.6631L83.6957 14.8134L83.696 14.8132L83.5638 14.6631ZM83.5638 13.2549L83.4318 13.4052L83.4336 13.4067L83.5638 13.2549ZM81.2122 13.0088V12.8088H81.0122V13.0088H81.2122ZM81.2122 18.8467H81.0122V19.0467H81.2122V18.8467ZM83.9193 18.5664L84.0492 18.7185L84.051 18.7169L83.9193 18.5664ZM83.9193 17.0898L83.7896 17.2422L83.7931 17.2451L83.9193 17.0898ZM81.2122 16.8164V16.6164H81.0122V16.8164H81.2122ZM78.0882 11.1785H83.8851V10.7785H78.0882V11.1785ZM83.8851 11.1785C84.8198 11.1785 85.5046 11.4098 85.9706 11.8428L86.2429 11.5498C85.679 11.0258 84.8826 10.7785 83.8851 10.7785V11.1785ZM85.9713 11.8434C86.4497 12.284 86.6861 12.8231 86.6861 13.4736H87.0861C87.0861 12.7114 86.8029 12.0656 86.2423 11.5492L85.9713 11.8434ZM86.6861 13.4736C86.6861 14.0206 86.5171 14.4814 86.1815 14.8667L86.4832 15.1294C86.8858 14.6671 87.0861 14.1115 87.0861 13.4736H86.6861ZM86.1815 14.8667C85.9649 15.1155 85.6386 15.3226 85.1868 15.479L85.3177 15.857C85.8139 15.6852 86.2076 15.4457 86.4832 15.1294L86.1815 14.8667ZM85.2055 15.8624C85.8979 16.029 86.3809 16.3099 86.6817 16.688L86.9947 16.4389C86.6211 15.9694 86.0467 15.6533 85.299 15.4735L85.2055 15.8624ZM86.6832 16.6898C86.9909 17.0673 87.1509 17.5488 87.1509 18.1494H87.5509C87.5509 17.474 87.3691 16.8982 86.9932 16.4371L86.6832 16.6898ZM87.1509 18.1494C87.1509 18.6366 87.038 19.0685 86.8158 19.4501L87.1614 19.6514C87.4222 19.2037 87.5509 18.7013 87.5509 18.1494H87.1509ZM86.8158 19.4501C86.592 19.8344 86.2868 20.1376 85.8975 20.3619L86.0972 20.7085C86.5465 20.4496 86.9022 20.0966 87.1614 19.6514L86.8158 19.4501ZM85.8972 20.3621C85.6715 20.4928 85.3105 20.5978 84.7957 20.665L84.8475 21.0616C85.3809 20.992 85.8038 20.8783 86.0976 20.7082L85.8972 20.3621ZM84.7957 20.665C84.096 20.7564 83.6465 20.8 83.4339 20.8V21.2C83.677 21.2 84.1527 21.1524 84.8475 21.0616L84.7957 20.665ZM83.4339 20.8H78.0882V21.2H83.4339V20.8ZM78.2882 21V10.9785H77.8882V21H78.2882ZM81.2122 15.1092H82.5589V14.7092H81.2122V15.1092ZM82.5589 15.1092C83.051 15.1092 83.4508 15.0284 83.6957 14.8134L83.4318 14.5128C83.303 14.6259 83.033 14.7092 82.5589 14.7092V15.1092ZM83.696 14.8132C83.9403 14.5979 84.0509 14.2959 84.0509 13.9385H83.6509C83.6509 14.21 83.5701 14.391 83.4316 14.513L83.696 14.8132ZM84.0509 13.9385C84.0509 13.5986 83.9369 13.3112 83.6939 13.103L83.4336 13.4067C83.5735 13.5266 83.6509 13.695 83.6509 13.9385H84.0509ZM83.6957 13.1046C83.4515 12.8902 83.0596 12.8088 82.5794 12.8088V13.2088C83.0381 13.2088 83.3023 13.2915 83.4318 13.4052L83.6957 13.1046ZM82.5794 12.8088H81.2122V13.2088H82.5794V12.8088ZM81.0122 13.0088V14.9092H81.4122V13.0088H81.0122ZM81.2122 19.0467H82.7913V18.6467H81.2122V19.0467ZM82.7913 19.0467C83.3363 19.0467 83.774 18.9535 84.0492 18.7185L83.7894 18.4143C83.627 18.553 83.3127 18.6467 82.7913 18.6467V19.0467ZM84.051 18.7169C84.3177 18.4836 84.4474 18.1711 84.4474 17.8008H84.0474C84.0474 18.0684 83.9584 18.2664 83.7876 18.4159L84.051 18.7169ZM84.4474 17.8008C84.4474 17.4479 84.3135 17.1525 84.0454 16.9346L83.7931 17.2451C83.9625 17.3826 84.0474 17.5612 84.0474 17.8008H84.4474ZM84.0489 16.9375C83.7774 16.7065 83.3362 16.6164 82.7845 16.6164V17.0164C83.3174 17.0164 83.6327 17.1086 83.7896 17.2422L84.0489 16.9375ZM82.7845 16.6164H81.2122V17.0164H82.7845V16.6164ZM81.0122 16.8164V18.8467H81.4122V16.8164H81.0122ZM87.851 10.9785V10.7785H87.651V10.9785H87.851ZM96.1498 10.9785H96.3498V10.7785H96.1498V10.9785ZM96.1498 13.1182V13.3182H96.3498V13.1182H96.1498ZM90.9545 13.1182V12.9182H90.7545V13.1182H90.9545ZM90.9545 14.7109H90.7545V14.9109H90.9545V14.7109ZM95.7739 14.7109H95.9739V14.5109H95.7739V14.7109ZM95.7739 16.7549V16.9549H95.9739V16.7549H95.7739ZM90.9545 16.7549V16.5549H90.7545V16.7549H90.9545ZM90.9545 18.7305H90.7545V18.9305H90.9545V18.7305ZM96.3002 18.7305H96.5002V18.5305H96.3002V18.7305ZM96.3002 21V21.2H96.5002V21H96.3002ZM87.851 21H87.651V21.2H87.851V21ZM87.851 11.1785H96.1498V10.7785H87.851V11.1785ZM95.9498 10.9785V13.1182H96.3498V10.9785H95.9498ZM96.1498 12.9182H90.9545V13.3182H96.1498V12.9182ZM90.7545 13.1182V14.7109H91.1545V13.1182H90.7545ZM90.9545 14.9109H95.7739V14.5109H90.9545V14.9109ZM95.5739 14.7109V16.7549H95.9739V14.7109H95.5739ZM95.7739 16.5549H90.9545V16.9549H95.7739V16.5549ZM90.7545 16.7549V18.7305H91.1545V16.7549H90.7545ZM90.9545 18.9305H96.3002V18.5305H90.9545V18.9305ZM96.1002 18.7305V21H96.5002V18.7305H96.1002ZM96.3002 20.8H87.851V21.2H96.3002V20.8ZM88.051 21V10.9785H87.651V21H88.051ZM96.315 17.6846L96.3025 17.485L96.0983 17.4978L96.1157 17.7016L96.315 17.6846ZM99.2613 17.5L99.4595 17.4736L99.4349 17.2887L99.2488 17.3004L99.2613 17.5ZM99.6509 18.5938L99.4934 18.7169L99.4937 18.7174L99.6509 18.5938ZM102.037 18.8945L102.168 19.0458L102.168 19.0456L102.037 18.8945ZM100.471 16.8916L100.427 17.0867L100.428 17.0869L100.471 16.8916ZM97.566 15.6748L97.6976 15.5242L97.697 15.5237L97.566 15.6748ZM97.1353 12.2842L96.9679 12.1748L96.9676 12.1752L97.1353 12.2842ZM98.482 11.2041L98.5618 11.3875L98.5624 11.3872L98.482 11.2041ZM103.876 11.5254L103.759 11.6881L103.761 11.689L103.876 11.5254ZM105.079 13.7949L105.09 13.9946L105.303 13.9821L105.277 13.7705L105.079 13.7949ZM102.16 13.9658L101.963 13.9997L101.993 14.1759L102.171 14.1655L102.16 13.9658ZM101.668 12.9814L101.539 13.1351L101.541 13.1362L101.668 12.9814ZM99.8287 12.9062L99.956 13.0605L99.9582 13.0586L99.8287 12.9062ZM99.7808 13.8906L99.9152 13.7423L99.9102 13.7381L99.7808 13.8906ZM100.82 14.2598L100.862 14.0642L100.861 14.064L100.82 14.2598ZM103.725 15.1484L103.633 15.3262L103.635 15.327L103.725 15.1484ZM105.003 16.2559L104.832 16.3585L104.833 16.3598L105.003 16.2559ZM104.874 19.5166L104.706 19.407L104.874 19.5166ZM103.383 20.7539L103.463 20.9373L103.464 20.9368L103.383 20.7539ZM96.3275 17.8842L99.2738 17.6996L99.2488 17.3004L96.3025 17.485L96.3275 17.8842ZM99.063 17.5264C99.1293 18.0234 99.267 18.4273 99.4934 18.7169L99.8085 18.4706C99.643 18.2589 99.5209 17.9336 99.4595 17.4736L99.063 17.5264ZM99.4937 18.7174C99.8566 19.1787 100.375 19.4021 101.018 19.4021V19.0021C100.477 19.0021 100.083 18.82 99.8081 18.4701L99.4937 18.7174ZM101.018 19.4021C101.489 19.4021 101.882 19.2931 102.168 19.0458L101.906 18.7433C101.718 18.9061 101.432 19.0021 101.018 19.0021V19.4021ZM102.168 19.0456C102.445 18.8051 102.599 18.5114 102.599 18.1699H102.199C102.199 18.3754 102.112 18.5647 101.906 18.7435L102.168 19.0456ZM102.599 18.1699C102.599 17.8432 102.453 17.5595 102.191 17.324L101.923 17.6213C102.117 17.7959 102.199 17.9771 102.199 18.1699H102.599ZM102.191 17.324C102.048 17.1956 101.83 17.0853 101.559 16.9858C101.283 16.8847 100.934 16.7885 100.514 16.6963L100.428 17.0869C100.838 17.177 101.168 17.2688 101.421 17.3614C101.678 17.4555 101.838 17.5447 101.923 17.6213L102.191 17.324ZM100.515 16.6965C99.1671 16.3934 98.2383 15.9968 97.6976 15.5242L97.4344 15.8254C98.0512 16.3645 99.0592 16.7791 100.427 17.0867L100.515 16.6965ZM97.697 15.5237C97.1582 15.0565 96.891 14.4671 96.891 13.7402H96.491C96.491 14.5811 96.807 15.2814 97.4349 15.8259L97.697 15.5237ZM96.891 13.7402C96.891 13.2661 97.0266 12.8184 97.303 12.3932L96.9676 12.1752C96.6515 12.6615 96.491 13.1844 96.491 13.7402H96.891ZM97.3027 12.3936C97.5785 11.9716 97.9939 11.6346 98.5618 11.3875L98.4022 11.0207C97.7761 11.2931 97.2937 11.6762 96.9679 12.1748L97.3027 12.3936ZM98.5624 11.3872C99.1281 11.1387 99.9194 11.0076 100.95 11.0076V10.6076C99.8929 10.6076 99.039 10.7409 98.4015 11.021L98.5624 11.3872ZM100.95 11.0076C102.21 11.0076 103.137 11.2439 103.759 11.6881L103.992 11.3626C103.274 10.8498 102.25 10.6076 100.95 10.6076V11.0076ZM103.761 11.689C104.377 12.1221 104.757 12.8202 104.88 13.8193L105.277 13.7705C105.145 12.6915 104.723 11.8766 103.991 11.3618L103.761 11.689ZM105.067 13.5953L102.148 13.7662L102.171 14.1655L105.09 13.9946L105.067 13.5953ZM102.357 13.932C102.275 13.4528 102.095 13.0728 101.794 12.8267L101.541 13.1362C101.741 13.3003 101.89 13.5765 101.963 13.9997L102.357 13.932ZM101.796 12.8278C101.502 12.5834 101.109 12.4738 100.642 12.4738V12.8738C101.05 12.8738 101.341 12.9693 101.54 13.1351L101.796 12.8278ZM100.642 12.4738C100.258 12.4738 99.932 12.556 99.6991 12.7539L99.9582 13.0586C100.09 12.9467 100.306 12.8738 100.642 12.8738V12.4738ZM99.7014 12.752C99.4773 12.9369 99.3552 13.1762 99.3552 13.46H99.7552C99.7552 13.3062 99.8155 13.1764 99.9559 13.0605L99.7014 12.752ZM99.3552 13.46C99.3552 13.6918 99.4678 13.8873 99.6514 14.0431L99.9102 13.7381C99.7931 13.6387 99.7552 13.5471 99.7552 13.46H99.3552ZM99.6465 14.0388C99.7493 14.132 99.9028 14.2065 100.083 14.2705C100.268 14.3362 100.501 14.3976 100.779 14.4556L100.861 14.064C100.592 14.008 100.378 13.9509 100.217 13.8936C100.051 13.8346 99.9581 13.7814 99.9151 13.7424L99.6465 14.0388ZM100.778 14.4553C102.129 14.7464 103.075 15.0383 103.633 15.3262L103.817 14.9707C103.209 14.657 102.218 14.3565 100.862 14.0643L100.778 14.4553ZM103.635 15.327C104.198 15.6109 104.592 15.9569 104.832 16.3585L105.175 16.1532C104.887 15.6707 104.428 15.2784 103.815 14.9698L103.635 15.327ZM104.833 16.3598C105.081 16.7687 105.207 17.2269 105.207 17.7393H105.607C105.607 17.1579 105.463 16.6271 105.174 16.1519L104.833 16.3598ZM105.207 17.7393C105.207 18.3425 105.041 18.8969 104.706 19.407L105.041 19.6262C105.417 19.0517 105.607 18.4212 105.607 17.7393H105.207ZM104.706 19.407C104.374 19.9146 103.908 20.3028 103.302 20.571L103.464 20.9368C104.135 20.6399 104.663 20.2032 105.041 19.6262L104.706 19.407ZM103.303 20.5706C102.699 20.8341 101.924 20.9709 100.97 20.9709V21.3709C101.958 21.3709 102.792 21.2297 103.463 20.9373L103.303 20.5706ZM100.97 20.9709C99.2787 20.9709 98.1683 20.6427 97.5707 20.0451L97.2878 20.3279C98.0027 21.0428 99.2529 21.3709 100.97 21.3709V20.9709ZM97.5707 20.0451C96.951 19.4254 96.5972 18.637 96.5143 17.6675L96.1157 17.7016C96.2059 18.7556 96.595 19.6351 97.2878 20.3279L97.5707 20.0451ZM105.148 10.9785V10.7785H104.948V10.9785H105.148ZM114.561 10.9785H114.761V10.7785H114.561V10.9785ZM114.561 13.4531V13.6531H114.761V13.4531H114.561ZM111.403 13.4531V13.2531H111.203V13.4531H111.403ZM111.403 21V21.2H111.603V21H111.403ZM108.306 21H108.106V21.2H108.306V21ZM108.306 13.4531H108.506V13.2531H108.306V13.4531ZM105.148 13.4531H104.948V13.6531H105.148V13.4531ZM105.148 11.1785H114.561V10.7785H105.148V11.1785ZM114.361 10.9785V13.4531H114.761V10.9785H114.361ZM114.561 13.2531H111.403V13.6531H114.561V13.2531ZM111.203 13.4531V21H111.603V13.4531H111.203ZM111.403 20.8H108.306V21.2H111.403V20.8ZM108.506 21V13.4531H108.106V21H108.506ZM108.306 13.2531H105.148V13.6531H108.306V13.2531ZM105.348 13.4531V10.9785H104.948V13.4531H105.348ZM84.5624 23.9785V23.7785H84.3624V23.9785H84.5624ZM91.3573 24.3477L91.2764 24.5305L91.2769 24.5308L91.3573 24.3477ZM93.4149 31.4502L93.2302 31.3735L93.2299 31.3742L93.4149 31.4502ZM92.4032 32.9336L92.5383 33.0811L92.5391 33.0803L92.4032 32.9336ZM91.0087 33.7266L90.9572 33.5333L90.9568 33.5334L91.0087 33.7266ZM84.5624 34H84.3624V34.2H84.5624V34ZM87.6591 26.248V26.048H87.4591V26.248H87.6591ZM87.6591 31.7236H87.4591V31.9236H87.6591V31.7236ZM89.7987 31.5117L89.8905 31.6894L89.8928 31.6882L89.7987 31.5117ZM90.4413 30.7598L90.6246 30.8397L90.625 30.8388L90.4413 30.7598ZM84.5624 24.1785H89.163V23.7785H84.5624V24.1785ZM89.163 24.1785C90.0545 24.1785 90.7552 24.2999 91.2764 24.5305L91.4383 24.1648C90.8474 23.9032 90.0853 23.7785 89.163 23.7785V24.1785ZM91.2769 24.5308C91.8089 24.7643 92.2448 25.0978 92.5882 25.5314L92.9018 25.283C92.5161 24.7961 92.0268 24.4232 91.4377 24.1645L91.2769 24.5308ZM92.5882 25.5314C92.9346 25.9687 93.1873 26.4792 93.3448 27.0656L93.7311 26.9618C93.5605 26.3268 93.2846 25.7663 92.9018 25.283L92.5882 25.5314ZM93.3448 27.0656C93.504 27.658 93.5841 28.2876 93.5841 28.9551H93.9841C93.9841 28.2554 93.9001 27.5907 93.7311 26.9618L93.3448 27.0656ZM93.5841 28.9551C93.5841 30.015 93.4617 30.8163 93.2302 31.3735L93.5996 31.5269C93.8604 30.8992 93.9841 30.0371 93.9841 28.9551H93.5841ZM93.2299 31.3742C92.9986 31.9373 92.6773 32.407 92.2673 32.7869L92.5391 33.0803C92.995 32.6581 93.3482 32.1388 93.5999 31.5262L93.2299 31.3742ZM92.2681 32.7861C91.8556 33.1639 91.4186 33.4105 90.9572 33.5333L91.0601 33.9198C91.5922 33.7783 92.085 33.4962 92.5383 33.0811L92.2681 32.7861ZM90.9568 33.5334C90.2903 33.7123 89.6929 33.8 89.163 33.8V34.2C89.7359 34.2 90.369 34.1054 91.0605 33.9197L90.9568 33.5334ZM89.163 33.8H84.5624V34.2H89.163V33.8ZM84.7624 34V23.9785H84.3624V34H84.7624ZM87.4591 26.248V31.7236H87.8591V26.248H87.4591ZM87.6591 31.9236H88.4179V31.5236H87.6591V31.9236ZM88.4179 31.9236C89.0691 31.9236 89.5714 31.8543 89.8905 31.6894L89.7069 31.334C89.4791 31.4517 89.0608 31.5236 88.4179 31.5236V31.9236ZM89.8928 31.6882C90.2152 31.5163 90.4563 31.2259 90.6246 30.8397L90.2579 30.6798C90.1164 31.0046 89.9291 31.2155 89.7046 31.3352L89.8928 31.6882ZM90.625 30.8388C90.797 30.4392 90.8737 29.8234 90.8737 29.0166H90.4737C90.4737 29.814 90.3955 30.3603 90.2576 30.6807L90.625 30.8388ZM90.8737 29.0166C90.8737 27.9485 90.7027 27.1546 90.304 26.7035L90.0043 26.9684C90.2983 27.3011 90.4737 27.961 90.4737 29.0166H90.8737ZM90.304 26.7035C89.9033 26.2501 89.2604 26.048 88.4315 26.048V26.448C89.2068 26.448 89.7123 26.6379 90.0043 26.9684L90.304 26.7035ZM88.4315 26.048H87.6591V26.448H88.4315V26.048ZM94.4209 23.9785V23.7785H94.2209V23.9785H94.4209ZM97.5244 23.9785H97.7244V23.7785H97.5244V23.9785ZM97.5244 34V34.2H97.7244V34H97.5244ZM94.4209 34H94.2209V34.2H94.4209V34ZM94.4209 24.1785H97.5244V23.7785H94.4209V24.1785ZM97.3244 23.9785V34H97.7244V23.9785H97.3244ZM97.5244 33.8H94.4209V34.2H97.5244V33.8ZM94.6209 34V23.9785H94.2209V34H94.6209ZM97.6212 23.9785V23.7785H97.2464L97.4551 24.0899L97.6212 23.9785ZM101.06 23.9785L101.231 23.8759L101.173 23.7785H101.06V23.9785ZM103.083 27.3623L102.911 27.4649L103.083 27.752L103.255 27.4649L103.083 27.3623ZM105.107 23.9785V23.7785H104.993L104.935 23.8759L105.107 23.9785ZM108.525 23.9785L108.691 24.0897L108.899 23.7785H108.525V23.9785ZM104.628 29.8027L104.462 29.6915L104.428 29.742V29.8027H104.628ZM104.628 34V34.2H104.828V34H104.628ZM101.525 34H101.325V34.2H101.525V34ZM101.525 29.8027H101.725V29.7419L101.691 29.6914L101.525 29.8027ZM97.6212 24.1785H101.06V23.7785H97.6212V24.1785ZM100.888 24.0812L102.911 27.4649L103.255 27.2597L101.231 23.8759L100.888 24.0812ZM103.255 27.4649L105.278 24.0812L104.935 23.8759L102.911 27.2597L103.255 27.4649ZM105.107 24.1785H108.525V23.7785H105.107V24.1785ZM108.358 23.8673L104.462 29.6915L104.794 29.9139L108.691 24.0897L108.358 23.8673ZM104.428 29.8027V34H104.828V29.8027H104.428ZM104.628 33.8H101.525V34.2H104.628V33.8ZM101.725 34V29.8027H101.325V34H101.725ZM101.691 29.6914L97.7874 23.8672L97.4551 24.0899L101.358 29.9141L101.691 29.6914Z" fill="black"/>
<defs>
<linearGradient id="paint0_linear" x1="95" y1="0" x2="95" y2="44" gradientUnits="userSpaceOnUse">
<stop stop-color="#00569C"/>
<stop offset="1" stop-color="#00248D"/>
</linearGradient>
</defs>
</svg>
