<svg width="368" height="125" viewBox="0 0 368 125" fill="none" xmlns="http://www.w3.org/2000/svg">
<g clip-path="url(#clip0)">
<rect x="169.5" y="0.5" width="198" height="124" rx="2.5" fill="white" stroke="#E1E1E1"/>
<line x1="172" y1="32.5" x2="362" y2="32.5" stroke="#F0F0F0"/>
<line x1="172" y1="65.5" x2="362" y2="65.5" stroke="#F0F0F0"/>
<line x1="172" y1="96.5" x2="362" y2="96.5" stroke="#F0F0F0"/>
<path d="M172 118.499C172.843 117.15 173.894 114.948 175.556 116.61C177.307 118.362 179.053 120.378 180.5 122.388C180.998 123.079 181.708 120.499 183 120.499C185.36 120.499 188.396 121.135 190.111 119.61C190.188 119.542 191.306 120.09 191.722 119.971C192.323 119.8 193.175 118.224 193.75 117.777C194.853 116.919 197.838 117.499 199.25 117.499C200.251 117.499 200.497 116.458 201.611 116.499C202.468 116.531 204.665 117.631 204.972 116.249C205.186 115.286 205.597 115.549 206.5 115.499C207.674 115.434 208.282 113.49 209 112.721C210.015 111.634 210.072 110.03 211 108.999C212.119 107.755 213.412 106.779 214.5 105.499C215.197 104.68 214.725 98.8395 216 100.61C217.26 102.361 219.961 107.298 222.5 106.999C223.213 106.915 224.909 103.399 225.194 102.805C225.908 101.322 226.232 99.6333 227.5 98.4991C230.518 95.7989 234.9 101.151 236.722 102.721C237.313 103.231 239.498 105.723 240.5 104.777C241.688 103.655 242.537 101.738 243.222 100.305C244.576 97.4736 247.326 98.4991 250.222 98.4991C253.262 98.4991 256.149 99.498 259.278 98.6936C262.026 97.9869 263.057 96.0103 264.889 94.1102C265.882 93.0808 266.328 92.7181 267.111 93.9991C267.742 95.0315 269.673 96.3996 270.722 96.9991C271.949 97.7004 272.289 95.5651 273 94.4991C274.758 91.8619 279.088 93.8444 281.722 94.6102C282.571 94.857 288.488 97.0738 289 95.6658C289.724 93.6748 290.301 91.6277 291.111 89.6658C291.49 88.7467 292.044 85.2949 293.25 85.0269C295.183 84.5974 298.223 87.512 299.722 88.4714C303.18 90.6841 301.034 85.4991 304.75 85.4991C307.654 85.4991 309.513 84.3781 312.167 86.1936C313.613 87.1828 313.5 86.4703 313.5 85.1102C313.5 82.9242 313.817 81.1674 315.222 79.3602C316.82 77.3058 319.633 77.9991 322 77.9991C324.723 77.9991 327.274 76.6426 330 76.4991C332.597 76.3624 336.748 72.0784 338.667 70.5269C341.433 68.2903 343.721 66.0278 344.889 62.6102C345.692 60.2615 346.123 57.3204 347.75 55.3325C348.698 54.1739 350.938 53.3951 352.111 52.0547C355.811 47.8268 356.5 44.3765 356.5 39.2214C356.5 34.7904 356.15 29.9664 358 25.8047C359.404 22.6455 358.174 18.4714 359.25 15.0269C360.321 11.5997 361.45 10.0764 362 6.5" stroke="url(#paint0_linear)" stroke-width="3" stroke-linecap="round" stroke-linejoin="round"/>
<path d="M184.626 22C186.731 22 188.037 20.9062 188.037 19.1768C188.037 17.9053 187.087 16.9209 185.781 16.8252V16.7021C186.793 16.5518 187.565 15.6426 187.565 14.5967C187.565 13.0723 186.424 12.1357 184.51 12.1357H180.196V22H184.626ZM182.261 13.7148H183.983C184.968 13.7148 185.535 14.1865 185.535 14.9727C185.535 15.7656 184.927 16.2236 183.812 16.2236H182.261V13.7148ZM182.261 20.4209V17.6182H184.052C185.269 17.6182 185.932 18.0967 185.932 18.999C185.932 19.9219 185.289 20.4209 184.1 20.4209H182.261ZM189.773 22H191.763V11.582H189.773V22ZM200.656 14.46H198.667V18.8076C198.667 19.8125 198.134 20.4346 197.143 20.4346C196.227 20.4346 195.755 19.9014 195.755 18.8623V14.46H193.766V19.375C193.766 21.125 194.777 22.1641 196.404 22.1641C197.546 22.1641 198.25 21.665 198.605 20.79H198.729V22H200.656V14.46ZM205.913 15.8203C206.843 15.8203 207.444 16.4424 207.485 17.4404H204.272C204.341 16.4629 204.99 15.8203 205.913 15.8203ZM207.526 19.8535C207.314 20.3525 206.774 20.6328 205.988 20.6328C204.949 20.6328 204.293 19.9355 204.266 18.8145V18.7119H209.44V18.1035C209.44 15.7109 208.128 14.2959 205.906 14.2959C203.664 14.2959 202.283 15.8135 202.283 18.2676C202.283 20.7148 203.637 22.1641 205.934 22.1641C207.779 22.1641 209.085 21.2686 209.379 19.8535H207.526ZM221.335 20.2021H216.946V12.1357H214.882V22H221.335V20.2021ZM223.023 22H225.013V14.46H223.023V22ZM224.021 13.332C224.644 13.332 225.149 12.8262 225.149 12.1904C225.149 11.5547 224.644 11.0557 224.021 11.0557C223.406 11.0557 222.894 11.5547 222.894 12.1904C222.894 12.8262 223.406 13.332 224.021 13.332ZM230.379 20.3184C229.299 20.3184 228.684 19.4912 228.684 18.1582C228.684 16.8389 229.306 16.0049 230.379 16.0049C231.452 16.0049 232.102 16.8389 232.102 18.165C232.102 19.4912 231.459 20.3184 230.379 20.3184ZM230.352 24.8574C232.628 24.8574 234.07 23.7432 234.07 21.9727V14.46H232.143V15.6699H232.02C231.616 14.8428 230.748 14.3369 229.729 14.3369C227.815 14.3369 226.64 15.8271 226.64 18.165C226.64 20.4346 227.809 21.8906 229.688 21.8906C230.748 21.8906 231.541 21.4668 231.958 20.6738H232.081V22.0684C232.081 22.916 231.459 23.4082 230.393 23.4082C229.531 23.4082 228.971 23.1143 228.868 22.6494H226.899C227.022 23.9756 228.349 24.8574 230.352 24.8574ZM236.135 22H238.124V17.6729C238.124 16.6953 238.698 16.0322 239.696 16.0322C240.599 16.0322 241.084 16.5723 241.084 17.6182V22H243.073V17.1465C243.073 15.335 242.109 14.3164 240.489 14.3164C239.382 14.3164 238.562 14.8359 238.213 15.6973H238.09V11.582H236.135V22ZM245.575 12.6689V14.5352H244.399V16.1006H245.575V19.9629C245.575 21.4326 246.3 22.0273 248.132 22.0273C248.515 22.0273 248.884 21.9863 249.13 21.9385V20.4209C248.938 20.4414 248.802 20.4482 248.542 20.4482C247.865 20.4482 247.564 20.1475 247.564 19.4912V16.1006H249.13V14.5352H247.564V12.6689H245.575ZM263.267 17.9736V16.7158H259.124V18.2676H261.264L261.257 18.4453C261.216 19.6348 260.279 20.4346 258.926 20.4346C257.299 20.4346 256.273 19.1494 256.273 17.0371C256.273 14.9658 257.251 13.7012 258.844 13.7012C259.992 13.7012 260.819 14.2822 261.127 15.2803H263.178C262.891 13.2295 261.175 11.8828 258.844 11.8828C255.973 11.8828 254.161 13.8789 254.161 17.0576C254.161 20.2842 255.959 22.2529 258.892 22.2529C261.585 22.2529 263.267 20.6123 263.267 17.9736ZM265.119 22H267.108V11.582H265.119V22ZM271.9 20.6191C271.21 20.6191 270.725 20.2773 270.725 19.7168C270.725 19.1768 271.142 18.8691 271.996 18.8076L273.521 18.7119V19.2656C273.521 20.0312 272.823 20.6191 271.9 20.6191ZM271.244 22.1162C272.222 22.1162 273.042 21.7061 273.432 21.0156H273.555V22H275.482V16.8525C275.482 15.2393 274.354 14.2959 272.358 14.2959C270.465 14.2959 269.187 15.1709 269.057 16.5654H270.889C271.053 16.1143 271.531 15.8682 272.249 15.8682C273.069 15.8682 273.521 16.2236 273.521 16.8525V17.4678L271.695 17.5771C269.822 17.6865 268.776 18.4795 268.776 19.8467C268.776 21.2275 269.795 22.1162 271.244 22.1162ZM277.267 16.6748C277.267 17.8369 277.978 18.5342 279.44 18.8555L280.808 19.1631C281.471 19.3066 281.758 19.5322 281.758 19.9014C281.758 20.3867 281.225 20.708 280.452 20.708C279.659 20.708 279.174 20.4141 279.023 19.9014H277.082C277.219 21.3506 278.422 22.1641 280.411 22.1641C282.387 22.1641 283.733 21.1797 283.733 19.6758C283.733 18.5479 283.077 17.9326 281.614 17.6113L280.199 17.3037C279.502 17.1465 279.181 16.9209 279.181 16.5518C279.181 16.0732 279.707 15.752 280.418 15.752C281.156 15.752 281.614 16.0527 281.717 16.5381H283.556C283.446 15.0957 282.318 14.2959 280.404 14.2959C278.524 14.2959 277.267 15.2461 277.267 16.6748ZM285.06 16.6748C285.06 17.8369 285.771 18.5342 287.233 18.8555L288.601 19.1631C289.264 19.3066 289.551 19.5322 289.551 19.9014C289.551 20.3867 289.018 20.708 288.245 20.708C287.452 20.708 286.967 20.4141 286.816 19.9014H284.875C285.012 21.3506 286.215 22.1641 288.204 22.1641C290.18 22.1641 291.526 21.1797 291.526 19.6758C291.526 18.5479 290.87 17.9326 289.407 17.6113L287.992 17.3037C287.295 17.1465 286.974 16.9209 286.974 16.5518C286.974 16.0732 287.5 15.752 288.211 15.752C288.949 15.752 289.407 16.0527 289.51 16.5381H291.349C291.239 15.0957 290.111 14.2959 288.197 14.2959C286.317 14.2959 285.06 15.2461 285.06 16.6748ZM296.421 15.8203C297.351 15.8203 297.952 16.4424 297.993 17.4404H294.78C294.849 16.4629 295.498 15.8203 296.421 15.8203ZM298.034 19.8535C297.822 20.3525 297.282 20.6328 296.496 20.6328C295.457 20.6328 294.801 19.9355 294.773 18.8145V18.7119H299.948V18.1035C299.948 15.7109 298.636 14.2959 296.414 14.2959C294.172 14.2959 292.791 15.8135 292.791 18.2676C292.791 20.7148 294.145 22.1641 296.441 22.1641C298.287 22.1641 299.593 21.2686 299.887 19.8535H298.034ZM301.411 16.6748C301.411 17.8369 302.122 18.5342 303.585 18.8555L304.952 19.1631C305.615 19.3066 305.902 19.5322 305.902 19.9014C305.902 20.3867 305.369 20.708 304.597 20.708C303.804 20.708 303.318 20.4141 303.168 19.9014H301.227C301.363 21.3506 302.566 22.1641 304.556 22.1641C306.531 22.1641 307.878 21.1797 307.878 19.6758C307.878 18.5479 307.222 17.9326 305.759 17.6113L304.344 17.3037C303.646 17.1465 303.325 16.9209 303.325 16.5518C303.325 16.0732 303.852 15.752 304.562 15.752C305.301 15.752 305.759 16.0527 305.861 16.5381H307.7C307.591 15.0957 306.463 14.2959 304.549 14.2959C302.669 14.2959 301.411 15.2461 301.411 16.6748Z" fill="#212B36"/>
<path d="M179.973 38H180.98V31.6836H179.973V38ZM180.477 30.4648C180.863 30.4648 181.18 30.1484 181.18 29.7617C181.18 29.375 180.863 29.0586 180.477 29.0586C180.09 29.0586 179.773 29.375 179.773 29.7617C179.773 30.1484 180.09 30.4648 180.477 30.4648ZM182.902 38H183.91V34.2617C183.91 33.1543 184.561 32.4805 185.568 32.4805C186.576 32.4805 187.057 33.0195 187.057 34.1562V38H188.064V33.9102C188.064 32.4102 187.273 31.5723 185.855 31.5723C184.889 31.5723 184.273 31.9824 183.957 32.6797H183.863V31.6836H182.902V38ZM190.332 30.0488V31.6836H189.312V32.5273H190.332V36.3594C190.332 37.5664 190.854 38.0469 192.154 38.0469C192.354 38.0469 192.547 38.0234 192.746 37.9883V37.1387C192.559 37.1562 192.459 37.1621 192.277 37.1621C191.621 37.1621 191.34 36.8457 191.34 36.1016V32.5273H192.746V31.6836H191.34V30.0488H190.332ZM196.695 32.4629C197.697 32.4629 198.365 33.2012 198.389 34.3203H194.908C194.984 33.2012 195.688 32.4629 196.695 32.4629ZM198.359 36.3652C198.096 36.9219 197.545 37.2207 196.73 37.2207C195.658 37.2207 194.961 36.4297 194.908 35.1816V35.1348H199.449V34.748C199.449 32.7852 198.412 31.5723 196.707 31.5723C194.973 31.5723 193.859 32.8613 193.859 34.8477C193.859 36.8457 194.955 38.1113 196.707 38.1113C198.09 38.1113 199.074 37.4434 199.367 36.3652H198.359ZM201.031 38H202.039V34.0859C202.039 33.1953 202.736 32.5508 203.697 32.5508C203.896 32.5508 204.26 32.5859 204.342 32.6094V31.6016C204.213 31.584 204.002 31.5723 203.838 31.5723C203 31.5723 202.273 32.0059 202.086 32.6211H201.992V31.6836H201.031V38ZM207.945 32.4629C208.947 32.4629 209.615 33.2012 209.639 34.3203H206.158C206.234 33.2012 206.938 32.4629 207.945 32.4629ZM209.609 36.3652C209.346 36.9219 208.795 37.2207 207.98 37.2207C206.908 37.2207 206.211 36.4297 206.158 35.1816V35.1348H210.699V34.748C210.699 32.7852 209.662 31.5723 207.957 31.5723C206.223 31.5723 205.109 32.8613 205.109 34.8477C205.109 36.8457 206.205 38.1113 207.957 38.1113C209.34 38.1113 210.324 37.4434 210.617 36.3652H209.609ZM212.135 33.4121C212.135 34.3262 212.674 34.8359 213.857 35.123L214.941 35.3867C215.615 35.5508 215.943 35.8438 215.943 36.2773C215.943 36.8574 215.334 37.2617 214.484 37.2617C213.676 37.2617 213.172 36.9219 213.002 36.3887H211.965C212.076 37.4375 213.043 38.1113 214.449 38.1113C215.885 38.1113 216.98 37.332 216.98 36.2012C216.98 35.293 216.406 34.7773 215.217 34.4902L214.244 34.2559C213.5 34.0742 213.148 33.8047 213.148 33.3711C213.148 32.8086 213.734 32.4277 214.484 32.4277C215.246 32.4277 215.738 32.7617 215.873 33.2656H216.869C216.734 32.2285 215.814 31.5723 214.49 31.5723C213.148 31.5723 212.135 32.3633 212.135 33.4121ZM218.926 30.0488V31.6836H217.906V32.5273H218.926V36.3594C218.926 37.5664 219.447 38.0469 220.748 38.0469C220.947 38.0469 221.141 38.0234 221.34 37.9883V37.1387C221.152 37.1562 221.053 37.1621 220.871 37.1621C220.215 37.1621 219.934 36.8457 219.934 36.1016V32.5273H221.34V31.6836H219.934V30.0488H218.926ZM228.846 38.1113C230.645 38.1113 231.758 36.8691 231.758 34.8418C231.758 32.8086 230.645 31.5723 228.846 31.5723C227.047 31.5723 225.934 32.8086 225.934 34.8418C225.934 36.8691 227.047 38.1113 228.846 38.1113ZM228.846 37.2031C227.65 37.2031 226.977 36.3359 226.977 34.8418C226.977 33.3418 227.65 32.4805 228.846 32.4805C230.041 32.4805 230.715 33.3418 230.715 34.8418C230.715 36.3359 230.041 37.2031 228.846 37.2031ZM238.262 31.6836H237.184L235.455 36.8867H235.361L233.633 31.6836H232.555L234.893 38H235.924L238.262 31.6836ZM241.895 32.4629C242.896 32.4629 243.564 33.2012 243.588 34.3203H240.107C240.184 33.2012 240.887 32.4629 241.895 32.4629ZM243.559 36.3652C243.295 36.9219 242.744 37.2207 241.93 37.2207C240.857 37.2207 240.16 36.4297 240.107 35.1816V35.1348H244.648V34.748C244.648 32.7852 243.611 31.5723 241.906 31.5723C240.172 31.5723 239.059 32.8613 239.059 34.8477C239.059 36.8457 240.154 38.1113 241.906 38.1113C243.289 38.1113 244.273 37.4434 244.566 36.3652H243.559ZM246.23 38H247.238V34.0859C247.238 33.1953 247.936 32.5508 248.896 32.5508C249.096 32.5508 249.459 32.5859 249.541 32.6094V31.6016C249.412 31.584 249.201 31.5723 249.037 31.5723C248.199 31.5723 247.473 32.0059 247.285 32.6211H247.191V31.6836H246.23V38ZM254.609 30.0488V31.6836H253.59V32.5273H254.609V36.3594C254.609 37.5664 255.131 38.0469 256.432 38.0469C256.631 38.0469 256.824 38.0234 257.023 37.9883V37.1387C256.836 37.1562 256.736 37.1621 256.555 37.1621C255.898 37.1621 255.617 36.8457 255.617 36.1016V32.5273H257.023V31.6836H255.617V30.0488H254.609ZM258.57 38H259.578V31.6836H258.57V38ZM259.074 30.4648C259.461 30.4648 259.777 30.1484 259.777 29.7617C259.777 29.375 259.461 29.0586 259.074 29.0586C258.688 29.0586 258.371 29.375 258.371 29.7617C258.371 30.1484 258.688 30.4648 259.074 30.4648ZM261.5 38H262.508V34.0859C262.508 33.1953 263.146 32.4805 263.973 32.4805C264.77 32.4805 265.291 32.9609 265.291 33.7109V38H266.299V33.9395C266.299 33.1367 266.885 32.4805 267.764 32.4805C268.654 32.4805 269.094 32.9375 269.094 33.8691V38H270.102V33.6348C270.102 32.3105 269.381 31.5723 268.092 31.5723C267.219 31.5723 266.498 32.0117 266.158 32.6797H266.064C265.771 32.0234 265.174 31.5723 264.318 31.5723C263.475 31.5723 262.842 31.9766 262.555 32.6797H262.461V31.6836H261.5V38ZM274.461 32.4629C275.463 32.4629 276.131 33.2012 276.154 34.3203H272.674C272.75 33.2012 273.453 32.4629 274.461 32.4629ZM276.125 36.3652C275.861 36.9219 275.311 37.2207 274.496 37.2207C273.424 37.2207 272.727 36.4297 272.674 35.1816V35.1348H277.215V34.748C277.215 32.7852 276.178 31.5723 274.473 31.5723C272.738 31.5723 271.625 32.8613 271.625 34.8477C271.625 36.8457 272.721 38.1113 274.473 38.1113C275.855 38.1113 276.84 37.4434 277.133 36.3652H276.125Z" fill="#212B36"/>
<path d="M27.4686 61.968V75H31.4766V61.968H35.7486V58.464H23.1966V61.968H27.4686ZM51.1362 75V69.48H51.4962L55.0482 75H59.7042L55.6722 69.288C58.3602 68.616 59.6322 66.336 59.6322 63.984C59.6322 61.224 57.8562 58.464 53.9682 58.464H47.1282V75H51.1362ZM53.7762 61.968C55.0962 61.968 55.5762 63 55.5762 63.984C55.5762 64.968 55.0962 66.024 53.7762 66.024H51.1362V61.968H53.7762ZM82.3506 75V71.496H75.4146V68.568H81.3186V65.136H75.4146V61.968H82.1346V58.464H71.4066V75H82.3506ZM102.8 58.464V67.368L97.8559 58.464H94.2319V75H98.2399V65.976L103.304 75H106.808V58.464H102.8ZM123.41 62.04H125.93C128.258 62.04 129.434 64.32 129.434 66.768C129.434 69.192 128.258 71.424 125.93 71.424H123.41V62.04ZM119.378 75H125.93C130.706 75 133.442 71.448 133.442 66.768C133.442 62.064 130.706 58.464 125.93 58.464H119.378V75ZM36.9515 103H41.1995L35.1275 86.464H30.7595L24.6635 103H28.9595L30.3515 99.208H35.5595L36.9515 103ZM32.9195 90.304L34.5275 95.752H31.4315L32.9195 90.304ZM61.6713 103V99.496H55.7193V86.464H51.6633V103H61.6713ZM83.9092 103V99.496H76.9732V96.568H82.8772V93.136H76.9732V89.968H83.6932V86.464H72.9652V103H83.9092ZM99.7985 103V97.48H100.158L103.71 103H108.366L104.334 97.288C107.022 96.616 108.294 94.336 108.294 91.984C108.294 89.224 106.518 86.464 102.63 86.464H95.7905V103H99.7985ZM102.438 89.968C103.758 89.968 104.238 91 104.238 91.984C104.238 92.968 103.758 94.024 102.438 94.024H99.7985V89.968H102.438ZM123.141 89.968V103H127.149V89.968H131.421V86.464H118.869V89.968H123.141Z" fill="#FF013D"/>
<path d="M66.5641 20.726C67.6001 20.726 68.0481 21.608 68.0481 22.42C68.0481 23.246 67.5861 24.1 66.5081 24.1H64.2121V20.726H66.5641ZM62.7141 29H64.2121V25.458H66.5921C68.6781 25.458 69.5321 23.96 69.5321 22.42C69.5321 20.88 68.6781 19.354 66.5921 19.354H62.7141V29ZM73.7019 27.74C72.6239 27.74 71.7279 26.942 71.7279 25.71C71.7279 24.506 72.6239 23.736 73.7019 23.736C74.7939 23.736 75.6899 24.506 75.6899 25.71C75.6899 26.942 74.7939 27.74 73.7019 27.74ZM73.7019 29.14C75.5639 29.14 77.1319 27.782 77.1319 25.71C77.1319 23.638 75.5639 22.322 73.7019 22.322C71.8539 22.322 70.2999 23.638 70.2999 25.71C70.2999 27.782 71.8539 29.14 73.7019 29.14ZM78.7316 29H80.1736V18.906H78.7316V29ZM87.2866 29H88.7146V22.462H87.2866V23.386C86.8386 22.644 85.8726 22.322 85.0886 22.322C83.3246 22.322 81.7706 23.638 81.7706 25.724C81.7706 27.81 83.3246 29.14 85.0886 29.14C85.9006 29.14 86.8526 28.776 87.2866 28.062V29ZM83.2546 25.71C83.2546 24.506 84.1646 23.722 85.2566 23.722C86.2366 23.722 87.2726 24.422 87.2726 25.71C87.2726 26.998 86.3206 27.74 85.2566 27.74C84.1646 27.74 83.2546 26.914 83.2546 25.71ZM92.1775 26.648C92.1775 24.912 92.6955 23.68 93.9275 23.68C94.2075 23.68 94.5295 23.722 94.8935 23.904L95.1315 22.574C94.9215 22.434 94.4315 22.322 93.9695 22.322C93.1575 22.322 92.5135 22.798 92.1775 23.96V22.462H90.7355V29H92.1775V26.648ZM20.3663 39.71C20.3663 38.422 21.3883 37.722 22.3683 37.722C23.4603 37.722 24.3423 38.506 24.3423 39.71C24.3423 40.914 23.4603 41.74 22.3683 41.74C21.3043 41.74 20.3663 40.984 20.3663 39.71ZM20.3523 43V42.048C20.7583 42.748 21.6543 43.14 22.5363 43.14C24.3003 43.14 25.8123 41.796 25.8123 39.738C25.8123 37.638 24.3283 36.322 22.5503 36.322C21.6263 36.322 20.7583 36.686 20.3523 37.4V32.906H18.9103V43H20.3523ZM33.1992 36.462H31.6592L29.8252 40.942L28.0052 36.462H26.4652L29.0552 42.692L27.6412 46.192H29.1532L33.1992 36.462ZM44.7121 40.452C44.1101 41.222 43.1721 41.712 42.1081 41.712C40.1901 41.712 38.7201 40.144 38.7201 38.198C38.7201 36.252 40.1901 34.67 42.1081 34.67C43.1581 34.67 44.0541 35.16 44.6841 35.874L45.8321 34.978C44.9781 33.914 43.6481 33.242 42.1081 33.242C39.3781 33.242 37.2361 35.454 37.2361 38.198C37.2361 40.928 39.3781 43.14 42.1081 43.14C43.6761 43.14 45.0201 42.454 45.8601 41.362L44.7121 40.452ZM50.1384 41.74C49.0604 41.74 48.1644 40.942 48.1644 39.71C48.1644 38.506 49.0604 37.736 50.1384 37.736C51.2304 37.736 52.1264 38.506 52.1264 39.71C52.1264 40.942 51.2304 41.74 50.1384 41.74ZM50.1384 43.14C52.0004 43.14 53.5684 41.782 53.5684 39.71C53.5684 37.638 52.0004 36.322 50.1384 36.322C48.2904 36.322 46.7364 37.638 46.7364 39.71C46.7364 41.782 48.2904 43.14 50.1384 43.14ZM56.6102 39.486C56.6102 38.198 57.4362 37.736 58.2902 37.736C59.1302 37.736 59.6622 38.324 59.6622 39.36V43H61.1042V39.192C61.1042 37.344 60.1942 36.322 58.6122 36.322C57.8842 36.322 56.9882 36.686 56.6102 37.442V36.462H55.1682V43H56.6102V39.486ZM64.8651 43H66.1951L68.9251 36.462H67.3851L65.5371 41.166L63.6611 36.462H62.1351L64.8651 43ZM76.1908 39.71C76.1908 37.638 74.7768 36.322 72.9148 36.322C71.0528 36.322 69.5548 37.638 69.5548 39.71C69.5548 41.782 71.0528 43.14 72.9148 43.14C74.1468 43.14 75.3648 42.608 75.9388 41.46C75.5608 41.292 75.1268 41.11 74.7628 40.942C74.4268 41.544 73.7128 41.88 72.9848 41.88C71.9348 41.88 71.1228 41.25 70.9828 40.242H76.1768C76.1908 40.102 76.1908 39.864 76.1908 39.71ZM70.9828 39.192C71.1228 38.184 71.9068 37.582 72.9148 37.582C73.8948 37.582 74.6368 38.17 74.7768 39.192H70.9828ZM79.1551 40.648C79.1551 38.912 79.6731 37.68 80.9051 37.68C81.1851 37.68 81.5071 37.722 81.8711 37.904L82.1091 36.574C81.8991 36.434 81.4091 36.322 80.9471 36.322C80.1351 36.322 79.4911 36.798 79.1551 37.96V36.462H77.7131V43H79.1551V40.648ZM84.8309 40.172L85.7129 40.382C86.1889 40.494 86.6229 40.732 86.6229 41.152C86.6229 41.642 86.1189 41.936 85.4609 41.936C84.7049 41.936 84.2429 41.558 84.1729 40.998H82.8429C82.8709 42.37 84.1309 43.14 85.3489 43.14C86.8469 43.14 87.9529 42.426 87.9529 41.166C87.9529 40.508 87.6589 39.612 86.2449 39.262L85.2369 39.01C84.8869 38.912 84.5229 38.758 84.4389 38.506C84.3689 38.31 84.3829 38.1 84.4949 37.918C84.6349 37.694 85.0549 37.554 85.4189 37.554C85.8669 37.554 86.3149 37.764 86.3709 38.254H87.7429C87.6589 36.854 86.5249 36.322 85.3629 36.322C84.1589 36.322 83.1089 37.078 83.0249 38.044C82.9409 39.094 83.4449 39.794 84.8309 40.172ZM90.9536 43H89.5256V36.462H90.9536V43ZM89.2736 33.816C89.2736 34.334 89.7216 34.726 90.2396 34.726C90.7716 34.726 91.1916 34.334 91.1916 33.816C91.1916 33.298 90.7716 32.906 90.2396 32.906C89.7216 32.906 89.2736 33.298 89.2736 33.816ZM95.9529 41.74C94.8749 41.74 93.9789 40.942 93.9789 39.71C93.9789 38.506 94.8749 37.736 95.9529 37.736C97.0449 37.736 97.9409 38.506 97.9409 39.71C97.9409 40.942 97.0449 41.74 95.9529 41.74ZM95.9529 43.14C97.8149 43.14 99.3829 41.782 99.3829 39.71C99.3829 37.638 97.8149 36.322 95.9529 36.322C94.1049 36.322 92.5509 37.638 92.5509 39.71C92.5509 41.782 94.1049 43.14 95.9529 43.14ZM102.425 39.486C102.425 38.198 103.251 37.736 104.105 37.736C104.945 37.736 105.477 38.324 105.477 39.36V43H106.919V39.192C106.919 37.344 106.009 36.322 104.427 36.322C103.699 36.322 102.803 36.686 102.425 37.442V36.462H100.983V43H102.425V39.486ZM119.048 35.902C119.048 34.334 118.012 33.354 116.374 33.354H112.678V43H116.668C118.488 43 119.566 41.698 119.566 40.172C119.566 39.248 118.936 38.114 117.802 37.862C118.74 37.498 119.048 36.658 119.048 35.902ZM114.176 37.316V34.712H116.22C117.018 34.712 117.508 35.174 117.508 35.958C117.508 36.686 117.102 37.316 116.318 37.316H114.176ZM116.556 38.59C117.48 38.59 118.012 39.444 118.012 40.158C118.012 40.9 117.494 41.642 116.598 41.642H114.176V38.59H116.556ZM127.447 39.71C127.447 37.638 126.033 36.322 124.171 36.322C122.309 36.322 120.811 37.638 120.811 39.71C120.811 41.782 122.309 43.14 124.171 43.14C125.403 43.14 126.621 42.608 127.195 41.46C126.817 41.292 126.383 41.11 126.019 40.942C125.683 41.544 124.969 41.88 124.241 41.88C123.191 41.88 122.379 41.25 122.239 40.242H127.433C127.447 40.102 127.447 39.864 127.447 39.71ZM122.239 39.192C122.379 38.184 123.163 37.582 124.171 37.582C125.151 37.582 125.893 38.17 126.033 39.192H122.239ZM134.065 43H135.493V36.462H134.065V37.386C133.617 36.644 132.651 36.322 131.867 36.322C130.103 36.322 128.549 37.638 128.549 39.724C128.549 41.81 130.103 43.14 131.867 43.14C132.679 43.14 133.631 42.776 134.065 42.062V43ZM130.033 39.71C130.033 38.506 130.943 37.722 132.035 37.722C133.015 37.722 134.051 38.422 134.051 39.71C134.051 40.998 133.099 41.74 132.035 41.74C130.943 41.74 130.033 40.914 130.033 39.71ZM138.956 40.648C138.956 38.912 139.474 37.68 140.706 37.68C140.986 37.68 141.308 37.722 141.672 37.904L141.91 36.574C141.7 36.434 141.21 36.322 140.748 36.322C139.936 36.322 139.292 36.798 138.956 37.96V36.462H137.514V43H138.956V40.648Z" fill="#FF013D"/>
<path d="M162.203 16.8278C162.852 17.1847 162.901 18.0986 162.294 18.5233L156.206 22.785C155.137 23.5336 154.5 24.7567 154.5 26.062L154.5 122C154.5 123.105 153.605 124 152.5 124L3 124C1.89543 124 1 123.105 1 122L1.00001 2.99999C1.00001 1.89542 1.89544 0.999986 3.00001 0.999986L152.5 0.999999C153.605 0.999999 154.5 1.89543 154.5 3L154.5 10.2262C154.5 11.685 155.294 13.028 156.572 13.7311L162.203 16.8278Z" stroke="#FF013D" stroke-width="2"/>
</g>
<defs>
<linearGradient id="paint0_linear" x1="359.5" y1="15.5" x2="172" y2="123" gradientUnits="userSpaceOnUse">
<stop stop-color="#FF013D"/>
<stop offset="1" stop-color="#FF013D" stop-opacity="0"/>
</linearGradient>
<clipPath id="clip0">
<rect width="368" height="125" fill="white"/>
</clipPath>
</defs>
</svg>
