<svg width="85" height="85" viewBox="0 0 85 85" fill="none" xmlns="http://www.w3.org/2000/svg">
<path d="M18.4897 28.795L22.607 23.8743L24.2957 31.5826L18.4915 31.5864L18.4897 28.795Z" fill="#FFDE01"/>
<path d="M22.4817 23.8366L83.9534 23.7965L78.6681 43.7466C76.3458 52.5124 68.4163 58.6188 59.3481 58.6247L30.67 58.6435L22.4817 23.8366Z" fill="url(#paint0_linear)"/>
<g opacity="0.9">
<g clip-path="url(#clip0)">
<path d="M56.0174 38.7292L50.0053 34.5192L49.8751 34.4691L49.8565 34.462C49.5962 34.3618 49.3226 34.4404 49.1913 34.6647C49.0111 34.9728 48.7199 35.1636 48.31 35.263C47.9076 35.3606 47.5048 35.3301 47.0956 35.1726C46.6866 35.0152 46.365 34.7692 46.1249 34.422C45.8851 34.0748 45.8049 33.7376 45.8722 33.3871C45.9214 33.1301 45.7655 32.8873 45.5146 32.7907L45.4773 32.7764L45.3472 32.7263L38.0639 31.8186C37.7673 31.7816 37.4996 31.9973 37.469 32.2826L37.0559 36.1291C37.03 36.3709 37.1853 36.5969 37.4364 36.6935L39.891 37.6383L36.874 45.4766C36.7681 45.7517 36.9092 46.0506 37.1974 46.1616L47.0435 49.9515C47.3317 50.0624 47.6555 49.9424 47.7614 49.6673L50.7784 41.8291L53.233 42.7739C53.4655 42.8633 53.7368 42.7916 53.8752 42.6031L56.1663 39.4795C56.336 39.248 56.2781 38.9117 56.0174 38.7292ZM53.2124 41.6346L50.6277 40.6397C50.3581 40.536 50.031 40.6649 49.925 40.94L46.9114 48.7694L38.088 45.3731L41.1016 37.5438C41.2075 37.2686 41.0698 36.9608 40.7816 36.8498L38.2155 35.8621L38.505 32.9464L44.757 33.7324C44.7942 34.2462 44.9829 34.7265 45.3326 35.177C45.6823 35.6275 46.1424 35.9575 46.7095 36.1758C47.2674 36.3905 47.8207 36.4507 48.3822 36.3508C48.9437 36.2511 49.415 36.0248 49.787 35.6685L54.9524 39.2773L53.2124 41.6346Z" fill="white"/>
</g>
</g>
<path d="M77.2184 31.5413L83.9727 23.7539L75.1008 57.6244L67.8722 65.5903L77.2184 31.5413Z" fill="#FFDE01"/>
<path d="M25.3088 20.9329L25.3107 23.8666L22.4824 23.8684L22.4807 21.33C22.4799 20.068 21.4562 19.0456 20.1941 19.0464L10.1863 19.0529C9.40323 19.0534 8.76804 18.4191 8.76753 17.636C8.76702 16.853 9.40139 16.2178 10.1844 16.2173L20.5803 16.2105C23.1901 16.2088 25.3071 18.3231 25.3088 20.9329Z" fill="#F69C40"/>
<path d="M18.5472 28.6467L18.5491 31.5804L15.7208 31.5823L15.7191 29.0439C15.7183 27.7818 14.6946 26.7594 13.4325 26.7602L3.42468 26.7667C2.64164 26.7672 2.00644 26.1329 2.00593 25.3498C2.00542 24.5668 2.63979 23.9316 3.42283 23.9311L13.8187 23.9243C16.4285 23.9226 18.5455 26.0369 18.5472 28.6467Z" fill="#F69C40"/>
<circle cx="10.9507" cy="17.8118" r="1.32921" transform="rotate(-0.0373652 10.9507 17.8118)" fill="#FFDE01"/>
<path d="M3.33416 24.0196L9.97565 17.0147L11.9262 18.6085L6.52426 24.0175L3.33416 24.0196Z" fill="#FFDE01"/>
<path d="M33.7361 59.5817L33.7328 54.6054L30.6665 54.6074C30.6713 61.9537 36.6306 67.9053 43.977 67.9005L69.9905 67.8835C70.9088 67.8829 71.6528 67.138 71.6522 66.2197C71.6516 65.3014 70.9066 64.5575 69.9884 64.5581L38.7393 64.5784C35.9779 64.5802 33.7379 62.3431 33.7361 59.5817Z" fill="#F69D40"/>
<ellipse cx="62.8595" cy="71.8036" rx="5.0418" ry="4.98817" transform="rotate(-0.0373652 62.8595 71.8036)" fill="#F69D40"/>
<ellipse cx="38.8302" cy="71.8191" rx="5.0418" ry="4.98817" transform="rotate(-0.0373652 38.8302 71.8191)" fill="#F69D40"/>
<path d="M26.0735 70.5296L26.0672 60.9228L22.8173 60.9249L22.8252 73.0674C22.8259 74.1719 23.7219 75.0668 24.8265 75.0661L64.4914 75.0402C65.4678 75.0396 66.2587 74.2476 66.2581 73.2712C66.2574 72.2949 65.4654 71.504 64.4891 71.5046L27.0742 71.529C26.5219 71.5294 26.0739 71.0819 26.0735 70.5296Z" fill="url(#paint1_linear)"/>
<circle cx="56.9777" cy="79.1388" r="5.31685" transform="rotate(-0.0373652 56.9777 79.1388)" fill="#FFDE01"/>
<circle cx="46.4985" cy="57.9828" r="5.31685" transform="rotate(-0.0373652 46.4985 57.9828)" fill="#FECF30"/>
<circle cx="31.4552" cy="79.1552" r="5.31685" transform="rotate(-0.0373652 31.4552 79.1552)" fill="#FFDE01"/>
<rect x="43.2898" y="0.404541" width="37.7705" height="37.7705" rx="2" transform="rotate(30 43.2898 0.404541)" fill="#EB4DBA"/>
<path d="M56.7921 19.4115L56.783 19.4027L55.6896 19.5243L55.6117 19.4617C55.6117 19.4617 55.6117 19.4617 55.6117 19.4617C55.345 19.7933 54.9735 19.9735 54.4682 20.0252C53.9742 20.0757 53.5057 19.9721 53.0525 19.7119C52.5993 19.4518 52.2702 19.1007 52.0572 18.6409C51.8448 18.1819 51.8213 17.7703 51.9678 17.3684L51.9678 17.3684C52.101 17.003 51.936 16.6206 51.6095 16.4332L51.5667 16.4086L51.4171 16.3227L51.4061 16.3164L51.3938 16.313L42.6205 13.897C42.6205 13.897 42.6205 13.897 42.6205 13.897C42.2075 13.7832 41.7792 14.0428 41.6673 14.4477C41.6673 14.4477 41.6673 14.4477 41.6673 14.4477L40.3464 19.2246L40.3463 19.2246C40.2497 19.5744 40.4191 19.9304 40.7422 20.1159L43.4773 21.6858L38.1579 30.9532C37.9415 31.3302 38.0699 31.7925 38.4483 32.0097L49.7675 38.5068C50.1419 38.7216 50.629 38.6179 50.8476 38.237L56.167 28.9695L58.9021 30.5394C59.207 30.7144 59.6061 30.6671 59.8496 30.4197L59.8496 30.4197L63.3295 26.8821C63.6272 26.5794 63.6242 26.0818 63.3033 25.7686L56.7921 19.4115ZM61.6648 26.3464L59.1502 28.8879L56.2455 27.2207C55.8885 27.0157 55.3971 27.1365 55.1807 27.5135L49.8674 36.7703L39.8973 31.0476L45.2106 21.7908C45.4258 21.4159 45.3069 20.942 44.9264 20.7236L42.0431 19.0687L42.9692 15.6154L50.3217 17.649C50.2757 18.2946 50.4137 18.9248 50.7434 19.5433C51.0883 20.1903 51.599 20.6998 52.2658 21.0825C52.9225 21.4595 53.6093 21.6371 54.3415 21.6086C55.0409 21.5813 55.6648 21.3888 56.2004 21.0232L61.6648 26.3464Z" fill="white" stroke="white" stroke-width="0.2"/>
<path d="M15.7205 31.5568L77.1922 31.5167L68.3618 64.8482C68.1296 65.7247 67.3366 66.3354 66.4298 66.336L23.9087 66.3637L15.7205 31.5568Z" fill="url(#paint2_linear)"/>
<defs>
<linearGradient id="paint0_linear" x1="22.4776" y1="28.7924" x2="50.662" y2="36.5721" gradientUnits="userSpaceOnUse">
<stop stop-color="#FFDE01"/>
<stop offset="1" stop-color="#F69C40"/>
</linearGradient>
<linearGradient id="paint1_linear" x1="25.5398" y1="65.2747" x2="25.5462" y2="75.0656" gradientUnits="userSpaceOnUse">
<stop stop-color="#F8AA3B"/>
<stop offset="1" stop-color="#FFDE01"/>
</linearGradient>
<linearGradient id="paint2_linear" x1="15.183" y1="31.5572" x2="64.1603" y2="66.3374" gradientUnits="userSpaceOnUse">
<stop stop-color="#F59841"/>
<stop offset="1" stop-color="#FFDE01"/>
</linearGradient>
<clipPath id="clip0">
<rect x="38.9845" y="28.2975" width="20.069" height="19.1609" transform="rotate(21.0524 38.9845 28.2975)" fill="white"/>
</clipPath>
</defs>
</svg>
