<svg width="28" height="28" viewBox="0 0 28 28" fill="none" xmlns="http://www.w3.org/2000/svg">
<path d="M14 28C21.732 28 28 21.732 28 14C28 6.26801 21.732 0 14 0C6.26801 0 0 6.26801 0 14C0 21.732 6.26801 28 14 28Z" fill="#5C6AC4" fill-opacity="0.3"/>
<path fill-rule="evenodd" clip-rule="evenodd" d="M14 6.80005C17.9768 6.80005 21.2 10.0232 21.2 14C21.2 15.4152 20.7856 16.7304 20.0816 17.8432L21.2 21.2L17.8432 20.0816C16.7304 20.7856 15.4152 21.2 14 21.2C10.0232 21.2 6.79995 17.9768 6.79995 14C6.79995 10.0232 10.0232 6.80005 14 6.80005Z" fill="white"/>
<mask id="mask0" mask-type="alpha" maskUnits="userSpaceOnUse" x="6" y="6" width="16" height="16">
<path d="M14 6C18.4112 6 22 9.5888 22 14C22 15.3824 21.64 16.736 20.9568 17.9392L21.9592 20.9472C22.0544 21.2344 21.98 21.5512 21.7656 21.7656C21.6136 21.9176 21.4088 22 21.2 22C21.1152 22 21.0304 21.9864 20.9472 21.9584L17.9392 20.956C16.7352 21.6408 15.3816 22 14 22C9.5888 22 6 18.4112 6 14C6 9.5888 9.5888 6 14 6ZM14 20.4C15.2064 20.4 16.388 20.056 17.4152 19.4056C17.5448 19.3232 17.6936 19.2816 17.8432 19.2816C17.9288 19.2816 18.0136 19.2944 18.0968 19.3224L19.9352 19.9352L19.3224 18.096C19.2464 17.868 19.2768 17.6176 19.4056 17.4152C20.056 16.3872 20.4 15.2072 20.4 14C20.4 10.4712 17.5288 7.6 14 7.6C10.4712 7.6 7.6 10.4712 7.6 14C7.6 17.5288 10.4712 20.4 14 20.4ZM14 13.2C14.4416 13.2 14.8 13.5576 14.8 14C14.8 14.4424 14.4416 14.8 14 14.8C13.5584 14.8 13.2 14.4424 13.2 14C13.2 13.5576 13.5584 13.2 14 13.2ZM17.2 13.2C17.6416 13.2 18 13.5576 18 14C18 14.4424 17.6416 14.8 17.2 14.8C16.7584 14.8 16.4 14.4424 16.4 14C16.4 13.5576 16.7584 13.2 17.2 13.2ZM10.8 13.2C11.2416 13.2 11.6 13.5576 11.6 14C11.6 14.4424 11.2416 14.8 10.8 14.8C10.3584 14.8 10 14.4424 10 14C10 13.5576 10.3584 13.2 10.8 13.2Z" fill="white"/>
</mask>
<g mask="url(#mask0)">
<path d="M14 6C18.4112 6 22 9.5888 22 14C22 15.3824 21.64 16.736 20.9568 17.9392L21.9592 20.9472C22.0544 21.2344 21.98 21.5512 21.7656 21.7656C21.6136 21.9176 21.4088 22 21.2 22C21.1152 22 21.0304 21.9864 20.9472 21.9584L17.9392 20.956C16.7352 21.6408 15.3816 22 14 22C9.5888 22 6 18.4112 6 14C6 9.5888 9.5888 6 14 6ZM14 20.4C15.2064 20.4 16.388 20.056 17.4152 19.4056C17.5448 19.3232 17.6936 19.2816 17.8432 19.2816C17.9288 19.2816 18.0136 19.2944 18.0968 19.3224L19.9352 19.9352L19.3224 18.096C19.2464 17.868 19.2768 17.6176 19.4056 17.4152C20.056 16.3872 20.4 15.2072 20.4 14C20.4 10.4712 17.5288 7.6 14 7.6C10.4712 7.6 7.6 10.4712 7.6 14C7.6 17.5288 10.4712 20.4 14 20.4ZM14 13.2C14.4416 13.2 14.8 13.5576 14.8 14C14.8 14.4424 14.4416 14.8 14 14.8C13.5584 14.8 13.2 14.4424 13.2 14C13.2 13.5576 13.5584 13.2 14 13.2ZM17.2 13.2C17.6416 13.2 18 13.5576 18 14C18 14.4424 17.6416 14.8 17.2 14.8C16.7584 14.8 16.4 14.4424 16.4 14C16.4 13.5576 16.7584 13.2 17.2 13.2ZM10.8 13.2C11.2416 13.2 11.6 13.5576 11.6 14C11.6 14.4424 11.2416 14.8 10.8 14.8C10.3584 14.8 10 14.4424 10 14C10 13.5576 10.3584 13.2 10.8 13.2Z" fill="#919EAB"/>
<path d="M5.2 6H22V22.8H5.2V6Z" fill="#5C6AC4"/>
</g>
</svg>
