<svg width="158" height="158" viewBox="0 0 158 158" fill="none" xmlns="http://www.w3.org/2000/svg">
<circle cx="79" cy="79" r="79" fill="url(#paint0_linear)"/>
<path d="M80.2122 67.6871C66.9435 54.4202 52.3944 47.458 47.7141 52.1366C47.2006 52.6745 46.8227 53.3269 46.6117 54.0402L46.5363 53.9648L42.0667 72.2818L37.6158 90.544L32.3398 112.168L29 125.863L48.7738 118.381L73.9245 108.864L93.9893 101.272L93.9653 101.248C94.637 101.034 95.2515 100.671 95.7627 100.185C100.443 95.505 93.4808 80.9558 80.2122 67.6871Z" fill="#4D1084"/>
<path d="M80.2123 67.6798C66.9442 54.4116 52.3946 47.4492 47.715 52.1289C43.0353 56.8085 49.9977 71.3581 63.2659 84.6262C76.5341 97.8944 91.0836 104.857 95.7633 100.177C100.443 95.4975 93.4805 80.948 80.2123 67.6798Z" fill="white"/>
<path d="M92.1678 101.866C89.7721 101.908 87.3951 101.436 85.1971 100.482L68.7974 106.688L43.6382 116.196L30.1469 121.3L29 126.003L48.7738 118.52L73.9245 109.004L92.339 102.037L92.1678 101.866Z" fill="#8100FF"/>
<path d="M112.88 88.3425C112.675 88.3419 112.472 88.3053 112.28 88.2347C103.589 84.9789 94.195 84.0661 85.0404 85.5881L78.9256 86.6067C77.9896 86.7402 77.1226 86.0897 76.989 85.1537C76.86 84.2495 77.4636 83.4031 78.3607 83.2309L84.4772 82.2038C94.2249 80.5841 104.227 81.5554 113.481 85.0198C114.371 85.3395 114.833 86.32 114.513 87.2097C114.266 87.897 113.611 88.3519 112.88 88.3425Z" fill="#FFD000"/>
<path d="M82.0671 78.0692C81.1217 78.0636 80.3597 77.2926 80.3653 76.3473C80.3691 75.6946 80.7436 75.101 81.331 74.8166L117.28 57.698C118.134 57.2914 119.155 57.6539 119.562 58.5077C119.969 59.3615 119.606 60.383 118.752 60.7896L82.8032 77.9083C82.5729 78.0159 82.3215 78.0709 82.0671 78.0692Z" fill="#FFD000"/>
<path d="M62.0496 74.6441C61.8238 74.6445 61.6002 74.5998 61.3922 74.5123C60.5196 74.1483 60.1073 73.146 60.4713 72.2734V72.2732L62.9603 66.3005C66.79 57.1495 67.6829 47.0349 65.5161 37.3545C65.294 36.4355 65.8591 35.5106 66.778 35.2885C67.697 35.0664 68.6219 35.6315 68.844 36.5504C68.8489 36.5707 68.8534 36.591 68.8577 36.6116C71.179 46.9814 70.2218 57.8163 66.1187 67.6186L63.6279 73.5913C63.3622 74.2283 62.7399 74.6435 62.0496 74.6441Z" fill="#FFD000"/>
<path d="M121.44 95.1893C123.331 95.1893 124.864 93.6564 124.864 91.7655C124.864 89.8747 123.331 88.3418 121.44 88.3418C119.549 88.3418 118.017 89.8747 118.017 91.7655C118.017 93.6564 119.549 95.1893 121.44 95.1893Z" fill="white"/>
<path d="M80.3563 47.2537C82.2472 47.2537 83.7801 45.7209 83.7801 43.83C83.7801 41.9391 82.2472 40.4062 80.3563 40.4062C78.4655 40.4062 76.9326 41.9391 76.9326 43.83C76.9326 45.7209 78.4655 47.2537 80.3563 47.2537Z" fill="#8100FF"/>
<path d="M64.9491 31.8475C63.0582 31.8475 61.5254 30.3147 61.5254 28.4237C61.5254 26.5328 63.0582 25 64.9491 25C66.8401 25 68.3729 26.5328 68.3729 28.4237C68.3729 30.3147 66.8401 31.8475 64.9491 31.8475Z" fill="#8100FF"/>
<path d="M112.881 38.6961C111.935 38.6961 111.169 37.9297 111.169 36.9843V35.2724C111.169 34.327 111.935 33.5605 112.881 33.5605C113.826 33.5605 114.593 34.327 114.593 35.2724V36.9843C114.593 37.9297 113.826 38.6961 112.881 38.6961Z" fill="#8100FF"/>
<path d="M112.881 30.1356C111.935 30.1356 111.169 29.3691 111.169 28.4237V26.7119C111.169 25.7665 111.935 25 112.881 25C113.826 25 114.593 25.7665 114.593 26.7119V28.4237C114.593 29.3691 113.826 30.1356 112.881 30.1356Z" fill="#8100FF"/>
<path d="M118.016 33.5585H116.304C115.358 33.5585 114.592 32.792 114.592 31.8466C114.592 30.9013 115.358 30.1348 116.304 30.1348H118.016C118.961 30.1348 119.727 30.9013 119.727 31.8466C119.727 32.792 118.961 33.5585 118.016 33.5585Z" fill="#8100FF"/>
<path d="M109.457 33.5585H107.745C106.8 33.5585 106.033 32.792 106.033 31.8466C106.033 30.9013 106.8 30.1348 107.745 30.1348H109.457C110.402 30.1348 111.169 30.9013 111.169 31.8466C111.169 32.792 110.403 33.5585 109.457 33.5585Z" fill="#8100FF"/>
<path d="M42.5892 74.6453C42.3975 73.9127 42.2263 73.1731 42.0671 72.4199L37.6162 90.6821L37.9586 94.8573C38.7047 103.759 42.5286 112.122 48.7724 118.51L73.9249 109.002C73.7879 108.96 73.6458 108.929 73.5089 108.883C58.2572 103.164 46.7293 90.399 42.5892 74.6453Z" fill="#6800C6"/>
<path d="M73.9246 109.002C73.7877 108.959 73.6456 108.928 73.5087 108.882C71.861 108.258 70.2471 107.548 68.6744 106.754L46.0195 115.325C46.8785 116.439 47.7979 117.505 48.7739 118.518L73.9246 109.002Z" fill="#9825FF"/>
<path d="M100.899 45.5059V54.1011H92.3037V45.5059H100.899Z" fill="white"/>
<path d="M70.0845 76.3568C69.1391 76.3565 68.3728 75.5898 68.373 74.6445C68.3733 74.1596 68.5789 73.6976 68.9392 73.373L86.0579 57.9662C86.7728 57.3476 87.8539 57.4257 88.4725 58.1406C89.074 58.8356 89.0192 59.8815 88.3484 60.51L71.2297 75.9168C70.9156 76.1999 70.5075 76.3565 70.0845 76.3568Z" fill="#FFD000"/>
<path d="M119.728 69.5067C118.783 69.5067 118.017 68.7402 118.017 67.7948V66.083C118.017 65.1376 118.783 64.3711 119.728 64.3711C120.674 64.3711 121.44 65.1376 121.44 66.083V67.7948C121.44 68.7402 120.674 69.5067 119.728 69.5067Z" fill="#8100FF"/>
<path d="M125.782 67.0016C125.328 67.0029 124.892 66.8223 124.572 66.5L123.361 65.2897C122.705 64.6097 122.723 63.5259 123.403 62.8692C124.067 62.2285 125.118 62.2285 125.782 62.8692L126.992 64.0795C127.661 64.7482 127.661 65.832 126.992 66.5005C126.671 66.8212 126.236 67.0016 125.782 67.0016Z" fill="#8100FF"/>
<path d="M128.288 60.9491H126.576C125.631 60.9491 124.864 60.1826 124.864 59.2373C124.864 58.2919 125.631 57.5254 126.576 57.5254H128.288C129.233 57.5254 130 58.2919 130 59.2373C130 60.1826 129.234 60.9491 128.288 60.9491Z" fill="#8100FF"/>
<path d="M124.573 56.1072C123.627 56.107 122.861 55.3405 122.861 54.3949C122.861 53.9411 123.042 53.5058 123.362 53.1851L124.573 51.9748C125.253 51.3179 126.336 51.3367 126.993 52.0167C127.634 52.6801 127.634 53.7318 126.993 54.3954L125.783 55.6057C125.462 55.9266 125.027 56.1072 124.573 56.1072Z" fill="#8100FF"/>
<path d="M119.728 54.1004C118.783 54.1004 118.017 53.334 118.017 52.3886V50.6767C118.017 49.7313 118.783 48.9648 119.728 48.9648C120.674 48.9648 121.44 49.7313 121.44 50.6767V52.3886C121.44 53.334 120.674 54.1004 119.728 54.1004Z" fill="#8100FF"/>
<path d="M114.886 56.1071C114.431 56.1071 113.996 55.9265 113.675 55.6055L112.465 54.3952C111.808 53.7152 111.827 52.6314 112.507 51.9746C113.17 51.334 114.222 51.334 114.886 51.9746L116.096 53.1849C116.764 53.8536 116.764 54.9374 116.095 55.6059C115.775 55.9267 115.339 56.1071 114.886 56.1071Z" fill="#8100FF"/>
<path d="M37.5593 26.7109L40.2042 32.0708L46.1187 32.9301L41.839 37.102L42.849 42.9925L37.5593 40.2107L32.2697 42.9925L33.2797 37.102L29 32.9301L34.9145 32.0708L37.5593 26.7109Z" fill="white"/>
<path d="M129.459 117.725C128.645 114.84 126.77 112.369 124.21 110.808L123.505 109.75C119.55 103.836 113.332 99.8147 106.316 98.6346C105.38 98.501 104.513 99.1515 104.38 100.088C104.251 100.992 104.854 101.838 105.751 102.01C110.812 102.869 115.423 105.44 118.815 109.293C115.963 109.806 113.469 111.518 111.967 113.995C110.123 117.297 111.306 121.468 114.608 123.312C117.91 125.156 122.081 123.973 123.924 120.671C124.629 119.312 125.009 117.808 125.035 116.277C126.857 118.923 127.003 122.377 125.41 125.167C124.928 125.98 125.196 127.03 126.009 127.512C126.822 127.995 127.873 127.727 128.355 126.914C128.37 126.887 128.385 126.861 128.399 126.834C129.955 124.061 130.336 120.781 129.459 117.725ZM120.939 119.001C120.025 120.656 117.943 121.258 116.287 120.344C114.632 119.43 114.03 117.347 114.944 115.692C114.949 115.683 114.954 115.673 114.959 115.664C115.97 114.01 117.674 112.901 119.595 112.648C119.893 112.64 120.187 112.708 120.451 112.846C121.896 113.653 121.973 117.148 120.939 119.001Z" fill="#8100FF"/>
<defs>
<linearGradient id="paint0_linear" x1="79" y1="0" x2="79" y2="158" gradientUnits="userSpaceOnUse">
<stop stop-color="#ED01F0"/>
<stop offset="1" stop-color="#FF018A"/>
</linearGradient>
</defs>
</svg>
