<svg width="158" height="158" viewBox="0 0 158 158" fill="none" xmlns="http://www.w3.org/2000/svg">
<g clip-path="url(#clip0)">
<path d="M0 79C0 122.63 35.3695 158 79 158C122.63 158 158 122.63 158 79C158 35.3695 122.63 0 79 0C35.3695 0 0 35.3695 0 79Z" fill="url(#paint0_linear)"/>
<path d="M9.35439 110.213L73.6218 76.7432L148.814 110.213L120.112 137.847L104.796 153.97L103.466 154.361C95.2589 156.775 86.7485 158 78.194 158H76.4738C68.5436 158 60.6724 156.637 53.2042 153.97L42.3216 146.715L35.4695 133.817L9.35439 110.213Z" fill="url(#paint1_linear)"/>
<path d="M78.8513 133.457C78.196 133.457 77.5406 133.262 76.9768 132.871L31.1221 101.099C30.2337 100.484 29.7035 99.4711 29.7035 98.3896V59.5576C29.7035 59.2035 29.7606 58.8515 29.8726 58.5155L32.7563 49.8574L30.6662 47.7659C25.4933 42.5886 25.4933 34.1648 30.6662 28.9877C30.6715 28.9824 30.6769 28.9771 30.6823 28.9717C35.8307 23.8319 44.218 23.765 49.4324 28.9842L50.9425 30.4954C52.5428 29.2946 62.9131 20.96 78.8496 20.96C94.7887 20.96 105.161 29.2939 106.761 30.4948L108.27 28.9837C113.412 23.8377 121.799 23.7593 127.02 28.9714C127.025 28.9767 127.031 28.982 127.037 28.9875C132.209 34.1648 132.209 42.5885 127.037 47.7654L124.946 49.8572L127.83 58.5153C127.942 58.8513 127.999 59.2033 127.999 59.5575V98.3896C127.999 99.4711 127.469 100.484 126.58 101.099L80.7257 132.871C80.162 133.262 79.5066 133.457 78.8513 133.457Z" fill="url(#paint2_linear)"/>
<path d="M78.8152 105.529C65.912 105.529 54.1015 96.0286 54.1015 82.5525V73.9283C54.1015 68.3244 56.3015 63.0557 60.2963 59.0928L71.4223 48.0554C75.4986 44.0114 82.1317 44.0116 86.2083 48.0551L97.3343 59.0928C101.329 63.0557 103.529 68.3244 103.529 73.9283V82.5525C103.529 96.0026 91.7344 105.529 78.8152 105.529Z" fill="url(#paint3_linear)"/>
<path d="M78.817 91.2148C72.362 91.2148 67.1104 86.5451 67.1104 80.8053C67.1104 75.0653 72.3618 70.3955 78.817 70.3955C85.2722 70.3955 90.5234 75.0653 90.5234 80.8053C90.5234 86.5451 85.272 91.2148 78.817 91.2148Z" fill="#212B36"/>
<path d="M78.8143 99.291C78.8143 99.291 71.3402 101.869 64.3327 99.5782C64.5206 109.145 70.9299 117.535 78.8143 117.535C86.7001 117.535 93.1094 109.145 93.2974 99.5782C86.2884 101.869 78.8143 99.291 78.8143 99.291Z" fill="#ED435C"/>
<path d="M70.5556 107.812C73.7673 108.043 76.6392 107.438 77.9937 107.084C78.5323 106.943 79.0961 106.943 79.6347 107.084C80.9892 107.438 83.8612 108.043 87.0728 107.812C88.6231 107.7 89.893 108.703 90.2689 110.023C92.1025 107.055 93.219 103.41 93.2974 99.5727C86.2884 101.822 78.8143 99.291 78.8143 99.291C78.8143 99.291 71.3402 101.822 64.3327 99.5727C64.4094 103.412 65.5275 107.055 67.3596 110.023C67.7354 108.703 69.0054 107.7 70.5556 107.812Z" fill="url(#paint4_linear)"/>
<path d="M54.1563 52.5715C56.2422 52.5715 57.9333 50.8798 57.9333 48.7931C57.9333 46.7063 56.2422 45.0146 54.1563 45.0146C52.0703 45.0146 50.3793 46.7063 50.3793 48.7931C50.3793 50.8798 52.0703 52.5715 54.1563 52.5715Z" fill="#212B36"/>
<path d="M103.432 52.5715C105.518 52.5715 107.209 50.8798 107.209 48.7931C107.209 46.7063 105.518 45.0146 103.432 45.0146C101.346 45.0146 99.6546 46.7063 99.6546 48.7931C99.6546 50.8798 101.346 52.5715 103.432 52.5715Z" fill="#212B36"/>
<path fill-rule="evenodd" clip-rule="evenodd" d="M73.8679 129.581L58.3333 124.285C56.8254 123.771 55.259 124.892 55.259 126.486V141.373C55.259 142.966 56.8254 144.087 58.3333 143.573L74.0347 138.22C75.1727 139.374 76.7539 140.089 78.5023 140.089C80.3836 140.089 82.0715 139.26 83.2218 137.949L99.7172 143.573C101.225 144.087 102.791 142.966 102.791 141.373V126.486C102.791 124.892 101.225 123.771 99.7172 124.285L83.3742 129.857C82.2235 128.442 80.4685 127.538 78.5023 127.538C76.6669 127.538 75.0155 128.326 73.8679 129.581Z" fill="url(#paint5_radial)"/>
<path d="M104.393 153.969L128.011 100.219L151.254 110.446C145.165 125.36 134.437 137.917 120.656 146.26L116.082 149.029L104.393 153.969Z" fill="url(#paint6_linear)"/>
<path d="M53.3103 153.71L29.692 99.96L6.44881 110.187C12.5378 125.101 23.2666 137.659 37.0472 146.001L41.6215 148.77L53.3103 153.71Z" fill="url(#paint7_linear)"/>
<path d="M37.5941 56.708H66.1013V67.9381C66.1013 73.1862 61.847 77.4405 56.5989 77.4405C46.1029 77.4405 37.5941 68.9317 37.5941 58.4357V56.708Z" fill="url(#paint8_linear)"/>
<path d="M92.0186 56.708H120.526V58.4357C120.526 68.9317 112.017 77.4405 101.521 77.4405C96.2731 77.4405 92.0186 73.1862 92.0186 67.9381V56.708Z" fill="url(#paint9_linear)"/>
<path d="M94.6087 51.5254H63.5099V54.117H94.6087V51.5254Z" fill="#F201A7"/>
<path d="M66.1016 54.1201H63.5099V56.7117H66.1016V54.1201Z" fill="#F201A7"/>
<path d="M94.6102 54.1201H92.0186V56.7117H94.6102V54.1201Z" fill="#F201A7"/>
</g>
<defs>
<linearGradient id="paint0_linear" x1="79" y1="0" x2="79" y2="158" gradientUnits="userSpaceOnUse">
<stop stop-color="#212C38"/>
<stop offset="1" stop-color="#0054B1"/>
</linearGradient>
<linearGradient id="paint1_linear" x1="79.084" y1="154.492" x2="79.084" y2="127.53" gradientUnits="userSpaceOnUse">
<stop/>
<stop offset="1" stop-color="#001C64"/>
</linearGradient>
<linearGradient id="paint2_linear" x1="78.896" y1="20.96" x2="78.896" y2="73.2498" gradientUnits="userSpaceOnUse">
<stop stop-color="#F9FAFB"/>
<stop offset="1" stop-color="white"/>
</linearGradient>
<linearGradient id="paint3_linear" x1="78.8287" y1="53.7353" x2="78.8287" y2="109.54" gradientUnits="userSpaceOnUse">
<stop stop-color="#C4CDD5"/>
<stop offset="1" stop-color="#F9FAFB"/>
</linearGradient>
<linearGradient id="paint4_linear" x1="78.8151" y1="99.291" x2="78.8597" y2="104.657" gradientUnits="userSpaceOnUse">
<stop stop-color="#DA2F3C"/>
<stop offset="1" stop-color="#ED435C"/>
</linearGradient>
<radialGradient id="paint5_radial" cx="0" cy="0" r="1" gradientUnits="userSpaceOnUse" gradientTransform="translate(79.0252 133.921) scale(23.7662 57.8129)">
<stop stop-color="#FFE600"/>
<stop offset="0.5625" stop-color="#FFB904"/>
<stop offset="1" stop-color="#FFD600"/>
</radialGradient>
<linearGradient id="paint6_linear" x1="129.871" y1="100.219" x2="129.871" y2="149.029" gradientUnits="userSpaceOnUse">
<stop stop-color="#FF009D"/>
<stop offset="1" stop-color="#57007E"/>
</linearGradient>
<linearGradient id="paint7_linear" x1="27.8326" y1="99.96" x2="27.8326" y2="148.77" gradientUnits="userSpaceOnUse">
<stop stop-color="#FF009D"/>
<stop offset="1" stop-color="#57007E"/>
</linearGradient>
<linearGradient id="paint8_linear" x1="51.8478" y1="56.708" x2="51.8478" y2="77.4405" gradientUnits="userSpaceOnUse">
<stop stop-color="#F900A6"/>
<stop offset="1" stop-color="#0400B5"/>
</linearGradient>
<linearGradient id="paint9_linear" x1="106.272" y1="56.708" x2="106.272" y2="77.4405" gradientUnits="userSpaceOnUse">
<stop stop-color="#F900A6"/>
<stop offset="1" stop-color="#0400B5"/>
</linearGradient>
<clipPath id="clip0">
<rect width="158" height="158" fill="white"/>
</clipPath>
</defs>
</svg>
