<svg width="190" height="44" viewBox="0 0 190 44" fill="none" xmlns="http://www.w3.org/2000/svg">
<rect width="190" height="44" rx="3" fill="black"/>
<rect x="10" y="10" width="170" height="24" rx="2" fill="url(#paint0_linear)"/>
<path d="M71.0124 17.324V26H69.3924V22.208H65.3184V26H63.6984V17.324H65.3184V21.056H69.3924V17.324H71.0124ZM75.247 19.748C75.703 19.748 76.117 19.822 76.489 19.97C76.865 20.118 77.185 20.328 77.449 20.6C77.717 20.872 77.923 21.204 78.067 21.596C78.211 21.988 78.283 22.426 78.283 22.91C78.283 23.398 78.211 23.838 78.067 24.23C77.923 24.622 77.717 24.956 77.449 25.232C77.185 25.508 76.865 25.72 76.489 25.868C76.117 26.016 75.703 26.09 75.247 26.09C74.787 26.09 74.369 26.016 73.993 25.868C73.617 25.72 73.295 25.508 73.027 25.232C72.763 24.956 72.557 24.622 72.409 24.23C72.265 23.838 72.193 23.398 72.193 22.91C72.193 22.426 72.265 21.988 72.409 21.596C72.557 21.204 72.763 20.872 73.027 20.6C73.295 20.328 73.617 20.118 73.993 19.97C74.369 19.822 74.787 19.748 75.247 19.748ZM75.247 24.95C75.759 24.95 76.137 24.778 76.381 24.434C76.629 24.09 76.753 23.586 76.753 22.922C76.753 22.258 76.629 21.752 76.381 21.404C76.137 21.056 75.759 20.882 75.247 20.882C74.727 20.882 74.341 21.058 74.089 21.41C73.841 21.758 73.717 22.262 73.717 22.922C73.717 23.582 73.841 24.086 74.089 24.434C74.341 24.778 74.727 24.95 75.247 24.95ZM80.7996 20.6C80.9236 20.476 81.0536 20.362 81.1896 20.258C81.3296 20.15 81.4756 20.06 81.6276 19.988C81.7836 19.912 81.9496 19.854 82.1256 19.814C82.3016 19.77 82.4936 19.748 82.7016 19.748C83.0376 19.748 83.3356 19.806 83.5956 19.922C83.8556 20.034 84.0716 20.194 84.2436 20.402C84.4196 20.606 84.5516 20.852 84.6396 21.14C84.7316 21.424 84.7776 21.738 84.7776 22.082V26H83.2956V22.082C83.2956 21.706 83.2096 21.416 83.0376 21.212C82.8656 21.004 82.6036 20.9 82.2516 20.9C81.9956 20.9 81.7556 20.958 81.5316 21.074C81.3076 21.19 81.0956 21.348 80.8956 21.548V26H79.4136V19.844H80.3196C80.5116 19.844 80.6376 19.934 80.6976 20.114L80.7996 20.6ZM90.1531 22.214C90.1531 22.022 90.1251 21.842 90.0691 21.674C90.0171 21.502 89.9371 21.352 89.8291 21.224C89.7211 21.096 89.5831 20.996 89.4151 20.924C89.2511 20.848 89.0591 20.81 88.8391 20.81C88.4111 20.81 88.0731 20.932 87.8251 21.176C87.5811 21.42 87.4251 21.766 87.3571 22.214H90.1531ZM87.3271 23.108C87.3511 23.424 87.4071 23.698 87.4951 23.93C87.5831 24.158 87.6991 24.348 87.8431 24.5C87.9871 24.648 88.1571 24.76 88.3531 24.836C88.5531 24.908 88.7731 24.944 89.0131 24.944C89.2531 24.944 89.4591 24.916 89.6311 24.86C89.8071 24.804 89.9591 24.742 90.0871 24.674C90.2191 24.606 90.3331 24.544 90.4291 24.488C90.5291 24.432 90.6251 24.404 90.7171 24.404C90.8411 24.404 90.9331 24.45 90.9931 24.542L91.4191 25.082C91.2551 25.274 91.0711 25.436 90.8671 25.568C90.6631 25.696 90.4491 25.8 90.2251 25.88C90.0051 25.956 89.7791 26.01 89.5471 26.042C89.3191 26.074 89.0971 26.09 88.8811 26.09C88.4531 26.09 88.0551 26.02 87.6871 25.88C87.3191 25.736 86.9991 25.526 86.7271 25.25C86.4551 24.97 86.2411 24.626 86.0851 24.218C85.9291 23.806 85.8511 23.33 85.8511 22.79C85.8511 22.37 85.9191 21.976 86.0551 21.608C86.1911 21.236 86.3851 20.914 86.6371 20.642C86.8931 20.366 87.2031 20.148 87.5671 19.988C87.9351 19.828 88.3491 19.748 88.8091 19.748C89.1971 19.748 89.5551 19.81 89.8831 19.934C90.2111 20.058 90.4931 20.24 90.7291 20.48C90.9651 20.716 91.1491 21.008 91.2811 21.356C91.4171 21.7 91.4851 22.094 91.4851 22.538C91.4851 22.762 91.4611 22.914 91.4131 22.994C91.3651 23.07 91.2731 23.108 91.1371 23.108H87.3271ZM98.0135 19.844L94.6595 27.692C94.6155 27.796 94.5575 27.874 94.4855 27.926C94.4175 27.982 94.3115 28.01 94.1675 28.01H93.0635L94.2155 25.538L91.7255 19.844H93.0275C93.1435 19.844 93.2335 19.872 93.2975 19.928C93.3655 19.984 93.4155 20.048 93.4475 20.12L94.7555 23.312C94.7995 23.42 94.8355 23.528 94.8635 23.636C94.8955 23.744 94.9255 23.854 94.9535 23.966C94.9895 23.854 95.0255 23.744 95.0615 23.636C95.0975 23.524 95.1375 23.414 95.1815 23.306L96.4175 20.12C96.4495 20.04 96.5015 19.974 96.5735 19.922C96.6495 19.87 96.7335 19.844 96.8255 19.844H98.0135ZM102.972 21.146C102.928 21.202 102.884 21.246 102.84 21.278C102.8 21.31 102.74 21.326 102.66 21.326C102.584 21.326 102.51 21.304 102.438 21.26C102.366 21.212 102.28 21.16 102.18 21.104C102.08 21.044 101.96 20.992 101.82 20.948C101.684 20.9 101.514 20.876 101.31 20.876C101.05 20.876 100.822 20.924 100.626 21.02C100.43 21.112 100.266 21.246 100.134 21.422C100.006 21.598 99.9101 21.812 99.8461 22.064C99.7821 22.312 99.7501 22.594 99.7501 22.91C99.7501 23.238 99.7841 23.53 99.8521 23.786C99.9241 24.042 100.026 24.258 100.158 24.434C100.29 24.606 100.45 24.738 100.638 24.83C100.826 24.918 101.038 24.962 101.274 24.962C101.51 24.962 101.7 24.934 101.844 24.878C101.992 24.818 102.116 24.754 102.216 24.686C102.316 24.614 102.402 24.55 102.474 24.494C102.55 24.434 102.634 24.404 102.726 24.404C102.846 24.404 102.936 24.45 102.996 24.542L103.422 25.082C103.258 25.274 103.08 25.436 102.888 25.568C102.696 25.696 102.496 25.8 102.288 25.88C102.084 25.956 101.872 26.01 101.652 26.042C101.436 26.074 101.22 26.09 101.004 26.09C100.624 26.09 100.266 26.02 99.9301 25.88C99.5941 25.736 99.3001 25.528 99.0481 25.256C98.7961 24.984 98.5961 24.652 98.4481 24.26C98.3041 23.864 98.2321 23.414 98.2321 22.91C98.2321 22.458 98.2961 22.04 98.4241 21.656C98.5561 21.268 98.7481 20.934 99.0001 20.654C99.2521 20.37 99.5641 20.148 99.9361 19.988C100.308 19.828 100.736 19.748 101.22 19.748C101.68 19.748 102.082 19.822 102.426 19.97C102.774 20.118 103.086 20.33 103.362 20.606L102.972 21.146ZM106.97 19.748C107.426 19.748 107.84 19.822 108.212 19.97C108.588 20.118 108.908 20.328 109.172 20.6C109.44 20.872 109.646 21.204 109.79 21.596C109.934 21.988 110.006 22.426 110.006 22.91C110.006 23.398 109.934 23.838 109.79 24.23C109.646 24.622 109.44 24.956 109.172 25.232C108.908 25.508 108.588 25.72 108.212 25.868C107.84 26.016 107.426 26.09 106.97 26.09C106.51 26.09 106.092 26.016 105.716 25.868C105.34 25.72 105.018 25.508 104.75 25.232C104.486 24.956 104.28 24.622 104.132 24.23C103.988 23.838 103.916 23.398 103.916 22.91C103.916 22.426 103.988 21.988 104.132 21.596C104.28 21.204 104.486 20.872 104.75 20.6C105.018 20.328 105.34 20.118 105.716 19.97C106.092 19.822 106.51 19.748 106.97 19.748ZM106.97 24.95C107.482 24.95 107.86 24.778 108.104 24.434C108.352 24.09 108.476 23.586 108.476 22.922C108.476 22.258 108.352 21.752 108.104 21.404C107.86 21.056 107.482 20.882 106.97 20.882C106.45 20.882 106.064 21.058 105.812 21.41C105.564 21.758 105.44 22.262 105.44 22.922C105.44 23.582 105.564 24.086 105.812 24.434C106.064 24.778 106.45 24.95 106.97 24.95ZM111.136 26V19.844H112.042C112.234 19.844 112.36 19.934 112.42 20.114L112.516 20.57C112.624 20.45 112.736 20.34 112.852 20.24C112.972 20.14 113.098 20.054 113.23 19.982C113.366 19.91 113.51 19.854 113.662 19.814C113.818 19.77 113.988 19.748 114.172 19.748C114.56 19.748 114.878 19.854 115.126 20.066C115.378 20.274 115.566 20.552 115.69 20.9C115.786 20.696 115.906 20.522 116.05 20.378C116.194 20.23 116.352 20.11 116.524 20.018C116.696 19.926 116.878 19.858 117.07 19.814C117.266 19.77 117.462 19.748 117.658 19.748C117.998 19.748 118.3 19.8 118.564 19.904C118.828 20.008 119.05 20.16 119.23 20.36C119.41 20.56 119.546 20.804 119.638 21.092C119.734 21.38 119.782 21.71 119.782 22.082V26H118.3V22.082C118.3 21.69 118.214 21.396 118.042 21.2C117.87 21 117.618 20.9 117.286 20.9C117.134 20.9 116.992 20.926 116.86 20.978C116.732 21.03 116.618 21.106 116.518 21.206C116.422 21.302 116.346 21.424 116.29 21.572C116.234 21.72 116.206 21.89 116.206 22.082V26H114.718V22.082C114.718 21.67 114.634 21.37 114.466 21.182C114.302 20.994 114.06 20.9 113.74 20.9C113.524 20.9 113.322 20.954 113.134 21.062C112.95 21.166 112.778 21.31 112.618 21.494V26H111.136ZM122.673 24.404C122.841 24.608 123.023 24.752 123.219 24.836C123.419 24.92 123.629 24.962 123.849 24.962C124.077 24.962 124.281 24.922 124.461 24.842C124.645 24.758 124.801 24.63 124.929 24.458C125.057 24.282 125.155 24.06 125.223 23.792C125.291 23.52 125.325 23.196 125.325 22.82C125.325 22.144 125.213 21.656 124.989 21.356C124.765 21.052 124.443 20.9 124.023 20.9C123.739 20.9 123.491 20.966 123.279 21.098C123.067 21.226 122.865 21.408 122.673 21.644V24.404ZM122.673 20.6C122.921 20.34 123.195 20.134 123.495 19.982C123.799 19.826 124.145 19.748 124.533 19.748C124.889 19.748 125.209 19.818 125.493 19.958C125.781 20.098 126.025 20.3 126.225 20.564C126.429 20.824 126.585 21.14 126.693 21.512C126.801 21.884 126.855 22.302 126.855 22.766C126.855 23.266 126.793 23.72 126.669 24.128C126.545 24.536 126.367 24.886 126.135 25.178C125.907 25.466 125.631 25.69 125.307 25.85C124.983 26.01 124.623 26.09 124.227 26.09C124.035 26.09 123.861 26.07 123.705 26.03C123.549 25.994 123.405 25.942 123.273 25.874C123.141 25.806 123.019 25.724 122.907 25.628C122.799 25.528 122.695 25.418 122.595 25.298L122.529 25.712C122.505 25.816 122.463 25.89 122.403 25.934C122.347 25.978 122.269 26 122.169 26H121.191V17.084H122.673V20.6Z" fill="white"/>
<defs>
<linearGradient id="paint0_linear" x1="10" y1="10" x2="180.839" y2="22.7827" gradientUnits="userSpaceOnUse">
<stop stop-color="#4200FF"/>
<stop offset="1" stop-color="#AD00FF"/>
</linearGradient>
</defs>
</svg>
