<svg width="117" height="113" viewBox="0 0 117 113" fill="none" xmlns="http://www.w3.org/2000/svg">
<g filter="url(#filter0_d)">
<rect x="10" y="9" width="96" height="96" rx="5" fill="url(#paint0_linear)"/>
</g>
<path d="M57.7107 96C57.2738 96 56.837 95.8698 56.4611 95.6093L25.8905 74.4277C25.2981 74.0172 24.9447 73.3421 24.9447 72.6211V46.7325C24.9447 46.4963 24.9827 46.2617 25.0574 46.0377L26.9799 40.2655L25.5865 38.8711C22.1378 35.4195 22.1378 29.8034 25.5865 26.352C25.59 26.3484 25.5937 26.3449 25.5972 26.3413C29.0296 22.9147 34.6213 22.87 38.0976 26.3496L39.1044 27.3571C40.1713 26.5566 47.085 21 57.7096 21C68.3359 21 75.2508 26.5562 76.3175 27.3567L77.3239 26.3493C80.7519 22.9185 86.3435 22.8662 89.8243 26.3411C89.8278 26.3446 89.8315 26.3481 89.835 26.3518C93.2837 29.8034 93.2837 35.4193 89.835 38.8708L88.4416 40.2653L90.3641 46.0375C90.4388 46.2615 90.4768 46.4962 90.4768 46.7323V72.6211C90.4768 73.3421 90.1234 74.0172 89.531 74.4277L58.9604 95.6093C58.5845 95.8698 58.1476 96 57.7107 96Z" fill="url(#paint1_linear)"/>
<path d="M57.6869 77.3814C49.0844 77.3814 41.2106 71.048 41.2106 62.0637V56.314C41.2106 52.578 42.6773 49.0655 45.3406 46.4234L52.758 39.065C55.4757 36.3689 59.8978 36.3691 62.6157 39.0648L70.0331 46.4234C72.6964 49.0655 74.1631 52.578 74.1631 56.314V62.0637C74.1631 71.0307 66.2998 77.3814 57.6869 77.3814Z" fill="url(#paint2_linear)"/>
<path d="M57.6869 67.8389C53.3834 67.8389 49.8823 64.7256 49.8823 60.899C49.8823 57.0722 53.3833 53.959 57.6869 53.959C61.9905 53.959 65.4914 57.0722 65.4914 60.899C65.4914 64.7256 61.9903 67.8389 57.6869 67.8389Z" fill="#212B36"/>
<path d="M57.6864 73.2227C57.6864 73.2227 52.7036 74.9415 48.0318 73.4141C48.1571 79.7924 52.4301 85.3854 57.6864 85.3854C62.9438 85.3854 67.2168 79.7924 67.3421 73.4141C62.6693 74.9415 57.6864 73.2227 57.6864 73.2227Z" fill="#ED435C"/>
<path d="M52.1806 78.9037C54.3217 79.0572 56.2364 78.6542 57.1394 78.4179C57.4985 78.324 57.8743 78.324 58.2335 78.4179C59.1365 78.6542 61.0511 79.0572 63.1923 78.9037C64.2258 78.829 65.0725 79.4976 65.323 80.3772C66.5455 78.3987 67.2899 75.9687 67.3421 73.4105C62.6693 74.9103 57.6864 73.2227 57.6864 73.2227C57.6864 73.2227 52.7036 74.9103 48.0318 73.4105C48.083 75.9698 48.8284 78.3987 50.0498 80.3772C50.3004 79.4976 51.147 78.829 52.1806 78.9037Z" fill="url(#paint3_linear)"/>
<path d="M41.2464 42.0761C42.6371 42.0761 43.7645 40.9483 43.7645 39.5571C43.7645 38.1659 42.6371 37.0381 41.2464 37.0381C39.8557 37.0381 38.7283 38.1659 38.7283 39.5571C38.7283 40.9483 39.8557 42.0761 41.2464 42.0761Z" fill="#212B36"/>
<path d="M74.0976 42.0761C75.4883 42.0761 76.6157 40.9483 76.6157 39.5571C76.6157 38.1659 75.4883 37.0381 74.0976 37.0381C72.7069 37.0381 71.5796 38.1659 71.5796 39.5571C71.5796 40.9483 72.7069 42.0761 74.0976 42.0761Z" fill="#212B36"/>
<defs>
<filter id="filter0_d" x="6" y="9" width="104" height="104" filterUnits="userSpaceOnUse" color-interpolation-filters="sRGB">
<feFlood flood-opacity="0" result="BackgroundImageFix"/>
<feColorMatrix in="SourceAlpha" type="matrix" values="0 0 0 0 0 0 0 0 0 0 0 0 0 0 0 0 0 0 127 0"/>
<feOffset dy="4"/>
<feGaussianBlur stdDeviation="2"/>
<feColorMatrix type="matrix" values="0 0 0 0 0 0 0 0 0 0 0 0 0 0 0 0 0 0 0.12 0"/>
<feBlend mode="normal" in2="BackgroundImageFix" result="effect1_dropShadow"/>
<feBlend mode="normal" in="SourceGraphic" in2="effect1_dropShadow" result="shape"/>
</filter>
<linearGradient id="paint0_linear" x1="58" y1="9" x2="58" y2="105" gradientUnits="userSpaceOnUse">
<stop stop-color="#EB01FC"/>
<stop offset="1" stop-color="#FF018A"/>
</linearGradient>
<linearGradient id="paint1_linear" x1="57.7406" y1="21" x2="57.7107" y2="110.954" gradientUnits="userSpaceOnUse">
<stop stop-color="#EFF2F4"/>
<stop offset="0.248907" stop-color="white"/>
</linearGradient>
<linearGradient id="paint2_linear" x1="57.6958" y1="42.8517" x2="57.6958" y2="80.0555" gradientUnits="userSpaceOnUse">
<stop stop-color="#C4CDD5"/>
<stop offset="1" stop-color="#F9FAFB"/>
</linearGradient>
<linearGradient id="paint3_linear" x1="57.6869" y1="73.2227" x2="57.7168" y2="76.7999" gradientUnits="userSpaceOnUse">
<stop stop-color="#DA2F3C"/>
<stop offset="1" stop-color="#ED435C"/>
</linearGradient>
</defs>
</svg>
