<svg width="156" height="140" viewBox="0 0 156 140" fill="none" xmlns="http://www.w3.org/2000/svg">
<g filter="url(#filter0_d)">
<rect x="23" y="15" width="107" height="107" rx="5" fill="url(#paint0_linear)"/>
</g>
<path d="M76.1776 111.969C75.6907 111.969 75.2037 111.824 74.7848 111.533L40.7113 87.9246C40.0511 87.4671 39.6571 86.7146 39.6571 85.911V57.056C39.6571 56.7928 39.6995 56.5312 39.7827 56.2816L41.9255 49.848L40.3724 48.2938C36.5286 44.4467 36.5286 38.1871 40.3724 34.3402C40.3764 34.3363 40.3804 34.3324 40.3844 34.3283C44.21 30.5091 50.4425 30.4593 54.3171 34.3376L55.4393 35.4605C56.6284 34.5683 64.3343 28.375 76.1763 28.375C88.0203 28.375 95.7275 34.5678 96.9164 35.4601L98.0381 34.3373C101.859 30.5133 108.091 30.455 111.971 34.3281C111.975 34.332 111.979 34.336 111.983 34.34C115.827 38.1871 115.827 44.4466 111.983 48.2935L110.43 49.8478L112.573 56.2814C112.656 56.5311 112.698 56.7926 112.698 57.0558V85.911C112.698 86.7146 112.304 87.4671 111.644 87.9246L77.5705 111.533C77.1515 111.824 76.6646 111.969 76.1776 111.969Z" fill="url(#paint1_linear)"/>
<path d="M76.151 91.2169C66.5628 91.2169 57.7868 84.1578 57.7868 74.144V67.7355C57.7868 63.5715 59.4216 59.6564 62.39 56.7116L70.6574 48.51C73.6865 45.5051 78.6153 45.5052 81.6446 48.5099L89.9119 56.7116C92.8803 59.6564 94.5152 63.5715 94.5152 67.7355V74.144C94.5152 84.1385 85.7508 91.2169 76.151 91.2169Z" fill="url(#paint2_linear)"/>
<path d="M76.151 80.5806C71.3545 80.5806 67.4522 77.1107 67.4522 72.8456C67.4522 68.5803 71.3543 65.1104 76.151 65.1104C80.9477 65.1104 84.8498 68.5803 84.8498 72.8456C84.8498 77.1107 80.9475 80.5806 76.151 80.5806Z" fill="#212B36"/>
<path d="M76.1505 86.5815C76.1505 86.5815 70.5967 88.4974 65.3896 86.7949C65.5293 93.9041 70.2918 100.138 76.1505 100.138C82.0103 100.138 86.7729 93.9041 86.9125 86.7949C81.7043 88.4974 76.1505 86.5815 76.1505 86.5815Z" fill="#ED435C"/>
<path d="M70.0137 92.9135C72.4003 93.0846 74.5343 92.6355 75.5408 92.3721C75.9411 92.2674 76.3599 92.2674 76.7602 92.3721C77.7667 92.6355 79.9007 93.0846 82.2873 92.9135C83.4392 92.8302 84.3829 93.5754 84.6621 94.5559C86.0247 92.3507 86.8543 89.6423 86.9125 86.7909C81.7043 88.4626 76.1505 86.5815 76.1505 86.5815C76.1505 86.5815 70.5967 88.4626 65.3896 86.7909C65.4467 89.6434 66.2775 92.3507 67.6389 94.5559C67.9181 93.5754 68.8618 92.8302 70.0137 92.9135Z" fill="url(#paint3_linear)"/>
<path d="M57.8267 51.8663C59.3767 51.8663 60.6333 50.6092 60.6333 49.0586C60.6333 47.508 59.3767 46.251 57.8267 46.251C56.2766 46.251 55.0201 47.508 55.0201 49.0586C55.0201 50.6092 56.2766 51.8663 57.8267 51.8663Z" fill="#212B36"/>
<path d="M94.4422 51.8663C95.9922 51.8663 97.2488 50.6092 97.2488 49.0586C97.2488 47.508 95.9922 46.251 94.4422 46.251C92.8921 46.251 91.6356 47.508 91.6356 49.0586C91.6356 50.6092 92.8921 51.8663 94.4422 51.8663Z" fill="#212B36"/>
<defs>
<filter id="filter0_d" x="19" y="15" width="115" height="115" filterUnits="userSpaceOnUse" color-interpolation-filters="sRGB">
<feFlood flood-opacity="0" result="BackgroundImageFix"/>
<feColorMatrix in="SourceAlpha" type="matrix" values="0 0 0 0 0 0 0 0 0 0 0 0 0 0 0 0 0 0 127 0"/>
<feOffset dy="4"/>
<feGaussianBlur stdDeviation="2"/>
<feColorMatrix type="matrix" values="0 0 0 0 0 0 0 0 0 0 0 0 0 0 0 0 0 0 0.12 0"/>
<feBlend mode="normal" in2="BackgroundImageFix" result="effect1_dropShadow"/>
<feBlend mode="normal" in="SourceGraphic" in2="effect1_dropShadow" result="shape"/>
</filter>
<linearGradient id="paint0_linear" x1="76.5" y1="15" x2="76.5" y2="122" gradientUnits="userSpaceOnUse">
<stop stop-color="#EB01FC"/>
<stop offset="1" stop-color="#FF018A"/>
</linearGradient>
<linearGradient id="paint1_linear" x1="76.2109" y1="28.375" x2="76.1776" y2="128.636" gradientUnits="userSpaceOnUse">
<stop stop-color="#EFF2F4"/>
<stop offset="0.248907" stop-color="white"/>
</linearGradient>
<linearGradient id="paint2_linear" x1="76.161" y1="52.7306" x2="76.161" y2="94.1974" gradientUnits="userSpaceOnUse">
<stop stop-color="#C4CDD5"/>
<stop offset="1" stop-color="#F9FAFB"/>
</linearGradient>
<linearGradient id="paint3_linear" x1="76.1511" y1="86.5815" x2="76.1843" y2="90.5687" gradientUnits="userSpaceOnUse">
<stop stop-color="#DA2F3C"/>
<stop offset="1" stop-color="#ED435C"/>
</linearGradient>
</defs>
</svg>
