<svg width="20" height="20" viewBox="0 0 20 20" fill="none" xmlns="http://www.w3.org/2000/svg">
<mask id="mask0" mask-type="alpha" maskUnits="userSpaceOnUse" x="2" y="2" width="16" height="16">
<path d="M11 16H14V8H11V16ZM6 16H9V8H6V16ZM8 6H12V4H8V6ZM17 6H14V4C14 2.897 13.103 2 12 2H8C6.897 2 6 2.897 6 4V6H3C2.447 6 2 6.448 2 7C2 7.552 2.447 8 3 8H4V17C4 17.552 4.447 18 5 18H15C15.553 18 16 17.552 16 17V8H17C17.553 8 18 7.552 18 7C18 6.448 17.553 6 17 6Z" fill="white"/>
</mask>
<g mask="url(#mask0)">
<path d="M11 16H14V8H11V16ZM6 16H9V8H6V16ZM8 6H12V4H8V6ZM17 6H14V4C14 2.897 13.103 2 12 2H8C6.897 2 6 2.897 6 4V6H3C2.447 6 2 6.448 2 7C2 7.552 2.447 8 3 8H4V17C4 17.552 4.447 18 5 18H15C15.553 18 16 17.552 16 17V8H17C17.553 8 18 7.552 18 7C18 6.448 17.553 6 17 6Z" fill="#31373D"/>
<path d="M21 0H0V21H21V0Z" fill="#919EAB"/>
</g>
</svg>
