<svg width="20" height="20" viewBox="0 0 20 20" fill="none" xmlns="http://www.w3.org/2000/svg">
<mask id="mask0" mask-type="alpha" maskUnits="userSpaceOnUse" x="2" y="2" width="16" height="16">
<path d="M17.0862 2.912C15.8662 1.695 13.8882 1.697 12.6722 2.912L3.29317 12.291C3.16517 12.419 3.07417 12.579 3.03017 12.755L2.03017 16.755C1.94417 17.096 2.04517 17.456 2.29317 17.705C2.48317 17.895 2.73817 17.998 3.00017 17.998C3.08117 17.998 3.16217 17.988 3.24217 17.968L7.24217 16.968C7.41817 16.924 7.57917 16.833 7.70717 16.705L17.0862 7.326C18.3032 6.109 18.3032 4.129 17.0862 2.912ZM15.6722 5.912L15.0002 6.584L13.4142 4.998L14.0862 4.326C14.5242 3.89 15.2352 3.89 15.6722 4.326C16.1092 4.764 16.1092 5.475 15.6722 5.912ZM5.41417 12.998L12.0002 6.412L13.5862 7.998L7.00017 14.584L5.41417 12.998Z" fill="white"/>
</mask>
<g mask="url(#mask0)">
<path d="M17.0862 2.912C15.8662 1.695 13.8882 1.697 12.6722 2.912L3.29317 12.291C3.16517 12.419 3.07417 12.579 3.03017 12.755L2.03017 16.755C1.94417 17.096 2.04517 17.456 2.29317 17.705C2.48317 17.895 2.73817 17.998 3.00017 17.998C3.08117 17.998 3.16217 17.988 3.24217 17.968L7.24217 16.968C7.41817 16.924 7.57917 16.833 7.70717 16.705L17.0862 7.326C18.3032 6.109 18.3032 4.129 17.0862 2.912ZM15.6722 5.912L15.0002 6.584L13.4142 4.998L14.0862 4.326C14.5242 3.89 15.2352 3.89 15.6722 4.326C16.1092 4.764 16.1092 5.475 15.6722 5.912ZM5.41417 12.998L12.0002 6.412L13.5862 7.998L7.00017 14.584L5.41417 12.998Z" fill="#31373D"/>
<path d="M21 0H0V21H21V0Z" fill="#919EAB"/>
</g>
</svg>
