<svg width="190" height="44" viewBox="0 0 190 44" fill="none" xmlns="http://www.w3.org/2000/svg">
<rect x="0.5" y="0.5" width="189" height="43" rx="2.5" fill="url(#paint0_linear)" stroke="#C8D0D8"/>
<path d="M60.7324 24.293C60.7324 24.9017 60.8255 25.3636 61.0117 25.6787C61.2051 25.9867 61.5238 26.1406 61.9678 26.1406C62.2471 26.1406 62.5299 26.0511 62.8164 25.8721C63.1029 25.693 63.3822 25.4388 63.6543 25.1094C63.9264 24.7728 64.1771 24.3717 64.4062 23.9062C64.6426 23.4336 64.8503 22.9108 65.0293 22.3379C65.2083 21.7578 65.348 21.1312 65.4482 20.458C65.5485 19.7848 65.5986 19.083 65.5986 18.3525C65.5986 17.6149 65.5163 16.9167 65.3516 16.2578C65.194 15.599 64.9434 15.026 64.5996 14.5391C64.263 14.0449 63.8298 13.6546 63.2998 13.3682C62.777 13.0817 62.1504 12.9385 61.4199 12.9385C60.8112 12.9385 60.2741 13.0065 59.8086 13.1426C59.3431 13.2786 58.9385 13.4684 58.5947 13.7119C58.2581 13.9482 57.9717 14.2275 57.7354 14.5498C57.5062 14.8721 57.32 15.2194 57.1768 15.5918C57.0407 15.957 56.944 16.3402 56.8867 16.7412C56.8294 17.1351 56.8008 17.5254 56.8008 17.9121C56.8008 18.4421 56.8545 18.9147 56.9619 19.3301C57.0765 19.7454 57.2018 20.0999 57.3379 20.3936C57.4811 20.68 57.6136 20.902 57.7354 21.0596C57.8643 21.2171 57.9395 21.3066 57.9609 21.3281C58.0827 21.2923 58.1686 21.3066 58.2188 21.3711C58.2689 21.4355 58.2939 21.5215 58.2939 21.6289C58.2939 21.7721 58.2617 21.9225 58.1973 22.0801C58.14 22.2305 58.0612 22.3701 57.9609 22.499C57.8607 22.6208 57.7461 22.7246 57.6172 22.8105C57.4954 22.8893 57.3701 22.9287 57.2412 22.9287C57.1839 22.9287 57.1266 22.9215 57.0693 22.9072C57.0192 22.8929 56.9655 22.8643 56.9082 22.8213C56.8939 22.8141 56.8402 22.764 56.7471 22.6709C56.654 22.5706 56.5394 22.431 56.4033 22.252C56.2673 22.0729 56.1204 21.8509 55.9629 21.5859C55.8125 21.3138 55.6693 21.0023 55.5332 20.6514C55.4043 20.3005 55.2969 19.9066 55.2109 19.4697C55.125 19.0329 55.082 18.5566 55.082 18.041C55.082 17.0456 55.2324 16.1325 55.5332 15.3018C55.8411 14.4639 56.2744 13.7477 56.833 13.1533C57.3916 12.5518 58.0648 12.0863 58.8525 11.7568C59.6403 11.4202 60.5176 11.252 61.4844 11.252C62.5085 11.252 63.3893 11.4489 64.127 11.8428C64.8717 12.2295 65.4805 12.7451 65.9531 13.3896C66.4329 14.0342 66.7874 14.7718 67.0166 15.6025C67.2458 16.4333 67.3604 17.2926 67.3604 18.1807C67.3604 19.2191 67.278 20.1787 67.1133 21.0596C66.9557 21.9404 66.7373 22.7389 66.458 23.4551C66.1859 24.1712 65.8672 24.805 65.502 25.3564C65.1367 25.9007 64.75 26.359 64.3418 26.7314C63.9336 27.0967 63.5146 27.3724 63.085 27.5586C62.6553 27.7448 62.2399 27.8379 61.8389 27.8379C61.3232 27.8379 60.8828 27.7555 60.5176 27.5908C60.1595 27.4333 59.8695 27.2005 59.6475 26.8926C59.4255 26.5775 59.2643 26.1943 59.1641 25.7432C59.0638 25.2848 59.0137 24.7656 59.0137 24.1855V15.7529C59.0137 15.5452 58.9993 15.3984 58.9707 15.3125C58.9421 15.2194 58.9277 15.1335 58.9277 15.0547C58.9277 14.9401 58.985 14.8506 59.0996 14.7861C59.2142 14.7145 59.3503 14.6787 59.5078 14.6787C59.873 14.6787 60.1667 14.7754 60.3887 14.9688C60.6178 15.1549 60.7324 15.3805 60.7324 15.6455V24.293ZM73.8164 20.5977C73.8164 21.0059 73.7448 21.4248 73.6016 21.8545C73.4655 22.2842 73.2578 22.6924 72.9785 23.0791C72.7064 23.4587 72.3662 23.8024 71.958 24.1104C71.557 24.4111 71.0915 24.6403 70.5615 24.7979C70.6331 24.984 70.7262 25.1631 70.8408 25.335C70.9626 25.4997 71.1058 25.6429 71.2705 25.7646C71.4352 25.8864 71.625 25.9831 71.8398 26.0547C72.0618 26.1263 72.3161 26.1621 72.6025 26.1621C73.0322 26.1621 73.401 26.0833 73.709 25.9258C74.0169 25.7611 74.2747 25.5462 74.4824 25.2812C74.6973 25.0163 74.8691 24.7191 74.998 24.3896C75.127 24.0602 75.2236 23.7272 75.2881 23.3906C75.3382 23.1471 75.4385 22.986 75.5889 22.9072C75.7464 22.8213 75.904 22.7998 76.0615 22.8428C76.2262 22.8857 76.3659 22.9788 76.4805 23.1221C76.6022 23.2581 76.6523 23.4229 76.6309 23.6162C76.6022 23.8382 76.5521 24.0924 76.4805 24.3789C76.416 24.6654 76.3158 24.9554 76.1797 25.249C76.0436 25.5426 75.8682 25.8327 75.6533 26.1191C75.4456 26.3984 75.1878 26.6491 74.8799 26.8711C74.5719 27.0931 74.2103 27.2721 73.7949 27.4082C73.3796 27.5443 72.9033 27.6123 72.3662 27.6123C71.8649 27.6123 71.3779 27.512 70.9053 27.3115C70.4398 27.1182 70.0244 26.8389 69.6592 26.4736C69.3011 26.1012 69.0111 25.6465 68.7891 25.1094C68.5742 24.5651 68.4668 23.9492 68.4668 23.2617C68.4668 22.5671 68.5635 21.9225 68.7568 21.3281C68.9502 20.7266 69.2044 20.2074 69.5195 19.7705C69.8346 19.3337 70.1927 18.9935 70.5938 18.75C70.9948 18.4993 71.4066 18.374 71.8291 18.374C72.137 18.374 72.4128 18.4277 72.6562 18.5352C72.9069 18.6426 73.1182 18.7965 73.29 18.9971C73.4619 19.1904 73.5908 19.4232 73.6768 19.6953C73.7699 19.9674 73.8164 20.2682 73.8164 20.5977ZM70.2715 23.1973C70.2715 23.2617 70.2751 23.3262 70.2822 23.3906C70.2894 23.4551 70.293 23.5231 70.293 23.5947C70.5651 23.4658 70.8122 23.3011 71.0342 23.1006C71.2562 22.9001 71.446 22.6709 71.6035 22.4131C71.7611 22.1553 71.8828 21.876 71.9688 21.5752C72.0547 21.2673 72.0977 20.9486 72.0977 20.6191C72.0977 20.3757 72.0547 20.1859 71.9688 20.0498C71.89 19.9137 71.779 19.8457 71.6357 19.8457C71.4567 19.8457 71.2956 19.9066 71.1523 20.0283C71.0163 20.1501 70.8945 20.3112 70.7871 20.5117C70.6868 20.7051 70.6009 20.9271 70.5293 21.1777C70.4648 21.4212 70.4111 21.6683 70.3682 21.9189C70.3252 22.1696 70.2965 22.4095 70.2822 22.6387C70.2679 22.8607 70.2643 23.0469 70.2715 23.1973ZM76.5342 23.9814C76.4769 24.2106 76.3695 24.3538 76.2119 24.4111C76.0544 24.4613 75.8968 24.4541 75.7393 24.3896C75.5889 24.3252 75.46 24.2142 75.3525 24.0566C75.2523 23.8991 75.2236 23.7272 75.2666 23.541C75.374 23.054 75.528 22.5169 75.7285 21.9297C75.9362 21.3353 76.1403 20.7445 76.3408 20.1572C76.2334 19.9925 76.1475 19.8278 76.083 19.6631C76.0186 19.4912 75.9863 19.3122 75.9863 19.126C75.9863 18.9398 76.0544 18.7464 76.1904 18.5459C76.3337 18.3382 76.502 18.1484 76.6953 17.9766C76.8958 17.8047 77.0999 17.665 77.3076 17.5576C77.5225 17.443 77.7051 17.3857 77.8555 17.3857C78.1204 17.3857 78.3174 17.4753 78.4463 17.6543C78.5824 17.8333 78.6504 18.0732 78.6504 18.374C78.6504 18.5387 78.6217 18.7035 78.5645 18.8682C78.5143 19.0257 78.457 19.1761 78.3926 19.3193C78.3281 19.4554 78.2673 19.5736 78.21 19.6738C78.1598 19.7741 78.1312 19.8385 78.124 19.8672C78.3818 20.3255 78.6504 20.7301 78.9297 21.0811C79.209 21.432 79.4632 21.7793 79.6924 22.123C79.9287 22.4668 80.1221 22.832 80.2725 23.2188C80.4229 23.6055 80.498 24.0602 80.498 24.583C80.498 24.7119 80.4873 24.8444 80.4658 24.9805C80.4515 25.1165 80.4264 25.2454 80.3906 25.3672C80.6484 25.3171 80.874 25.2383 81.0674 25.1309C81.2679 25.0234 81.4398 24.9017 81.583 24.7656C81.7334 24.6224 81.8551 24.4684 81.9482 24.3037C82.0485 24.139 82.1309 23.9671 82.1953 23.7881C82.2741 23.5804 82.3529 23.43 82.4316 23.3369C82.5104 23.2438 82.5999 23.1973 82.7002 23.1973C82.7933 23.1973 82.8864 23.2295 82.9795 23.2939C83.0798 23.3512 83.1657 23.4264 83.2373 23.5195C83.3161 23.6126 83.377 23.7093 83.4199 23.8096C83.4701 23.9098 83.4951 23.9993 83.4951 24.0781C83.4951 24.1855 83.4665 24.3145 83.4092 24.4648C83.3519 24.6152 83.2731 24.7692 83.1729 24.9268C83.0798 25.0843 82.9723 25.2383 82.8506 25.3887C82.7288 25.5319 82.6035 25.6572 82.4746 25.7646C82.1309 26.0439 81.7262 26.2803 81.2607 26.4736C80.7952 26.6598 80.2188 26.778 79.5312 26.8281C79.2663 27.0573 78.9512 27.2435 78.5859 27.3867C78.2279 27.5371 77.8232 27.6123 77.3721 27.6123C77.1429 27.6123 76.9066 27.5837 76.6631 27.5264C76.4268 27.4691 76.1976 27.3939 75.9756 27.3008C75.7607 27.2148 75.5638 27.1182 75.3848 27.0107C75.2057 26.9033 75.0625 26.7959 74.9551 26.6885C74.6829 26.4307 74.5075 26.1729 74.4287 25.915C74.3499 25.6501 74.332 25.4137 74.375 25.2061C74.4108 24.9984 74.486 24.8301 74.6006 24.7012C74.7152 24.5651 74.8333 24.4971 74.9551 24.4971C75.0267 24.4971 75.1377 24.5293 75.2881 24.5938C75.4456 24.651 75.6247 24.7298 75.8252 24.8301C76.0257 24.9232 76.2441 25.0234 76.4805 25.1309C76.7168 25.2383 76.9531 25.3421 77.1895 25.4424C77.4258 25.5355 77.6549 25.6143 77.877 25.6787C78.1061 25.736 78.3138 25.7646 78.5 25.7646C78.6217 25.6214 78.7327 25.4316 78.833 25.1953C78.9333 24.959 78.9834 24.7012 78.9834 24.4219C78.9834 24.0781 78.9368 23.7594 78.8438 23.4658C78.7507 23.1722 78.6289 22.9001 78.4785 22.6494C78.3281 22.3988 78.1562 22.166 77.9629 21.9512C77.7767 21.7292 77.5869 21.5215 77.3936 21.3281C77.2217 21.7507 77.0713 22.1696 76.9424 22.585C76.8135 22.9932 76.6774 23.4587 76.5342 23.9814ZM83.4736 16.4189C83.2946 16.4189 83.1227 16.3831 82.958 16.3115C82.8005 16.2399 82.6608 16.1432 82.5391 16.0215C82.4245 15.8997 82.3314 15.7601 82.2598 15.6025C82.1882 15.4378 82.1523 15.2624 82.1523 15.0762C82.1523 14.8828 82.1882 14.7038 82.2598 14.5391C82.3314 14.3743 82.4245 14.2347 82.5391 14.1201C82.6608 13.9984 82.8005 13.9053 82.958 13.8408C83.1227 13.7692 83.2946 13.7334 83.4736 13.7334C83.667 13.7334 83.846 13.7692 84.0107 13.8408C84.1755 13.9053 84.3151 13.9984 84.4297 14.1201C84.5514 14.2347 84.6445 14.3743 84.709 14.5391C84.7806 14.7038 84.8164 14.8828 84.8164 15.0762C84.8164 15.2624 84.7806 15.4378 84.709 15.6025C84.6445 15.7601 84.5514 15.8997 84.4297 16.0215C84.3151 16.1432 84.1755 16.2399 84.0107 16.3115C83.846 16.3831 83.667 16.4189 83.4736 16.4189ZM83.9785 25.1523C83.9785 25.2025 83.9821 25.2848 83.9893 25.3994C83.9964 25.5068 84.0179 25.6178 84.0537 25.7324C84.0895 25.847 84.1468 25.9473 84.2256 26.0332C84.3044 26.1191 84.4154 26.1621 84.5586 26.1621C84.7734 26.1621 84.9596 26.0833 85.1172 25.9258C85.2819 25.7682 85.4215 25.5713 85.5361 25.335C85.6579 25.0986 85.7581 24.8444 85.8369 24.5723C85.9157 24.293 85.9801 24.0316 86.0303 23.7881C86.0732 23.5661 86.1377 23.4049 86.2236 23.3047C86.3167 23.2044 86.4134 23.1507 86.5137 23.1436C86.6211 23.1292 86.7249 23.1543 86.8252 23.2188C86.9326 23.2832 87.0257 23.3691 87.1045 23.4766C87.1904 23.5768 87.2513 23.6914 87.2871 23.8203C87.3301 23.9492 87.3372 24.071 87.3086 24.1855C87.2083 24.5508 87.0758 24.9339 86.9111 25.335C86.7536 25.736 86.5495 26.1048 86.2988 26.4414C86.0482 26.778 85.7474 27.0573 85.3965 27.2793C85.0456 27.5013 84.6338 27.6123 84.1611 27.6123C83.8675 27.6123 83.6061 27.555 83.377 27.4404C83.1478 27.333 82.9544 27.1862 82.7969 27C82.6393 26.8138 82.5176 26.5954 82.4316 26.3447C82.3529 26.0941 82.3135 25.8291 82.3135 25.5498V19.6738C82.3135 19.4661 82.2956 19.3158 82.2598 19.2227C82.2311 19.1296 82.2168 19.0436 82.2168 18.9648C82.2168 18.8574 82.2741 18.7715 82.3887 18.707C82.5033 18.6354 82.6393 18.5996 82.7969 18.5996C83.1621 18.5996 83.4486 18.6963 83.6562 18.8896C83.8711 19.0758 83.9785 19.3014 83.9785 19.5664V25.1523ZM87.4375 33.5312C87.4375 32.9727 87.5091 32.4785 87.6523 32.0488C87.8027 31.6191 88.0033 31.2253 88.2539 30.8672C88.5046 30.5091 88.7946 30.1725 89.124 29.8574C89.4535 29.5495 89.8008 29.2344 90.166 28.9121V26.6025C89.944 26.8245 89.6826 27.0107 89.3818 27.1611C89.0882 27.3187 88.748 27.3975 88.3613 27.3975C87.9316 27.3975 87.5521 27.3115 87.2227 27.1396C86.9004 26.9678 86.6283 26.735 86.4062 26.4414C86.1842 26.1406 86.016 25.7897 85.9014 25.3887C85.7939 24.9805 85.7402 24.5436 85.7402 24.0781C85.7402 23.1615 85.887 22.3379 86.1807 21.6074C86.4743 20.877 86.8646 20.2575 87.3516 19.749C87.8385 19.2334 88.3936 18.8395 89.0166 18.5674C89.6468 18.2952 90.2985 18.1592 90.9717 18.1592C91.2725 18.1592 91.516 18.2415 91.7021 18.4062C91.8883 18.5638 91.9814 18.7894 91.9814 19.083C91.9814 19.2692 91.96 19.4017 91.917 19.4805C91.8812 19.5521 91.8096 19.5879 91.7021 19.5879C91.6019 19.5879 91.498 19.5807 91.3906 19.5664C91.2832 19.5521 91.1722 19.5449 91.0576 19.5449C90.6423 19.5449 90.2197 19.638 89.79 19.8242C89.3604 20.0033 88.9701 20.2826 88.6191 20.6621C88.2754 21.0345 87.9925 21.5107 87.7705 22.0908C87.5485 22.6637 87.4375 23.3477 87.4375 24.1426C87.4375 24.7155 87.5485 25.1595 87.7705 25.4746C87.9925 25.7897 88.2969 25.9473 88.6836 25.9473C88.9056 25.9473 89.099 25.8828 89.2637 25.7539C89.4284 25.6178 89.5716 25.4495 89.6934 25.249C89.8151 25.0485 89.9118 24.8301 89.9834 24.5938C90.0622 24.3503 90.123 24.1175 90.166 23.8955V21.4141C90.166 21.2064 90.1481 21.056 90.1123 20.9629C90.0837 20.8698 90.0693 20.7839 90.0693 20.7051C90.0693 20.5977 90.1266 20.5081 90.2412 20.4365C90.3558 20.3649 90.4919 20.3291 90.6494 20.3291C91.0146 20.3291 91.3011 20.4258 91.5088 20.6191C91.7236 20.8053 91.8311 21.0345 91.8311 21.3066V27.29C92.2321 26.846 92.5973 26.3411 92.9268 25.7754C93.2633 25.2096 93.5426 24.5472 93.7646 23.7881C93.8363 23.5589 93.915 23.3942 94.001 23.2939C94.0869 23.1865 94.1872 23.1328 94.3018 23.1328C94.3877 23.1328 94.4736 23.1615 94.5596 23.2188C94.6527 23.2689 94.735 23.3369 94.8066 23.4229C94.8854 23.5088 94.9463 23.6055 94.9893 23.7129C95.0394 23.8203 95.0645 23.9277 95.0645 24.0352C95.0645 24.0495 95.0645 24.0781 95.0645 24.1211C95.0645 24.1641 95.0573 24.207 95.043 24.25C94.8568 24.8874 94.6383 25.4531 94.3877 25.9473C94.1442 26.4342 93.8828 26.8711 93.6035 27.2578C93.3242 27.6445 93.0342 27.9883 92.7334 28.2891C92.4326 28.597 92.1318 28.8799 91.8311 29.1377V32.9404C91.8311 33.5205 91.763 34.0075 91.627 34.4014C91.498 34.8024 91.3262 35.1247 91.1113 35.3682C90.8965 35.6188 90.6494 35.7979 90.3701 35.9053C90.098 36.0127 89.8223 36.0664 89.543 36.0664C89.235 36.0664 88.9521 35.9984 88.6943 35.8623C88.4365 35.7334 88.2145 35.5544 88.0283 35.3252C87.8421 35.096 87.6953 34.8275 87.5879 34.5195C87.4876 34.2116 87.4375 33.8822 87.4375 33.5312ZM89.543 34.6807C89.722 34.6807 89.8545 34.609 89.9404 34.4658C90.0264 34.3226 90.0837 34.1543 90.1123 33.9609C90.1481 33.7747 90.166 33.585 90.166 33.3916C90.166 33.1982 90.166 33.0479 90.166 32.9404V30.5879C89.8079 30.946 89.5179 31.3506 89.2959 31.8018C89.0811 32.2529 88.9736 32.8079 88.9736 33.4668C88.9736 33.8105 89.0238 34.097 89.124 34.3262C89.2243 34.5625 89.3639 34.6807 89.543 34.6807ZM93.8721 19.6738C93.8721 19.4661 93.8542 19.3158 93.8184 19.2227C93.7897 19.1296 93.7754 19.0436 93.7754 18.9648C93.7754 18.8574 93.8327 18.7715 93.9473 18.707C94.0618 18.6354 94.1979 18.5996 94.3555 18.5996C94.7207 18.5996 95.0072 18.6963 95.2148 18.8896C95.4297 19.0758 95.5371 19.3014 95.5371 19.5664V20.5547C95.6875 20.2467 95.8486 19.9603 96.0205 19.6953C96.1995 19.4303 96.3893 19.2012 96.5898 19.0078C96.7975 18.8073 97.016 18.6533 97.2451 18.5459C97.4814 18.4313 97.7357 18.374 98.0078 18.374C98.373 18.374 98.6738 18.4421 98.9102 18.5781C99.1465 18.7142 99.3327 18.8896 99.4688 19.1045C99.6048 19.3193 99.6979 19.5592 99.748 19.8242C99.8053 20.0892 99.834 20.347 99.834 20.5977V25.1523C99.834 25.2025 99.8376 25.2848 99.8447 25.3994C99.8519 25.5068 99.8734 25.6178 99.9092 25.7324C99.945 25.847 99.9987 25.9473 100.07 26.0332C100.149 26.1191 100.26 26.1621 100.403 26.1621C100.625 26.1621 100.815 26.0833 100.973 25.9258C101.137 25.7682 101.277 25.5713 101.392 25.335C101.513 25.0986 101.61 24.8444 101.682 24.5723C101.76 24.293 101.825 24.0316 101.875 23.7881C101.918 23.5589 101.99 23.3942 102.09 23.2939C102.19 23.1865 102.294 23.1328 102.401 23.1328C102.487 23.1328 102.577 23.1615 102.67 23.2188C102.763 23.2689 102.845 23.3369 102.917 23.4229C102.996 23.5088 103.057 23.6055 103.1 23.7129C103.15 23.8203 103.175 23.9277 103.175 24.0352C103.175 24.0495 103.175 24.0674 103.175 24.0889C103.175 24.1104 103.168 24.1426 103.153 24.1855C103.06 24.5508 102.931 24.9339 102.767 25.335C102.609 25.736 102.401 26.1048 102.144 26.4414C101.893 26.778 101.592 27.0573 101.241 27.2793C100.89 27.5013 100.479 27.6123 100.006 27.6123C99.7122 27.6123 99.4508 27.555 99.2217 27.4404C98.9997 27.333 98.8063 27.1862 98.6416 27C98.484 26.8138 98.3623 26.5954 98.2764 26.3447C98.1976 26.0941 98.1582 25.8291 98.1582 25.5498V21.0811C98.1582 20.9092 98.1546 20.748 98.1475 20.5977C98.1403 20.4473 98.1188 20.3148 98.083 20.2002C98.0544 20.0856 98.0078 19.9961 97.9434 19.9316C97.8861 19.86 97.8037 19.8242 97.6963 19.8242C97.5387 19.8242 97.3454 19.9316 97.1162 20.1465C96.887 20.3613 96.6615 20.6406 96.4395 20.9844C96.2174 21.3281 96.0205 21.7184 95.8486 22.1553C95.6839 22.585 95.5801 23.0182 95.5371 23.4551V26.667C95.5371 26.7744 95.5335 26.8854 95.5264 27C95.5264 27.1074 95.5049 27.2041 95.4619 27.29C95.4261 27.3831 95.3652 27.4583 95.2793 27.5156C95.2005 27.5801 95.0824 27.6123 94.9248 27.6123C94.8174 27.6123 94.6992 27.598 94.5703 27.5693C94.4486 27.5479 94.334 27.5013 94.2266 27.4297C94.1263 27.3652 94.0404 27.2686 93.9688 27.1396C93.9043 27.0179 93.8721 26.8532 93.8721 26.6455V19.6738ZM103.143 33.5312C103.143 32.9727 103.214 32.4785 103.357 32.0488C103.508 31.6191 103.708 31.2253 103.959 30.8672C104.21 30.5091 104.5 30.1725 104.829 29.8574C105.159 29.5495 105.506 29.2344 105.871 28.9121V26.6025C105.649 26.8245 105.388 27.0107 105.087 27.1611C104.793 27.3187 104.453 27.3975 104.066 27.3975C103.637 27.3975 103.257 27.3115 102.928 27.1396C102.605 26.9678 102.333 26.735 102.111 26.4414C101.889 26.1406 101.721 25.7897 101.606 25.3887C101.499 24.9805 101.445 24.5436 101.445 24.0781C101.445 23.1615 101.592 22.3379 101.886 21.6074C102.179 20.877 102.57 20.2575 103.057 19.749C103.544 19.2334 104.099 18.8395 104.722 18.5674C105.352 18.2952 106.004 18.1592 106.677 18.1592C106.978 18.1592 107.221 18.2415 107.407 18.4062C107.593 18.5638 107.687 18.7894 107.687 19.083C107.687 19.2692 107.665 19.4017 107.622 19.4805C107.586 19.5521 107.515 19.5879 107.407 19.5879C107.307 19.5879 107.203 19.5807 107.096 19.5664C106.988 19.5521 106.877 19.5449 106.763 19.5449C106.347 19.5449 105.925 19.638 105.495 19.8242C105.065 20.0033 104.675 20.2826 104.324 20.6621C103.98 21.0345 103.698 21.5107 103.476 22.0908C103.254 22.6637 103.143 23.3477 103.143 24.1426C103.143 24.7155 103.254 25.1595 103.476 25.4746C103.698 25.7897 104.002 25.9473 104.389 25.9473C104.611 25.9473 104.804 25.8828 104.969 25.7539C105.133 25.6178 105.277 25.4495 105.398 25.249C105.52 25.0485 105.617 24.8301 105.688 24.5938C105.767 24.3503 105.828 24.1175 105.871 23.8955V21.4141C105.871 21.2064 105.853 21.056 105.817 20.9629C105.789 20.8698 105.774 20.7839 105.774 20.7051C105.774 20.5977 105.832 20.5081 105.946 20.4365C106.061 20.3649 106.197 20.3291 106.354 20.3291C106.72 20.3291 107.006 20.4258 107.214 20.6191C107.429 20.8053 107.536 21.0345 107.536 21.3066V27.29C107.937 26.846 108.302 26.3411 108.632 25.7754C108.968 25.2096 109.248 24.5472 109.47 23.7881C109.541 23.5589 109.62 23.3942 109.706 23.2939C109.792 23.1865 109.892 23.1328 110.007 23.1328C110.093 23.1328 110.179 23.1615 110.265 23.2188C110.358 23.2689 110.44 23.3369 110.512 23.4229C110.59 23.5088 110.651 23.6055 110.694 23.7129C110.744 23.8203 110.77 23.9277 110.77 24.0352C110.77 24.0495 110.77 24.0781 110.77 24.1211C110.77 24.1641 110.762 24.207 110.748 24.25C110.562 24.8874 110.343 25.4531 110.093 25.9473C109.849 26.4342 109.588 26.8711 109.309 27.2578C109.029 27.6445 108.739 27.9883 108.438 28.2891C108.138 28.597 107.837 28.8799 107.536 29.1377V32.9404C107.536 33.5205 107.468 34.0075 107.332 34.4014C107.203 34.8024 107.031 35.1247 106.816 35.3682C106.602 35.6188 106.354 35.7979 106.075 35.9053C105.803 36.0127 105.527 36.0664 105.248 36.0664C104.94 36.0664 104.657 35.9984 104.399 35.8623C104.142 35.7334 103.92 35.5544 103.733 35.3252C103.547 35.096 103.4 34.8275 103.293 34.5195C103.193 34.2116 103.143 33.8822 103.143 33.5312ZM105.248 34.6807C105.427 34.6807 105.56 34.609 105.646 34.4658C105.731 34.3226 105.789 34.1543 105.817 33.9609C105.853 33.7747 105.871 33.585 105.871 33.3916C105.871 33.1982 105.871 33.0479 105.871 32.9404V30.5879C105.513 30.946 105.223 31.3506 105.001 31.8018C104.786 32.2529 104.679 32.8079 104.679 33.4668C104.679 33.8105 104.729 34.097 104.829 34.3262C104.929 34.5625 105.069 34.6807 105.248 34.6807ZM114.368 27.6123C114.11 27.6123 113.845 27.5729 113.573 27.4941C113.308 27.4154 113.065 27.2793 112.843 27.0859C112.628 26.8926 112.449 26.6383 112.306 26.3232C112.17 26.001 112.102 25.5964 112.102 25.1094C112.102 24.4004 112.195 23.652 112.381 22.8643C112.574 22.0693 112.85 21.1956 113.208 20.2432H111.532H111.285C111.278 20.458 111.264 20.7301 111.242 21.0596C111.228 21.389 111.199 21.7399 111.156 22.1123C111.113 22.4847 111.056 22.8607 110.984 23.2402C110.92 23.6198 110.838 23.9707 110.737 24.293C110.666 24.5221 110.551 24.6546 110.394 24.6904C110.243 24.7262 110.093 24.7012 109.942 24.6152C109.792 24.5221 109.67 24.3896 109.577 24.2178C109.484 24.0459 109.463 23.8669 109.513 23.6807C109.57 23.4587 109.62 23.1901 109.663 22.875C109.706 22.5527 109.738 22.2161 109.76 21.8652C109.788 21.5072 109.81 21.1527 109.824 20.8018C109.839 20.4437 109.849 20.125 109.856 19.8457C109.584 19.6953 109.359 19.5055 109.18 19.2764C109.001 19.04 108.911 18.7607 108.911 18.4385C108.911 18.2881 108.94 18.152 108.997 18.0303C109.062 17.9014 109.144 17.7939 109.244 17.708C109.344 17.6149 109.463 17.5469 109.599 17.5039C109.735 17.4538 109.874 17.4287 110.018 17.4287C110.146 17.4287 110.279 17.4466 110.415 17.4824C110.558 17.5182 110.691 17.5827 110.812 17.6758C110.941 17.7689 111.056 17.8906 111.156 18.041C111.257 18.1914 111.339 18.3776 111.403 18.5996C111.582 18.6211 111.733 18.639 111.854 18.6533C111.983 18.6605 112.091 18.6676 112.177 18.6748C112.263 18.682 112.334 18.6855 112.392 18.6855C112.449 18.6855 112.506 18.6855 112.563 18.6855H113.713C113.777 18.6855 113.87 18.7249 113.992 18.8037C114.121 18.8825 114.246 18.9863 114.368 19.1152C114.49 19.237 114.59 19.3695 114.669 19.5127C114.755 19.6559 114.787 19.792 114.766 19.9209C114.766 19.9639 114.741 20.0677 114.69 20.2324C114.64 20.3971 114.579 20.6048 114.508 20.8555C114.436 21.1061 114.357 21.3962 114.271 21.7256C114.186 22.0479 114.107 22.388 114.035 22.7461C113.964 23.1042 113.903 23.4766 113.853 23.8633C113.802 24.2428 113.777 24.6152 113.777 24.9805C113.777 25.1309 113.795 25.2777 113.831 25.4209C113.867 25.5641 113.921 25.693 113.992 25.8076C114.064 25.915 114.153 26.001 114.261 26.0654C114.375 26.1299 114.508 26.1621 114.658 26.1621C114.909 26.1621 115.124 26.0833 115.303 25.9258C115.482 25.7682 115.632 25.5713 115.754 25.335C115.876 25.0986 115.972 24.8444 116.044 24.5723C116.123 24.293 116.187 24.0316 116.237 23.7881C116.28 23.5589 116.352 23.3942 116.452 23.2939C116.552 23.1865 116.656 23.1328 116.764 23.1328C116.85 23.1328 116.939 23.1615 117.032 23.2188C117.125 23.2689 117.208 23.3369 117.279 23.4229C117.358 23.5088 117.419 23.6055 117.462 23.7129C117.512 23.8203 117.537 23.9277 117.537 24.0352C117.537 24.071 117.534 24.0996 117.526 24.1211C117.519 24.1426 117.516 24.1641 117.516 24.1855C117.415 24.5508 117.283 24.9339 117.118 25.335C116.961 25.736 116.757 26.1048 116.506 26.4414C116.255 26.778 115.954 27.0573 115.604 27.2793C115.253 27.5013 114.841 27.6123 114.368 27.6123ZM122.564 26.1621C122.786 26.1621 122.976 26.0833 123.134 25.9258C123.299 25.7682 123.438 25.5713 123.553 25.335C123.674 25.0986 123.771 24.8444 123.843 24.5723C123.922 24.293 123.986 24.0316 124.036 23.7881C124.086 23.5589 124.158 23.3942 124.251 23.2939C124.351 23.1865 124.459 23.1328 124.573 23.1328C124.659 23.1328 124.745 23.1615 124.831 23.2188C124.924 23.2689 125.007 23.3369 125.078 23.4229C125.157 23.5088 125.218 23.6055 125.261 23.7129C125.311 23.8203 125.336 23.9277 125.336 24.0352C125.336 24.0495 125.336 24.0674 125.336 24.0889C125.336 24.1104 125.329 24.1426 125.314 24.1855C125.221 24.5508 125.092 24.9339 124.928 25.335C124.77 25.736 124.566 26.1048 124.315 26.4414C124.065 26.778 123.76 27.0573 123.402 27.2793C123.051 27.5013 122.64 27.6123 122.167 27.6123C121.78 27.6123 121.444 27.5299 121.157 27.3652C120.871 27.2005 120.645 26.9821 120.48 26.71C120.258 26.9606 119.99 27.1719 119.675 27.3438C119.367 27.5228 119.005 27.6123 118.59 27.6123C118.16 27.6123 117.781 27.5264 117.451 27.3545C117.129 27.1826 116.857 26.9499 116.635 26.6562C116.413 26.3555 116.244 26.0046 116.13 25.6035C116.022 25.1953 115.969 24.7585 115.969 24.293C115.969 23.3763 116.116 22.5527 116.409 21.8223C116.703 21.0918 117.093 20.4723 117.58 19.9639C118.067 19.4482 118.622 19.0544 119.245 18.7822C119.875 18.5101 120.527 18.374 121.2 18.374C121.501 18.374 121.744 18.4564 121.931 18.6211C122.117 18.7858 122.21 19.0114 122.21 19.2979C122.21 19.484 122.188 19.6165 122.146 19.6953C122.11 19.7669 122.038 19.8027 121.931 19.8027C121.83 19.8027 121.727 19.7956 121.619 19.7812C121.512 19.7669 121.401 19.7598 121.286 19.7598C120.871 19.7598 120.448 19.8529 120.019 20.0391C119.589 20.2181 119.199 20.4974 118.848 20.877C118.504 21.2493 118.221 21.7256 117.999 22.3057C117.777 22.8786 117.666 23.5625 117.666 24.3574C117.666 24.9375 117.777 25.3851 117.999 25.7002C118.221 26.0081 118.525 26.1621 118.912 26.1621C119.213 26.1621 119.464 26.0511 119.664 25.8291C119.865 25.5999 120.026 25.3314 120.147 25.0234V21.6289C120.147 21.5215 120.14 21.432 120.126 21.3604C120.119 21.2887 120.108 21.2279 120.094 21.1777C120.087 21.1276 120.079 21.0846 120.072 21.0488C120.065 21.0059 120.062 20.9665 120.062 20.9307C120.062 20.8161 120.115 20.7266 120.223 20.6621C120.337 20.5905 120.473 20.5547 120.631 20.5547C120.996 20.5547 121.286 20.6514 121.501 20.8447C121.716 21.0309 121.823 21.2565 121.823 21.5215V25.1523C121.823 25.2741 121.838 25.3958 121.866 25.5176C121.895 25.6322 121.938 25.7396 121.995 25.8398C122.052 25.9329 122.128 26.0117 122.221 26.0762C122.321 26.1335 122.436 26.1621 122.564 26.1621ZM137.271 24.1855C137.17 24.5508 137.038 24.9339 136.873 25.335C136.715 25.736 136.511 26.1048 136.261 26.4414C136.01 26.778 135.709 27.0573 135.358 27.2793C135.007 27.5013 134.596 27.6123 134.123 27.6123C133.829 27.6123 133.568 27.555 133.339 27.4404C133.117 27.333 132.924 27.1862 132.759 27C132.601 26.8138 132.479 26.5954 132.394 26.3447C132.315 26.0941 132.275 25.8291 132.275 25.5498V21.0811C132.275 20.9092 132.272 20.748 132.265 20.5977C132.257 20.4473 132.24 20.3148 132.211 20.2002C132.182 20.0856 132.139 19.9961 132.082 19.9316C132.032 19.86 131.96 19.8242 131.867 19.8242C131.717 19.8242 131.534 19.9316 131.319 20.1465C131.104 20.3613 130.897 20.6406 130.696 20.9844C130.496 21.3281 130.317 21.7184 130.159 22.1553C130.002 22.585 129.909 23.0182 129.88 23.4551V26.667C129.88 26.7744 129.876 26.8854 129.869 27C129.869 27.1074 129.848 27.2041 129.805 27.29C129.769 27.3831 129.708 27.4583 129.622 27.5156C129.543 27.5801 129.425 27.6123 129.268 27.6123C129.16 27.6123 129.042 27.598 128.913 27.5693C128.791 27.5479 128.677 27.5013 128.569 27.4297C128.469 27.3652 128.383 27.2686 128.312 27.1396C128.247 27.0179 128.215 26.8532 128.215 26.6455V21.0811C128.215 20.9092 128.208 20.748 128.193 20.5977C128.186 20.4473 128.168 20.3148 128.14 20.2002C128.111 20.0856 128.068 19.9961 128.011 19.9316C127.961 19.86 127.889 19.8242 127.796 19.8242C127.646 19.8242 127.463 19.9316 127.248 20.1465C127.04 20.3613 126.833 20.6406 126.625 20.9844C126.424 21.3281 126.245 21.7184 126.088 22.1553C125.938 22.585 125.844 23.0182 125.809 23.4551V26.667C125.809 26.7744 125.805 26.8854 125.798 27C125.798 27.1074 125.776 27.2041 125.733 27.29C125.698 27.3831 125.637 27.4583 125.551 27.5156C125.472 27.5801 125.354 27.6123 125.196 27.6123C125.089 27.6123 124.971 27.598 124.842 27.5693C124.72 27.5479 124.605 27.5013 124.498 27.4297C124.398 27.3652 124.312 27.2686 124.24 27.1396C124.176 27.0179 124.144 26.8532 124.144 26.6455V19.6738C124.144 19.4661 124.126 19.3158 124.09 19.2227C124.061 19.1296 124.047 19.0436 124.047 18.9648C124.047 18.8574 124.104 18.7715 124.219 18.707C124.333 18.6354 124.469 18.5996 124.627 18.5996C124.992 18.5996 125.279 18.6963 125.486 18.8896C125.701 19.0758 125.809 19.3014 125.809 19.5664V20.4902C125.952 20.1895 126.106 19.9102 126.271 19.6523C126.442 19.3945 126.625 19.1725 126.818 18.9863C127.012 18.793 127.216 18.6426 127.431 18.5352C127.653 18.4277 127.889 18.374 128.14 18.374C128.469 18.374 128.741 18.4349 128.956 18.5566C129.178 18.6784 129.354 18.8395 129.482 19.04C129.618 19.2406 129.715 19.4661 129.772 19.7168C129.83 19.9603 129.866 20.2038 129.88 20.4473C130.016 20.1536 130.166 19.8815 130.331 19.6309C130.496 19.3802 130.675 19.1618 130.868 18.9756C131.062 18.7894 131.266 18.6426 131.48 18.5352C131.702 18.4277 131.939 18.374 132.189 18.374C132.548 18.374 132.841 18.4421 133.07 18.5781C133.299 18.7142 133.479 18.8896 133.607 19.1045C133.736 19.3193 133.826 19.5592 133.876 19.8242C133.926 20.0892 133.951 20.347 133.951 20.5977V25.1523C133.951 25.2025 133.955 25.2848 133.962 25.3994C133.969 25.5068 133.991 25.6178 134.026 25.7324C134.062 25.847 134.116 25.9473 134.188 26.0332C134.266 26.1191 134.377 26.1621 134.521 26.1621C134.743 26.1621 134.932 26.0833 135.09 25.9258C135.255 25.7682 135.394 25.5713 135.509 25.335C135.631 25.0986 135.731 24.8444 135.81 24.5723C135.888 24.293 135.953 24.0316 136.003 23.7881C136.046 23.5589 136.114 23.3942 136.207 23.2939C136.307 23.1865 136.415 23.1328 136.529 23.1328C136.615 23.1328 136.701 23.1615 136.787 23.2188C136.88 23.2689 136.963 23.3369 137.034 23.4229C137.113 23.5088 137.174 23.6055 137.217 23.7129C137.267 23.8203 137.292 23.9277 137.292 24.0352C137.292 24.0495 137.292 24.0674 137.292 24.0889C137.292 24.1104 137.285 24.1426 137.271 24.1855Z" fill="white"/>
<defs>
<linearGradient id="paint0_linear" x1="0" y1="22" x2="190" y2="22" gradientUnits="userSpaceOnUse">
<stop stop-color="#FFBE01"/>
<stop offset="0.494792" stop-color="#FF00AD"/>
<stop offset="1" stop-color="#525AD4"/>
</linearGradient>
</defs>
</svg>
