<svg width="14" height="14" viewBox="0 0 14 14" fill="none" xmlns="http://www.w3.org/2000/svg">
<mask id="mask0" mask-type="alpha" maskUnits="userSpaceOnUse" x="0" y="0" width="14" height="14">
<path d="M12 3.414L6.707 8.707C6.316 9.098 5.684 9.098 5.293 8.707C4.902 8.316 4.902 7.684 5.293 7.293L10.586 2H8C7.447 2 7 1.552 7 1C7 0.448 7.447 0 8 0H12H14V6C14 6.552 13.553 7 13 7C12.447 7 12 6.552 12 6V3.414ZM5 1C5 1.552 4.553 2 4 2H2V12H12V10C12 9.448 12.447 9 13 9C13.553 9 14 9.448 14 10V12C14 13.104 13.104 14 12 14H2C0.896 14 0 13.104 0 12V2C0 0.895 0.896 0 2 0H4C4.553 0 5 0.448 5 1Z" fill="#007ACE"/>
</mask>
<g mask="url(#mask0)">
<path d="M12 3.414L6.707 8.707C6.316 9.098 5.684 9.098 5.293 8.707C4.902 8.316 4.902 7.684 5.293 7.293L10.586 2H8C7.447 2 7 1.552 7 1C7 0.448 7.447 0 8 0H12H14V6C14 6.552 13.553 7 13 7C12.447 7 12 6.552 12 6V3.414ZM5 1C5 1.552 4.553 2 4 2H2V12H12V10C12 9.448 12.447 9 13 9C13.553 9 14 9.448 14 10V12C14 13.104 13.104 14 12 14H2C0.896 14 0 13.104 0 12V2C0 0.895 0.896 0 2 0H4C4.553 0 5 0.448 5 1Z" fill="#007ACE"/>
<path d="M18 -3H-3V18H18V-3Z" fill="white"/>
</g>
</svg>
