<svg width="100" height="100" viewBox="0 0 100 100" fill="none" xmlns="http://www.w3.org/2000/svg">
<circle cx="50" cy="50" r="47.5" fill="url(#paint0_linear)" stroke="url(#paint1_linear)" stroke-width="5"/>
<mask id="mask0" mask-type="alpha" maskUnits="userSpaceOnUse" x="5" y="5" width="90" height="90">
<circle cx="50" cy="50" r="45" fill="#C4C4C4"/>
</mask>
<g mask="url(#mask0)">
<path fill-rule="evenodd" clip-rule="evenodd" d="M7.33765 74.6797C12.6397 65.487 19.4279 57.1528 27.4892 50.0437V34.5946C27.4892 34.4303 27.5157 34.267 27.5676 34.1111L28.9043 30.0944L27.9355 29.1241C25.5376 26.7222 25.5376 22.8141 27.9355 20.4123L27.9429 20.4048C30.3294 18.0204 34.2174 17.9893 36.6345 20.4107L37.3345 21.1118C37.3609 21.092 37.3924 21.068 37.4289 21.0402C38.4211 20.2848 43.1458 16.688 50.2707 16.688C57.398 16.688 62.1239 20.2858 63.115 21.0403L63.1152 21.0404C63.1514 21.068 63.1826 21.0918 63.2088 21.1115L63.9086 20.4105C66.2921 18.023 70.1799 17.9866 72.6001 20.4047L72.6076 20.4122C75.0054 22.8141 75.0054 26.7221 72.6076 29.1239L71.6388 30.0943L72.9755 34.111C73.0274 34.2669 73.0538 34.4302 73.0538 34.5945V49.4662C81.3877 56.6847 88.39 65.2008 93.8314 74.6197C83.5233 87.021 67.9853 94.9203 50.6019 94.9331V68.8425L50.6018 68.8425L50.6019 94.9331C50.5878 94.9331 50.5737 94.9331 50.5596 94.9331C33.1871 94.9331 17.6543 87.0565 7.33765 74.6797Z" fill="url(#paint2_linear)"/>
</g>
<path d="M50.4551 55.9061C44.4697 55.9061 38.9912 51.5011 38.9912 45.2523V41.2533C38.9912 38.6548 40.0117 36.2118 41.8648 34.3742L47.0257 29.2562C48.9166 27.381 51.9934 27.3811 53.8845 29.2561L59.0454 34.3742C60.8984 36.2118 61.9189 38.6548 61.9189 41.2533V45.2523C61.9189 51.489 56.4478 55.9061 50.4551 55.9061Z" fill="url(#paint3_linear)"/>
<path d="M50.4552 49.2685C47.4609 49.2685 45.0249 47.1032 45.0249 44.4417C45.0249 41.7801 47.4608 39.6147 50.4552 39.6147C53.4495 39.6147 55.8854 41.7801 55.8854 44.4417C55.8854 47.1032 53.4494 49.2685 50.4552 49.2685Z" fill="#212B36"/>
<path d="M50.5839 51.7524C50.5839 51.7524 46.9646 53.035 43.5713 51.8953C43.6623 56.6547 46.7659 60.8281 50.5839 60.8281C54.4026 60.8281 57.5063 56.6547 57.5973 51.8953C54.2032 53.035 50.5839 51.7524 50.5839 51.7524Z" fill="#ED435C"/>
<path d="M46.5847 55.6832C48.1399 55.7894 49.5306 55.5106 50.1866 55.3471C50.4474 55.2821 50.7204 55.2821 50.9812 55.3471C51.6372 55.5106 53.0278 55.7894 54.5831 55.6832C55.3338 55.6315 55.9488 56.0941 56.1307 56.7028C57.0187 55.3338 57.5593 53.6525 57.5973 51.8824C54.2032 52.9201 50.5839 51.7524 50.5839 51.7524C50.5839 51.7524 46.9646 52.9201 43.5713 51.8824C43.6084 53.6532 44.1499 55.3338 45.0371 56.7028C45.219 56.0941 45.834 55.6315 46.5847 55.6832Z" fill="url(#paint4_linear)"/>
<path fill-rule="evenodd" clip-rule="evenodd" d="M9.09082 68.7731V68.6998L27.7921 49.4141L51.1687 82.1413L73.3765 49.4141L91.468 67.5055C84.6391 83.6623 68.6436 95 49.9999 95C31.8477 95 16.2058 84.2522 9.09082 68.7731Z" fill="url(#paint5_linear)"/>
<path d="M37.5 93.5L28 49.5L45.5 74H50.5H56.5L73 49.5L66 92.5L63.4291 93.2464C54.972 95.7017 46.0034 95.7894 37.5 93.5Z" fill="url(#paint6_linear)"/>
<path d="M20.0901 59.756L17.9557 59.1841C17.7744 59.1356 17.6269 59.005 17.5573 58.8308L16.411 55.9743L14.7992 58.3889C14.6952 58.5444 14.5238 58.6427 14.3373 58.6528L11.5328 58.8065L13.4246 61.2168C13.5406 61.3642 13.5799 61.5573 13.5313 61.7385L12.9555 63.8875L15.3621 63.0161C15.5411 62.9512 15.7401 62.9758 15.8979 63.0826L18.1395 64.597L17.9729 61.8165C17.9615 61.6266 18.0414 61.4424 18.1887 61.3216L20.0901 59.756ZM16.245 54.1897C16.3517 54.1281 16.4769 54.0998 16.604 54.113C16.8235 54.1361 17.0127 54.2783 17.0949 54.4837L18.5511 58.1114L21.5148 58.9059C21.7302 58.9636 21.8947 59.1366 21.9422 59.3545C21.9896 59.5724 21.9112 59.7983 21.7392 59.9395L19.1789 62.0477L19.3998 65.7291C19.4132 65.9557 19.2869 66.1832 19.1006 66.2818C18.9036 66.3942 18.6605 66.3848 18.4724 66.2577L15.4829 64.238L12.2881 65.3948C12.0796 65.4705 11.8465 65.4237 11.6831 65.2741C11.5195 65.124 11.453 64.8958 11.5108 64.6817L12.3052 61.7175L9.89102 58.6428C9.75415 58.4676 9.72506 58.2316 9.81716 58.0293C9.90844 57.8269 10.1059 57.6929 10.3265 57.681L13.9745 57.4806L16.0477 54.3751C16.099 54.2974 16.1672 54.2347 16.245 54.1897Z" fill="url(#paint7_linear)" fill-opacity="0.5"/>
<path d="M88.8996 62.9592L87.7948 61.0456C87.7009 60.8831 87.6889 60.6865 87.7629 60.5141L88.9722 57.6837L86.1251 58.2513C85.9416 58.2878 85.7509 58.2361 85.6119 58.1113L83.5201 56.237L83.1534 59.279C83.1313 59.4652 83.0226 59.6295 82.86 59.7233L80.9333 60.8357L83.2512 61.9213C83.4236 62.002 83.5469 62.16 83.5831 62.3471L84.0973 65.003L85.9455 62.9192C86.0718 62.7768 86.2585 62.703 86.4481 62.7218L88.8996 62.9592ZM90.1167 56.3044C90.2357 56.3363 90.3442 56.4048 90.4248 56.504C90.5636 56.6755 90.5969 56.9099 90.5098 57.1132L88.9743 60.7081L90.5082 63.3656C90.6197 63.5587 90.6136 63.7973 90.4931 63.9849C90.3726 64.1725 90.1574 64.2769 89.9359 64.2551L86.6348 63.9354L84.1879 66.6948C84.0371 66.8644 83.7869 66.936 83.5855 66.874C83.3668 66.8142 83.2015 66.6356 83.1583 66.4128L82.4726 62.8707L79.3955 61.4296C79.1946 61.3357 79.0628 61.1378 79.0531 60.9165C79.0436 60.6947 79.1579 60.4863 79.3502 60.3758L82.0079 58.8414L82.4749 54.9603C82.502 54.7396 82.6484 54.5521 82.8565 54.4742C83.0642 54.3956 83.2986 54.4405 83.463 54.5881L86.1842 57.026L89.8461 56.2959C89.9373 56.2773 90.0299 56.2811 90.1167 56.3044Z" fill="url(#paint8_linear)" fill-opacity="0.5"/>
<path fill-rule="evenodd" clip-rule="evenodd" d="M48.1787 69.8716L40.6453 67.3034C39.3478 66.8611 38 67.8256 38 69.1964V75.3036C38 76.6744 39.3478 77.6389 40.6453 77.1966L48.2703 74.5972C48.8927 75.2279 49.7576 75.6189 50.7138 75.6189C51.7428 75.6189 52.666 75.1662 53.2952 74.449L61.3546 77.1966C62.6522 77.6389 64 76.6744 64 75.3036V69.1964C64 67.8256 62.6522 66.8611 61.3547 67.3034L53.3789 70.0224C52.7495 69.2481 51.7895 68.7534 50.7138 68.7534C49.7098 68.7534 48.8064 69.1844 48.1787 69.8716Z" fill="url(#paint9_radial)"/>
<path d="M32 29.3125H44.7187V34.3229C44.7187 36.6644 42.8206 38.5625 40.4792 38.5625C35.7962 38.5625 32 34.7662 32 30.0833V29.3125Z" fill="url(#paint10_linear)"/>
<path d="M56.2812 29.3125H69V30.0833C69 34.7662 65.2037 38.5625 60.5208 38.5625C58.1794 38.5625 56.2812 36.6644 56.2812 34.3229V29.3125Z" fill="url(#paint11_linear)"/>
<rect x="43.5625" y="27" width="13.875" height="1.15625" fill="#F201A7"/>
<rect x="43.5625" y="28.1582" width="1.15625" height="1.15625" fill="#F201A7"/>
<rect x="56.2812" y="28.1582" width="1.15625" height="1.15625" fill="#F201A7"/>
<path d="M86.6308 49.8424L86.6308 47.455C86.6308 47.2523 86.7258 47.0618 86.888 46.9404L89.5486 44.9454L86.578 43.9385C86.3866 43.8735 86.2361 43.7221 86.1734 43.5303L85.2288 40.6465L83.2424 43.2948C83.121 43.4571 82.9305 43.5521 82.7278 43.5521L80.3241 43.552L81.9065 45.8199C82.0242 45.9885 82.0542 46.2031 81.9869 46.3976L81.0333 49.1604L83.8884 48.2091C84.0834 48.1441 84.298 48.1759 84.4652 48.2959L86.6308 49.8424ZM91.3645 44.2732C91.4586 44.3672 91.5232 44.49 91.545 44.6264C91.5823 44.8618 91.4868 45.0991 91.2954 45.2423L87.9167 47.7764L87.9163 51.0915C87.9163 51.3325 87.7818 51.5525 87.5677 51.6629C87.3536 51.7734 87.0959 51.7547 86.9004 51.6147L83.9843 49.5323L80.2042 50.7923C79.9715 50.8696 79.6987 50.8014 79.5437 50.6345C79.3714 50.4604 79.3133 50.2041 79.3933 49.9722L80.6651 46.2876L78.5645 43.277C78.4272 43.0806 78.4108 42.8242 78.5213 42.6119C78.6322 42.3992 78.8517 42.266 79.0913 42.2665L82.4069 42.2665L84.9405 38.8874C85.0851 38.6956 85.3233 38.5992 85.5601 38.6387C85.7969 38.6774 85.9919 38.846 86.066 39.0729L87.2952 42.8239L91.1159 44.1191C91.2113 44.1509 91.2959 44.2045 91.3645 44.2732Z" fill="url(#paint12_linear)" fill-opacity="0.5"/>
<path d="M81.4962 35.3907L82.3198 33.9641C82.3898 33.843 82.5122 33.7619 82.6511 33.7454L84.9291 33.4711L83.5014 31.8447C83.4095 31.7398 83.3718 31.5974 83.4005 31.4612L83.8309 29.4121L81.7304 30.3093C81.6019 30.3644 81.4553 30.3554 81.3341 30.2855L79.8978 29.4562L80.061 31.3572C80.0732 31.4986 80.0171 31.6372 79.9097 31.7302L78.3868 33.0521L80.421 33.4686C80.56 33.4971 80.6772 33.5901 80.7357 33.7195L81.4962 35.3907ZM86.2461 33.6959C86.2699 33.7846 86.2661 33.8802 86.2321 33.9692C86.1731 34.1228 86.0343 34.2317 85.8705 34.2512L82.9774 34.5998L81.8334 36.5806C81.7503 36.7245 81.594 36.8096 81.428 36.8017C81.262 36.7939 81.1144 36.6938 81.0459 36.5427L80.0218 34.2924L77.3284 33.7412C77.1627 33.7071 77.0232 33.5722 76.9882 33.4191C76.9453 33.2556 76.9989 33.0823 77.1267 32.9714L79.1578 31.2084L78.9413 28.6848C78.927 28.5201 79.0057 28.3613 79.1449 28.2725C79.2846 28.1837 79.4617 28.1798 79.6047 28.2628L81.5858 29.4066L84.2656 28.2615C84.4181 28.1968 84.5937 28.2214 84.7216 28.3267C84.8498 28.4315 84.9081 28.5996 84.8741 28.7607L84.3145 31.4261L86.1507 33.5181C86.1968 33.57 86.2288 33.6312 86.2461 33.6959Z" fill="url(#paint13_linear)" fill-opacity="0.5"/>
<path d="M20.5498 31.2091L19.1233 30.3855C19.0022 30.3156 18.9211 30.1931 18.9046 30.0543L18.6303 27.7762L17.0038 29.2039C16.899 29.2958 16.7566 29.3335 16.6204 29.3048L14.5713 28.8744L15.4685 30.975C15.5236 31.1035 15.5146 31.25 15.4447 31.3712L14.6154 32.8075L16.5164 32.6443C16.6578 32.6322 16.7964 32.6883 16.8894 32.7956L18.2113 34.3185L18.6278 32.2843C18.6562 32.1454 18.7493 32.0281 18.8787 31.9696L20.5498 31.2091ZM18.8551 26.4592C18.9438 26.4354 19.0394 26.4392 19.1284 26.4732C19.282 26.5322 19.3908 26.6711 19.4104 26.8348L19.759 29.728L21.7398 30.8719C21.8837 30.955 21.9688 31.1113 21.9609 31.2773C21.953 31.4434 21.853 31.5909 21.7019 31.6594L19.4516 32.6835L18.9004 35.3769C18.8662 35.5426 18.7314 35.6821 18.5782 35.7172C18.4148 35.76 18.2415 35.7064 18.1306 35.5786L16.3676 33.5475L13.844 33.764C13.6793 33.7783 13.5205 33.6997 13.4317 33.5604C13.3429 33.4208 13.339 33.2436 13.4219 33.1006L14.5658 31.1195L13.4207 28.4397C13.356 28.2872 13.3806 28.1116 13.4859 27.9838C13.5907 27.8556 13.7587 27.7972 13.9198 27.8312L16.5853 28.3908L18.6772 26.5546C18.7292 26.5086 18.7904 26.4765 18.8551 26.4592Z" fill="url(#paint14_linear)" fill-opacity="0.5"/>
<path d="M20.3232 44.9156L18.1888 44.3438C18.0076 44.2952 17.8601 44.1647 17.7904 43.9905L16.6442 41.134L15.0323 43.5486C14.9284 43.7041 14.757 43.8024 14.5705 43.8125L11.766 43.9662L13.6578 46.3765C13.7738 46.5239 13.8131 46.7169 13.7645 46.8982L13.1886 49.0472L15.5952 48.1758C15.7742 48.1109 15.9732 48.1355 16.131 48.2422L18.3726 49.7566L18.2061 46.9762C18.1947 46.7863 18.2745 46.6021 18.4219 46.4813L20.3232 44.9156ZM16.4782 39.3494C16.5848 39.2878 16.71 39.2595 16.8372 39.2727C17.0566 39.2957 17.2459 39.4379 17.328 39.6433L18.7842 43.2711L21.748 44.0656C21.9634 44.1233 22.1278 44.2963 22.1753 44.5142C22.2228 44.732 22.1444 44.958 21.9724 45.0992L19.4121 47.2074L19.633 50.8888C19.6463 51.1154 19.52 51.3429 19.3337 51.4415C19.1368 51.5538 18.8937 51.5444 18.7056 51.4174L15.716 49.3977L12.5212 50.5545C12.3128 50.6302 12.0796 50.5834 11.9163 50.4338C11.7527 50.2836 11.6862 50.0555 11.744 49.8414L12.5383 46.8772L10.1242 43.8025C9.98731 43.6273 9.95822 43.3913 10.0503 43.189C10.1416 42.9865 10.3391 42.8526 10.5596 42.8407L14.2077 42.6403L16.2808 39.5348C16.3321 39.4571 16.4003 39.3943 16.4782 39.3494Z" fill="url(#paint15_linear)" fill-opacity="0.5"/>
<path d="M29.1183 38.5368L27.6851 38.1528C27.5634 38.1202 27.4644 38.0326 27.4176 37.9156L26.6479 35.9975L25.5656 37.6189C25.4958 37.7233 25.3807 37.7893 25.2554 37.7961L23.3723 37.8993L24.6426 39.5178C24.7205 39.6168 24.7469 39.7464 24.7142 39.8681L24.3276 41.3111L25.9436 40.726C26.0637 40.6824 26.1974 40.6989 26.3033 40.7706L27.8085 41.7875L27.6967 39.9205C27.689 39.7929 27.7427 39.6693 27.8416 39.5881L29.1183 38.5368ZM26.5364 34.7992C26.608 34.7578 26.6921 34.7388 26.7775 34.7477C26.9248 34.7632 27.0519 34.8586 27.1071 34.9965L28.0849 37.4325L30.075 37.966C30.2197 38.0048 30.3301 38.121 30.362 38.2673C30.3939 38.4135 30.3412 38.5653 30.2257 38.6601L28.5065 40.0757L28.6548 42.5477C28.6638 42.6999 28.579 42.8527 28.4539 42.9189C28.3217 42.9943 28.1584 42.988 28.0321 42.9027L26.0246 41.5465L23.8794 42.3232C23.7394 42.3741 23.5829 42.3426 23.4732 42.2422C23.3633 42.1414 23.3187 41.9882 23.3575 41.8444L23.8909 39.854L22.2698 37.7894C22.1779 37.6717 22.1584 37.5132 22.2202 37.3774C22.2815 37.2415 22.4141 37.1515 22.5622 37.1435L25.0118 37.009L26.4039 34.9237C26.4384 34.8715 26.4842 34.8294 26.5364 34.7992Z" fill="url(#paint16_linear)" fill-opacity="0.5"/>
<path d="M76.1183 39.5368L74.6851 39.1528C74.5634 39.1202 74.4644 39.0326 74.4176 38.9156L73.6479 36.9975L72.5656 38.6189C72.4958 38.7233 72.3807 38.7893 72.2554 38.7961L70.3723 38.8993L71.6426 40.5178C71.7205 40.6168 71.7469 40.7464 71.7142 40.8681L71.3276 42.3111L72.9436 41.726C73.0637 41.6824 73.1974 41.6989 73.3033 41.7706L74.8085 42.7875L74.6967 40.9205C74.689 40.7929 74.7427 40.6693 74.8416 40.5881L76.1183 39.5368ZM73.5364 35.7992C73.608 35.7578 73.6921 35.7388 73.7775 35.7477C73.9248 35.7632 74.0519 35.8586 74.1071 35.9965L75.0849 38.4325L77.075 38.966C77.2197 39.0048 77.3301 39.121 77.362 39.2673C77.3939 39.4135 77.3412 39.5653 77.2257 39.6601L75.5065 41.0757L75.6548 43.5477C75.6638 43.6999 75.579 43.8527 75.4539 43.9189C75.3217 43.9943 75.1584 43.988 75.0321 43.9027L73.0246 42.5465L70.8794 43.3232C70.7394 43.3741 70.5829 43.3426 70.4732 43.2422C70.3633 43.1414 70.3187 42.9882 70.3575 42.8444L70.8909 40.854L69.2698 38.7894C69.1779 38.6717 69.1584 38.5132 69.2202 38.3774C69.2815 38.2415 69.4141 38.1515 69.5622 38.1435L72.0118 38.009L73.4039 35.9237C73.4384 35.8715 73.4842 35.8294 73.5364 35.7992Z" fill="url(#paint17_linear)" fill-opacity="0.5"/>
<path d="M48.7599 11.5278L47.7107 10.4786C47.6216 10.3895 47.5796 10.2641 47.5976 10.1394L47.8901 8.09343L46.1421 8.95641C46.0294 9.01194 45.8967 9.01155 45.7849 8.95481L44.1024 8.10261L44.3932 10.1394C44.4112 10.2641 44.3693 10.3895 44.2802 10.4786L43.2238 11.535L44.9158 11.8362C45.0417 11.8586 45.1492 11.9397 45.2051 12.0548L46.0002 13.688L46.8369 12.0152C46.894 11.9009 47.0023 11.8206 47.1285 11.7999L48.7599 11.5278ZM48.3927 6.99991C48.4754 6.99991 48.5577 7.02548 48.6272 7.07582C48.7471 7.16292 48.8094 7.30915 48.7882 7.45618L48.4171 10.0547L49.8738 11.5118C49.9797 11.6177 50.0172 11.7735 49.9717 11.9161C49.9261 12.0588 49.8047 12.1638 49.6572 12.1882L47.4605 12.5546L46.353 14.7696C46.2847 14.9058 46.1349 14.9957 45.9934 14.9905C45.8412 14.9897 45.703 14.9026 45.6362 14.7656L44.5758 12.5873L42.3296 12.1874C42.183 12.1614 42.0631 12.056 42.0184 11.9141C41.9736 11.7719 42.0116 11.6169 42.117 11.5118L43.5742 10.0547L43.2026 7.45618C43.1818 7.30835 43.2442 7.16132 43.3656 7.07462C43.4867 6.98753 43.6465 6.97594 43.7787 7.04306L45.9675 8.15136L48.2157 7.04146C48.2716 7.0135 48.3324 6.99991 48.3927 6.99991Z" fill="url(#paint18_linear)" fill-opacity="0.5"/>
<path d="M63.4597 14.6664L62.1467 13.3534C62.0352 13.2419 61.9827 13.0849 62.0052 12.9289L62.3712 10.3685L60.1836 11.4485C60.0426 11.518 59.8766 11.5175 59.7366 11.4465L57.6311 10.38L57.9951 12.9289C58.0176 13.0849 57.9651 13.2419 57.8536 13.3534L56.5316 14.6754L58.6491 15.0524C58.8066 15.0804 58.9411 15.1818 59.0111 15.3258L60.0061 17.3698L61.0532 15.2763C61.1247 15.1334 61.2602 15.0329 61.4182 15.0069L63.4597 14.6664ZM63.0002 9.00004C63.1037 9.00004 63.2067 9.03204 63.2937 9.09504C63.4437 9.20403 63.5217 9.38703 63.4952 9.57102L63.0307 12.8229L64.8537 14.6464C64.9862 14.7789 65.0332 14.9739 64.9762 15.1524C64.9192 15.3308 64.7672 15.4623 64.5827 15.4928L61.8337 15.9513L60.4476 18.7232C60.3621 18.8937 60.1746 19.0062 59.9976 18.9997C59.8071 18.9987 59.6341 18.8897 59.5506 18.7182L58.2236 15.9923L55.4126 15.4918C55.2291 15.4593 55.0791 15.3273 55.0231 15.1499C54.9671 14.9719 55.0146 14.7779 55.1466 14.6464L56.9701 12.8229L56.5051 9.57102C56.4791 9.38603 56.5571 9.20203 56.7091 9.09354C56.8606 8.98454 57.0606 8.97004 57.2261 9.05404L59.9651 10.441L62.7787 9.05204C62.8487 9.01704 62.9247 9.00004 63.0002 9.00004Z" fill="url(#paint19_linear)" fill-opacity="0.5"/>
<path d="M36.8435 20.9329L35.0053 19.0948C34.8492 18.9387 34.7757 18.7189 34.8072 18.5005L35.3196 14.9159L32.2571 16.4279C32.0597 16.5251 31.8273 16.5244 31.6313 16.4251L28.6836 14.932L29.1932 18.5005C29.2247 18.7189 29.1512 18.9387 28.9951 19.0948L27.1443 20.9455L30.1088 21.4733C30.3293 21.5125 30.5176 21.6546 30.6156 21.8562L32.0086 24.7177L33.4744 21.7869C33.5745 21.5867 33.7642 21.446 33.9854 21.4096L36.8435 20.9329ZM36.2002 13.0001C36.3451 13.0001 36.4893 13.0449 36.6111 13.1331C36.8211 13.2856 36.9303 13.5418 36.8932 13.7994L36.2429 18.3521L38.7951 20.9049C38.9806 21.0904 39.0464 21.3634 38.9666 21.6133C38.8868 21.8632 38.674 22.0473 38.4157 22.09L34.5671 22.7319L32.6267 26.6125C32.507 26.8512 32.2445 27.0087 31.9967 26.9996C31.73 26.9982 31.4878 26.8456 31.3709 26.6055L29.5131 22.7893L25.5777 22.0886C25.3208 22.0431 25.1108 21.8583 25.0324 21.6098C24.954 21.3606 25.0205 21.089 25.2053 20.9049L27.7582 18.3521L27.1072 13.7994C27.0708 13.5404 27.18 13.2828 27.3928 13.131C27.6049 12.9784 27.8849 12.9581 28.1166 13.0757L31.9512 15.0174L35.8901 13.0729C35.9881 13.0239 36.0945 13.0001 36.2002 13.0001Z" fill="url(#paint20_linear)" fill-opacity="0.5"/>
<path d="M77.8435 24.9329L76.0053 23.0948C75.8492 22.9387 75.7757 22.7189 75.8072 22.5005L76.3196 18.9159L73.2571 20.4279C73.0597 20.5251 72.8273 20.5244 72.6313 20.4251L69.6836 18.932L70.1932 22.5005C70.2247 22.7189 70.1512 22.9387 69.9951 23.0948L68.1443 24.9455L71.1088 25.4733C71.3293 25.5125 71.5176 25.6546 71.6156 25.8562L73.0086 28.7177L74.4744 25.7869C74.5745 25.5867 74.7642 25.446 74.9854 25.4096L77.8435 24.9329ZM77.2002 17.0001C77.3451 17.0001 77.4893 17.0449 77.6111 17.1331C77.8211 17.2856 77.9303 17.5418 77.8932 17.7994L77.2429 22.3521L79.7951 24.9049C79.9806 25.0904 80.0464 25.3634 79.9666 25.6133C79.8868 25.8632 79.674 26.0473 79.4157 26.09L75.5671 26.7319L73.6267 30.6125C73.507 30.8512 73.2445 31.0087 72.9967 30.9996C72.73 30.9982 72.4878 30.8456 72.3709 30.6055L70.5131 26.7893L66.5777 26.0886C66.3208 26.0431 66.1108 25.8583 66.0324 25.6098C65.954 25.3606 66.0205 25.089 66.2053 24.9049L68.7582 22.3521L68.1072 17.7994C68.0708 17.5404 68.18 17.2828 68.3928 17.131C68.6049 16.9784 68.8849 16.9581 69.1166 17.0757L72.9512 19.0174L76.8901 17.0729C76.9881 17.0239 77.0945 17.0001 77.2002 17.0001Z" fill="url(#paint21_linear)" fill-opacity="0.5"/>
<defs>
<linearGradient id="paint0_linear" x1="15" y1="27.5" x2="82" y2="77.5" gradientUnits="userSpaceOnUse">
<stop stop-color="#010B26"/>
<stop offset="1" stop-color="#011C64"/>
</linearGradient>
<linearGradient id="paint1_linear" x1="16.1039" y1="11.4286" x2="87.4026" y2="88.5714" gradientUnits="userSpaceOnUse">
<stop stop-color="#FA39C4"/>
<stop offset="0.536458" stop-color="#8E00C0"/>
<stop offset="1" stop-color="#0D00A0"/>
</linearGradient>
<linearGradient id="paint2_linear" x1="50.552" y1="47.7956" x2="50.5869" y2="94.9333" gradientUnits="userSpaceOnUse">
<stop stop-color="white"/>
<stop offset="1" stop-color="#EFF1F4"/>
</linearGradient>
<linearGradient id="paint3_linear" x1="50.4613" y1="31.8899" x2="50.4613" y2="57.766" gradientUnits="userSpaceOnUse">
<stop stop-color="#C4CDD5"/>
<stop offset="1" stop-color="#F9FAFB"/>
</linearGradient>
<linearGradient id="paint4_linear" x1="50.5843" y1="51.7524" x2="50.6039" y2="54.2276" gradientUnits="userSpaceOnUse">
<stop stop-color="#DA2F3C"/>
<stop offset="1" stop-color="#ED435C"/>
</linearGradient>
<linearGradient id="paint5_linear" x1="49.9999" y1="45.5" x2="50.2794" y2="95" gradientUnits="userSpaceOnUse">
<stop stop-color="#F7019C"/>
<stop offset="1" stop-color="#5C0180"/>
</linearGradient>
<linearGradient id="paint6_linear" x1="50.5" y1="49.5" x2="50.5" y2="97.5" gradientUnits="userSpaceOnUse">
<stop stop-color="#011C64"/>
<stop offset="1" stop-color="#01081C"/>
</linearGradient>
<linearGradient id="paint7_linear" x1="12" y1="55" x2="17.5" y2="63.5" gradientUnits="userSpaceOnUse">
<stop stop-color="white"/>
<stop offset="1" stop-color="white" stop-opacity="0"/>
</linearGradient>
<linearGradient id="paint8_linear" x1="89" y1="56.5" x2="84" y2="63" gradientUnits="userSpaceOnUse">
<stop stop-color="white"/>
<stop offset="1" stop-color="white" stop-opacity="0"/>
</linearGradient>
<radialGradient id="paint9_radial" cx="0" cy="0" r="1" gradientUnits="userSpaceOnUse" gradientTransform="translate(51 72.2459) scale(13 29.9134)">
<stop stop-color="#FFE600"/>
<stop offset="0.5625" stop-color="#FFB904"/>
<stop offset="1" stop-color="#FFD600"/>
</radialGradient>
<linearGradient id="paint10_linear" x1="38.3594" y1="29.3125" x2="38.3594" y2="38.5625" gradientUnits="userSpaceOnUse">
<stop stop-color="#F900A6"/>
<stop offset="1" stop-color="#0400B5"/>
</linearGradient>
<linearGradient id="paint11_linear" x1="62.6406" y1="29.3125" x2="62.6406" y2="38.5625" gradientUnits="userSpaceOnUse">
<stop stop-color="#F900A6"/>
<stop offset="1" stop-color="#0400B5"/>
</linearGradient>
<linearGradient id="paint12_linear" x1="79.5456" y1="50.6369" x2="88.5" y2="37.5" gradientUnits="userSpaceOnUse">
<stop stop-color="white"/>
<stop offset="1" stop-color="white" stop-opacity="0"/>
</linearGradient>
<linearGradient id="paint13_linear" x1="76.9885" y1="33.4211" x2="86.8711" y2="28.6605" gradientUnits="userSpaceOnUse">
<stop stop-color="white"/>
<stop offset="1" stop-color="white" stop-opacity="0"/>
</linearGradient>
<linearGradient id="paint14_linear" x1="18.5803" y1="35.7169" x2="13.8197" y2="25.8342" gradientUnits="userSpaceOnUse">
<stop stop-color="white"/>
<stop offset="1" stop-color="white" stop-opacity="0"/>
</linearGradient>
<linearGradient id="paint15_linear" x1="19.3363" y1="51.4404" x2="9.5" y2="40.5" gradientUnits="userSpaceOnUse">
<stop stop-color="white"/>
<stop offset="1" stop-color="white" stop-opacity="0"/>
</linearGradient>
<linearGradient id="paint16_linear" x1="28.4556" y1="42.9181" x2="21.8507" y2="35.5718" gradientUnits="userSpaceOnUse">
<stop stop-color="white"/>
<stop offset="1" stop-color="white" stop-opacity="0"/>
</linearGradient>
<linearGradient id="paint17_linear" x1="75.4556" y1="43.9181" x2="68.8507" y2="36.5718" gradientUnits="userSpaceOnUse">
<stop stop-color="white"/>
<stop offset="1" stop-color="white" stop-opacity="0"/>
</linearGradient>
<linearGradient id="paint18_linear" x1="45.9953" y1="14.9907" x2="43.9484" y2="5.32614" gradientUnits="userSpaceOnUse">
<stop stop-color="white"/>
<stop offset="1" stop-color="white" stop-opacity="0"/>
</linearGradient>
<linearGradient id="paint19_linear" x1="60" y1="19" x2="57.4385" y2="6.90543" gradientUnits="userSpaceOnUse">
<stop stop-color="white"/>
<stop offset="1" stop-color="white" stop-opacity="0"/>
</linearGradient>
<linearGradient id="paint20_linear" x1="32" y1="27" x2="28.4138" y2="10.0676" gradientUnits="userSpaceOnUse">
<stop stop-color="white"/>
<stop offset="1" stop-color="white" stop-opacity="0"/>
</linearGradient>
<linearGradient id="paint21_linear" x1="73" y1="31" x2="69.4138" y2="14.0676" gradientUnits="userSpaceOnUse">
<stop stop-color="white"/>
<stop offset="1" stop-color="white" stop-opacity="0"/>
</linearGradient>
</defs>
</svg>
