<svg width="350" height="240" viewBox="0 0 350 240" fill="none" xmlns="http://www.w3.org/2000/svg">
<g filter="url(#filter0_d)">
<rect x="13" y="15" width="324" height="209" rx="5" fill="#F4F6F8"/>
</g>
<path d="M33.8984 47.0547C34.0469 49 35.6953 50.2656 38.0859 50.2656C40.6641 50.2656 42.2969 48.9453 42.2969 46.875C42.2969 45.2188 41.3594 44.3125 39.0234 43.7266L37.8438 43.4141C36.2891 43.0156 35.6719 42.5078 35.6719 41.625C35.6719 40.4844 36.6641 39.7344 38.1641 39.7344C39.5703 39.7344 40.5234 40.4219 40.7188 41.5781H42.1328C42.0156 39.7578 40.3906 38.4609 38.2109 38.4609C35.8281 38.4609 34.2266 39.7578 34.2266 41.6719C34.2266 43.2734 35.1094 44.1953 37.1484 44.7109L38.5938 45.0859C40.1484 45.4766 40.8516 46.0859 40.8516 47.0469C40.8516 48.1641 39.7344 48.9844 38.2188 48.9844C36.6172 48.9844 35.4922 48.2344 35.3203 47.0547H33.8984ZM46.0469 50V38.7266H44.6406V50H46.0469ZM55.7656 48.7344H50.3281V38.7266H48.9219V50H55.7656V48.7344ZM61.5703 50L65.7266 38.7266H64.25L60.9375 48.1797H60.8125L57.5 38.7266H56.0234L60.1797 50H61.5703ZM74.6875 48.7344H69.1094V44.8594H74.3984V43.6094H69.1094V39.9922H74.6875V38.7266H67.7031V50H74.6875V48.7344ZM78.6406 39.9766H81.3516C82.8047 39.9766 83.6797 40.7812 83.6797 42.1328C83.6797 43.5156 82.8594 44.2891 81.4141 44.2891H78.6406V39.9766ZM78.6406 45.5391H81.4141L83.8281 50H85.4766L82.8672 45.3203C84.2812 44.875 85.1328 43.6562 85.1328 42.0859C85.1328 40.0547 83.7109 38.7266 81.5391 38.7266H77.2344V50H78.6406V45.5391Z" fill="#637381"/>
<path d="M69.8438 77.9766H72.5547C74.0078 77.9766 74.8828 78.7812 74.8828 80.1328C74.8828 81.5156 74.0625 82.2891 72.6172 82.2891H69.8438V77.9766ZM69.8438 83.5391H72.6172L75.0312 88H76.6797L74.0703 83.3203C75.4844 82.875 76.3359 81.6562 76.3359 80.0859C76.3359 78.0547 74.9141 76.7266 72.7422 76.7266H68.4375V88H69.8438V83.5391ZM81.8438 80.6172C83.1797 80.6172 84.0703 81.6016 84.1016 83.0938H79.4609C79.5625 81.6016 80.5 80.6172 81.8438 80.6172ZM84.0625 85.8203C83.7109 86.5625 82.9766 86.9609 81.8906 86.9609C80.4609 86.9609 79.5312 85.9062 79.4609 84.2422V84.1797H85.5156V83.6641C85.5156 81.0469 84.1328 79.4297 81.8594 79.4297C79.5469 79.4297 78.0625 81.1484 78.0625 83.7969C78.0625 86.4609 79.5234 88.1484 81.8594 88.1484C83.7031 88.1484 85.0156 87.2578 85.4062 85.8203H84.0625ZM87.625 88H88.9688V82.7812C88.9688 81.5938 89.8203 80.6406 90.9219 80.6406C91.9844 80.6406 92.6797 81.2812 92.6797 82.2812V88H94.0234V82.5859C94.0234 81.5156 94.8047 80.6406 95.9766 80.6406C97.1641 80.6406 97.75 81.25 97.75 82.4922V88H99.0938V82.1797C99.0938 80.4141 98.1328 79.4297 96.4141 79.4297C95.25 79.4297 94.2891 80.0156 93.8359 80.9062H93.7109C93.3203 80.0312 92.5234 79.4297 91.3828 79.4297C90.2578 79.4297 89.4141 79.9688 89.0312 80.9062H88.9062V79.5781H87.625V88ZM105.008 88.1484C107.406 88.1484 108.891 86.4922 108.891 83.7891C108.891 81.0781 107.406 79.4297 105.008 79.4297C102.609 79.4297 101.125 81.0781 101.125 83.7891C101.125 86.4922 102.609 88.1484 105.008 88.1484ZM105.008 86.9375C103.414 86.9375 102.516 85.7812 102.516 83.7891C102.516 81.7891 103.414 80.6406 105.008 80.6406C106.602 80.6406 107.5 81.7891 107.5 83.7891C107.5 85.7812 106.602 86.9375 105.008 86.9375ZM117.562 79.5781H116.125L113.82 86.5156H113.695L111.391 79.5781H109.953L113.07 88H114.445L117.562 79.5781ZM122.406 80.6172C123.742 80.6172 124.633 81.6016 124.664 83.0938H120.023C120.125 81.6016 121.062 80.6172 122.406 80.6172ZM124.625 85.8203C124.273 86.5625 123.539 86.9609 122.453 86.9609C121.023 86.9609 120.094 85.9062 120.023 84.2422V84.1797H126.078V83.6641C126.078 81.0469 124.695 79.4297 122.422 79.4297C120.109 79.4297 118.625 81.1484 118.625 83.7969C118.625 86.4609 120.086 88.1484 122.422 88.1484C124.266 88.1484 125.578 87.2578 125.969 85.8203H124.625ZM136.891 88.1484C139.023 88.1484 140.422 86.4219 140.422 83.7891C140.422 81.1406 139.031 79.4297 136.891 79.4297C135.734 79.4297 134.711 80 134.25 80.9062H134.125V76.2344H132.781V88H134.062V86.6562H134.188C134.719 87.5938 135.719 88.1484 136.891 88.1484ZM136.578 80.6406C138.117 80.6406 139.031 81.8203 139.031 83.7891C139.031 85.7578 138.117 86.9375 136.578 86.9375C135.047 86.9375 134.094 85.7344 134.094 83.7891C134.094 81.8438 135.047 80.6406 136.578 80.6406ZM142.531 88H143.875V82.7812C143.875 81.5938 144.805 80.7344 146.086 80.7344C146.352 80.7344 146.836 80.7812 146.945 80.8125V79.4688C146.773 79.4453 146.492 79.4297 146.273 79.4297C145.156 79.4297 144.188 80.0078 143.938 80.8281H143.812V79.5781H142.531V88ZM151.219 86.9688C150.242 86.9688 149.516 86.4688 149.516 85.6094C149.516 84.7656 150.078 84.3203 151.359 84.2344L153.625 84.0859V84.8594C153.625 86.0625 152.602 86.9688 151.219 86.9688ZM150.969 88.1484C152.094 88.1484 153.016 87.6562 153.562 86.7578H153.688V88H154.969V82.2344C154.969 80.4844 153.82 79.4297 151.766 79.4297C149.969 79.4297 148.641 80.3203 148.461 81.6719H149.82C150.008 81.0078 150.711 80.625 151.719 80.625C152.977 80.625 153.625 81.1953 153.625 82.2344V83L151.195 83.1484C149.234 83.2656 148.125 84.1328 148.125 85.6406C148.125 87.1797 149.336 88.1484 150.969 88.1484ZM157.453 88H158.797V83.0156C158.797 81.5391 159.664 80.6406 161.008 80.6406C162.352 80.6406 162.992 81.3594 162.992 82.875V88H164.336V82.5469C164.336 80.5469 163.281 79.4297 161.391 79.4297C160.102 79.4297 159.281 79.9766 158.859 80.9062H158.734V79.5781H157.453V88ZM169.914 88.1484C171.078 88.1484 172.078 87.5938 172.609 86.6562H172.734V88H174.016V76.2344H172.672V80.9062H172.555C172.078 79.9844 171.086 79.4297 169.914 79.4297C167.773 79.4297 166.375 81.1484 166.375 83.7891C166.375 86.4375 167.758 88.1484 169.914 88.1484ZM170.227 80.6406C171.75 80.6406 172.703 81.8594 172.703 83.7891C172.703 85.7344 171.758 86.9375 170.227 86.9375C168.688 86.9375 167.766 85.7578 167.766 83.7891C167.766 81.8281 168.695 80.6406 170.227 80.6406ZM176.656 88H178V79.5781H176.656V88ZM177.328 77.9531C177.844 77.9531 178.266 77.5312 178.266 77.0156C178.266 76.5 177.844 76.0781 177.328 76.0781C176.812 76.0781 176.391 76.5 176.391 77.0156C176.391 77.5312 176.812 77.9531 177.328 77.9531ZM180.562 88H181.906V83.0156C181.906 81.5391 182.773 80.6406 184.117 80.6406C185.461 80.6406 186.102 81.3594 186.102 82.875V88H187.445V82.5469C187.445 80.5469 186.391 79.4297 184.5 79.4297C183.211 79.4297 182.391 79.9766 181.969 80.9062H181.844V79.5781H180.562V88ZM193.312 86.6875C191.75 86.6875 190.875 85.5 190.875 83.6641C190.875 81.8281 191.75 80.6406 193.312 80.6406C194.867 80.6406 195.812 81.8281 195.812 83.6641C195.812 85.5 194.875 86.6875 193.312 86.6875ZM193.375 91.2344C195.672 91.2344 197.125 90.0312 197.125 88.1484V79.5781H195.844V80.9141H195.719C195.234 80.0078 194.195 79.4297 193.016 79.4297C190.852 79.4297 189.484 81.1406 189.484 83.6641C189.484 86.1875 190.836 87.875 193.016 87.875C194.172 87.875 195.125 87.3516 195.656 86.4219H195.781V88.0781C195.781 89.3203 194.883 90.0625 193.375 90.0625C192.164 90.0625 191.414 89.6172 191.266 88.9297H189.844C190.047 90.3203 191.344 91.2344 193.375 91.2344Z" fill="#212B36"/>
<path d="M41.6719 155.055L41.7188 155.062C43.2656 155.438 43.6875 155.984 43.6875 156.844C43.6875 157.742 43.125 158.453 41.6719 158.562V155.055ZM40.7344 153.5C39.3906 153.164 38.9219 152.578 38.9219 151.812C38.9219 151.055 39.5469 150.336 40.7344 150.18V153.5ZM41.6719 153.727V150.172C42.7266 150.305 43.4766 150.922 43.5781 151.977H44.9375C44.8828 150.25 43.4766 149.109 41.6719 148.945V147.594H40.7344V148.953C38.8828 149.117 37.5625 150.227 37.5625 151.906C37.5625 153.445 38.6094 154.312 40.5547 154.781L40.7344 154.828V158.555C39.3828 158.406 38.7812 157.664 38.6406 156.688H37.2812C37.3359 158.508 38.875 159.609 40.7344 159.773V161.133H41.6719V159.781C43.5156 159.641 45.0469 158.617 45.0469 156.734C45.0469 155.094 43.9219 154.266 41.9141 153.781L41.6719 153.727ZM52.7812 160H54.1562V157.664H55.7578V156.406H54.1562V148.727H52.1172C50.5391 151.078 48.8125 153.828 47.2891 156.383V157.664H52.7812V160ZM48.7266 156.32C49.9531 154.25 51.4297 151.922 52.6953 150.031H52.7891V156.414H48.7266V156.32ZM61.5312 160.258C64.2891 160.258 65.8672 158.039 65.8672 154.164C65.8672 150.328 64.0547 148.461 61.625 148.461C59.3125 148.461 57.6719 150.078 57.6719 152.344C57.6719 154.531 59.2266 156.117 61.375 156.117C62.7188 156.117 63.8203 155.477 64.375 154.383H64.5C64.4219 157.383 63.3828 159.008 61.5469 159.008C60.4375 159.008 59.5781 158.391 59.2812 157.375H57.8359C58.1875 159.148 59.6172 160.258 61.5312 160.258ZM61.625 154.898C60.1328 154.898 59.0938 153.836 59.0938 152.297C59.0938 150.82 60.1953 149.695 61.6406 149.695C63.0859 149.695 64.1875 150.836 64.1875 152.344C64.1875 153.836 63.1172 154.898 61.625 154.898ZM68.625 160.078C69.1875 160.078 69.6406 159.617 69.6406 159.062C69.6406 158.5 69.1875 158.047 68.625 158.047C68.0703 158.047 67.6094 158.5 67.6094 159.062C67.6094 159.617 68.0703 160.078 68.625 160.078ZM75.2344 160.258C77.9922 160.258 79.5703 158.039 79.5703 154.164C79.5703 150.328 77.7578 148.461 75.3281 148.461C73.0156 148.461 71.375 150.078 71.375 152.344C71.375 154.531 72.9297 156.117 75.0781 156.117C76.4219 156.117 77.5234 155.477 78.0781 154.383H78.2031C78.125 157.383 77.0859 159.008 75.25 159.008C74.1406 159.008 73.2812 158.391 72.9844 157.375H71.5391C71.8906 159.148 73.3203 160.258 75.2344 160.258ZM75.3281 154.898C73.8359 154.898 72.7969 153.836 72.7969 152.297C72.7969 150.82 73.8984 149.695 75.3438 149.695C76.7891 149.695 77.8906 150.836 77.8906 152.344C77.8906 153.836 76.8203 154.898 75.3281 154.898ZM85.4375 160.258C88.1953 160.258 89.7734 158.039 89.7734 154.164C89.7734 150.328 87.9609 148.461 85.5312 148.461C83.2188 148.461 81.5781 150.078 81.5781 152.344C81.5781 154.531 83.1328 156.117 85.2812 156.117C86.625 156.117 87.7266 155.477 88.2812 154.383H88.4062C88.3281 157.383 87.2891 159.008 85.4531 159.008C84.3438 159.008 83.4844 158.391 83.1875 157.375H81.7422C82.0938 159.148 83.5234 160.258 85.4375 160.258ZM85.5312 154.898C84.0391 154.898 83 153.836 83 152.297C83 150.82 84.1016 149.695 85.5469 149.695C86.9922 149.695 88.0938 150.836 88.0938 152.344C88.0938 153.836 87.0234 154.898 85.5312 154.898ZM91.9844 162.398L96.0469 148.234H94.9062L90.8438 162.398H91.9844ZM97.375 160H98.7188V154.781C98.7188 153.594 99.5703 152.641 100.672 152.641C101.734 152.641 102.43 153.281 102.43 154.281V160H103.773V154.586C103.773 153.516 104.555 152.641 105.727 152.641C106.914 152.641 107.5 153.25 107.5 154.492V160H108.844V154.18C108.844 152.414 107.883 151.43 106.164 151.43C105 151.43 104.039 152.016 103.586 152.906H103.461C103.07 152.031 102.273 151.43 101.133 151.43C100.008 151.43 99.1641 151.969 98.7812 152.906H98.6562V151.578H97.375V160ZM114.758 160.148C117.156 160.148 118.641 158.492 118.641 155.789C118.641 153.078 117.156 151.43 114.758 151.43C112.359 151.43 110.875 153.078 110.875 155.789C110.875 158.492 112.359 160.148 114.758 160.148ZM114.758 158.938C113.164 158.938 112.266 157.781 112.266 155.789C112.266 153.789 113.164 152.641 114.758 152.641C116.352 152.641 117.25 153.789 117.25 155.789C117.25 157.781 116.352 158.938 114.758 158.938ZM120.75 160H122.094V155.016C122.094 153.539 122.961 152.641 124.305 152.641C125.648 152.641 126.289 153.359 126.289 154.875V160H127.633V154.547C127.633 152.547 126.578 151.43 124.688 151.43C123.398 151.43 122.578 151.977 122.156 152.906H122.031V151.578H120.75V160ZM130.656 149.398V151.578H129.297V152.703H130.656V157.812C130.656 159.422 131.352 160.062 133.086 160.062C133.352 160.062 133.609 160.031 133.875 159.984V158.852C133.625 158.875 133.492 158.883 133.25 158.883C132.375 158.883 132 158.461 132 157.469V152.703H133.875V151.578H132V149.398H130.656ZM135.984 160H137.328V155.016C137.328 153.594 138.156 152.641 139.664 152.641C140.938 152.641 141.609 153.383 141.609 154.875V160H142.953V154.547C142.953 152.57 141.828 151.43 140.047 151.43C138.758 151.43 137.875 151.977 137.453 152.906H137.328V148.234H135.984V160Z" fill="#637381"/>
<path d="M41.1104 188.587C42.958 189.038 43.5381 189.597 43.5381 190.617C43.5381 191.681 42.7861 192.443 41.1104 192.594V188.587ZM39.8535 185.762C38.2744 185.343 37.6406 184.72 37.6406 183.796C37.6406 182.883 38.4033 182.099 39.8535 181.916V185.762ZM41.1104 186.052V181.927C42.3994 182.099 43.291 182.818 43.4414 184.075H45.9443C45.8477 181.594 43.9141 179.95 41.1104 179.725V177.941H39.8535V179.725C37.0498 179.929 35.041 181.54 35.041 184.032C35.041 186.288 36.5557 187.534 39.3057 188.168L39.8535 188.297V192.583C38.2529 192.411 37.458 191.573 37.2754 190.402H34.7725C34.8477 193.023 37.0068 194.581 39.8535 194.774V196.536H41.1104V194.774C43.9678 194.57 46.127 193.002 46.127 190.349C46.127 188.018 44.5908 186.847 41.7119 186.191L41.1104 186.052ZM53.0557 188.104H55C56.9121 188.104 58.0723 189.049 58.0723 190.574C58.0723 192.057 56.8154 193.056 55.0322 193.056C53.2383 193.056 52.0244 192.143 51.9062 190.714H49.2529C49.3818 193.539 51.6914 195.387 55.0645 195.387C58.416 195.387 60.9082 193.453 60.9082 190.778C60.9082 188.673 59.5869 187.309 57.4814 186.986V186.804C59.125 186.374 60.2959 185.128 60.3066 183.259C60.3174 181.024 58.459 179.112 55.1611 179.112C51.7988 179.112 49.6934 181.014 49.5537 183.753H52.1533C52.2715 182.228 53.3242 181.368 55.0107 181.368C56.6543 181.368 57.6318 182.367 57.6318 183.635C57.6318 185.021 56.5361 185.987 54.9463 185.987H53.0557V188.104ZM69.2549 195.376C73.1973 195.376 75.5391 192.293 75.5391 187.072C75.5391 181.948 73.0469 179.112 69.3408 179.112C65.9678 179.112 63.583 181.379 63.583 184.559C63.583 187.534 65.7314 189.704 68.6855 189.704C70.501 189.704 71.9727 188.866 72.7031 187.395H72.8857C72.8535 190.982 71.5537 193.056 69.2871 193.056C67.9551 193.056 66.8916 192.336 66.5586 191.176H63.7979C64.249 193.711 66.4189 195.376 69.2549 195.376ZM69.3516 187.513C67.5469 187.513 66.3008 186.267 66.3008 184.473C66.3008 182.743 67.6113 181.422 69.3623 181.422C71.1133 181.422 72.4238 182.765 72.4238 184.526C72.4238 186.256 71.1455 187.513 69.3516 187.513ZM79.4814 195.226C80.502 195.226 81.2002 194.495 81.2002 193.528C81.2002 192.551 80.502 191.831 79.4814 191.831C78.4717 191.831 77.7627 192.551 77.7627 193.528C77.7627 194.495 78.4717 195.226 79.4814 195.226ZM89.2354 195.376C93.1777 195.376 95.5195 192.293 95.5195 187.072C95.5195 181.948 93.0273 179.112 89.3213 179.112C85.9482 179.112 83.5635 181.379 83.5635 184.559C83.5635 187.534 85.7119 189.704 88.666 189.704C90.4814 189.704 91.9531 188.866 92.6836 187.395H92.8662C92.834 190.982 91.5342 193.056 89.2676 193.056C87.9355 193.056 86.8721 192.336 86.5391 191.176H83.7783C84.2295 193.711 86.3994 195.376 89.2354 195.376ZM89.332 187.513C87.5273 187.513 86.2812 186.267 86.2812 184.473C86.2812 182.743 87.5918 181.422 89.3428 181.422C91.0938 181.422 92.4043 182.765 92.4043 184.526C92.4043 186.256 91.126 187.513 89.332 187.513ZM103.909 195.376C107.852 195.376 110.193 192.293 110.193 187.072C110.193 181.948 107.701 179.112 103.995 179.112C100.622 179.112 98.2373 181.379 98.2373 184.559C98.2373 187.534 100.386 189.704 103.34 189.704C105.155 189.704 106.627 188.866 107.357 187.395H107.54C107.508 190.982 106.208 193.056 103.941 193.056C102.609 193.056 101.546 192.336 101.213 191.176H98.4521C98.9033 193.711 101.073 195.376 103.909 195.376ZM104.006 187.513C102.201 187.513 100.955 186.267 100.955 184.473C100.955 182.743 102.266 181.422 104.017 181.422C105.768 181.422 107.078 182.765 107.078 184.526C107.078 186.256 105.8 187.513 104.006 187.513ZM114.007 198.319L119.571 178.704H117.176L111.601 198.319H114.007ZM121.279 195H123.943V187.856C123.943 186.417 124.921 185.332 126.242 185.332C127.553 185.332 128.369 186.116 128.369 187.405V195H130.958V187.685C130.958 186.342 131.871 185.332 133.257 185.332C134.686 185.332 135.405 186.084 135.405 187.599V195H138.059V186.922C138.059 184.483 136.641 183.012 134.288 183.012C132.655 183.012 131.302 183.86 130.722 185.149H130.539C130.045 183.828 128.917 183.012 127.295 183.012C125.737 183.012 124.534 183.807 124.029 185.149H123.847V183.248H121.279V195ZM146.287 195.236C149.8 195.236 151.938 192.938 151.938 189.124C151.938 185.321 149.789 183.012 146.287 183.012C142.796 183.012 140.637 185.332 140.637 189.124C140.637 192.938 142.764 195.236 146.287 195.236ZM146.287 193.002C144.429 193.002 143.365 191.584 143.365 189.124C143.365 186.675 144.429 185.246 146.287 185.246C148.135 185.246 149.198 186.675 149.198 189.124C149.198 191.584 148.146 193.002 146.287 193.002ZM154.623 195H157.287V188.157C157.287 186.428 158.286 185.332 159.876 185.332C161.498 185.332 162.25 186.234 162.25 188.028V195H164.914V187.395C164.914 184.591 163.485 183.012 160.864 183.012C159.113 183.012 157.932 183.817 157.373 185.128H157.19V183.248H154.623V195ZM168.921 180.369V183.323H167.062V185.45H168.921V191.863C168.921 194.141 169.995 195.054 172.691 195.054C173.207 195.054 173.701 195 174.088 194.925V192.841C173.766 192.873 173.562 192.895 173.186 192.895C172.068 192.895 171.574 192.379 171.574 191.219V185.45H174.088V183.323H171.574V180.369H168.921ZM176.859 195H179.523V188.179C179.523 186.492 180.501 185.354 182.252 185.354C183.799 185.354 184.615 186.267 184.615 188.05V195H187.279V187.416C187.279 184.623 185.754 183.033 183.24 183.033C181.489 183.033 180.232 183.828 179.674 185.149H179.48V178.704H176.859V195Z" fill="#212B36"/>
<path d="M41.9435 88.6962C41.9433 88.696 41.9431 88.6958 41.9429 88.6956L35.9439 82.837C35.352 82.259 35.352 81.3187 35.9439 80.7407C36.5292 80.1692 37.4713 80.1692 38.0566 80.7407L42.9153 85.4857L53.8652 73.0116C53.8652 73.0116 53.8653 73.0116 53.8653 73.0116C54.4053 72.3963 55.346 72.3274 55.9713 72.8519L41.9435 88.6962ZM41.9435 88.6962C42.226 88.9733 42.6074 89.125 43.0002 89.125L43.0024 89.125C43.0133 89.125 43.0371 89.125 43.065 89.1233C43.4742 89.1055 43.8633 88.9236 44.1353 88.6126C44.1354 88.6125 44.1355 88.6124 44.1356 88.6123L56.1344 74.9412L41.9435 88.6962Z" fill="#1BDC80" stroke="#1BDC80"/>
<path d="M65.1875 112.906H66.5469C66.5469 111.57 67.4453 110.688 68.7969 110.688C70.125 110.688 70.9297 111.578 70.9297 112.773C70.9297 113.766 70.5078 114.352 69.0703 115.906L65.2578 120.031V121H72.5547V119.734H67.2109V119.609L69.7734 116.961C71.8047 114.859 72.3672 113.922 72.3672 112.625C72.3672 110.797 70.8594 109.461 68.8906 109.461C66.7344 109.461 65.1875 110.898 65.1875 112.906ZM75.5547 123.867L76.7812 119.422H75.2891L74.5469 123.867H75.5547ZM82.6094 121.266C85.1406 121.266 86.5938 119.125 86.5938 115.383C86.5938 111.648 85.1172 109.461 82.6094 109.461C80.0859 109.461 78.6094 111.641 78.6094 115.359C78.6094 119.109 80.0703 121.266 82.6094 121.266ZM82.6094 120.039C80.9453 120.039 80.0234 118.375 80.0234 115.359C80.0234 112.383 80.9609 110.695 82.6094 110.695C84.2578 110.695 85.1797 112.367 85.1797 115.359C85.1797 118.383 84.2734 120.039 82.6094 120.039ZM92.6875 121.266C95.2188 121.266 96.6719 119.125 96.6719 115.383C96.6719 111.648 95.1953 109.461 92.6875 109.461C90.1641 109.461 88.6875 111.641 88.6875 115.359C88.6875 119.109 90.1484 121.266 92.6875 121.266ZM92.6875 120.039C91.0234 120.039 90.1016 118.375 90.1016 115.359C90.1016 112.383 91.0391 110.695 92.6875 110.695C94.3359 110.695 95.2578 112.367 95.2578 115.359C95.2578 118.383 94.3516 120.039 92.6875 120.039ZM102.766 121.266C105.297 121.266 106.75 119.125 106.75 115.383C106.75 111.648 105.273 109.461 102.766 109.461C100.242 109.461 98.7656 111.641 98.7656 115.359C98.7656 119.109 100.227 121.266 102.766 121.266ZM102.766 120.039C101.102 120.039 100.18 118.375 100.18 115.359C100.18 112.383 101.117 110.695 102.766 110.695C104.414 110.695 105.336 112.367 105.336 115.359C105.336 118.383 104.43 120.039 102.766 120.039ZM113.578 121H114.922V115.781C114.922 114.594 115.773 113.641 116.875 113.641C117.938 113.641 118.633 114.281 118.633 115.281V121H119.977V115.586C119.977 114.516 120.758 113.641 121.93 113.641C123.117 113.641 123.703 114.25 123.703 115.492V121H125.047V115.18C125.047 113.414 124.086 112.43 122.367 112.43C121.203 112.43 120.242 113.016 119.789 113.906H119.664C119.273 113.031 118.477 112.43 117.336 112.43C116.211 112.43 115.367 112.969 114.984 113.906H114.859V112.578H113.578V121ZM130.961 121.148C133.359 121.148 134.844 119.492 134.844 116.789C134.844 114.078 133.359 112.43 130.961 112.43C128.562 112.43 127.078 114.078 127.078 116.789C127.078 119.492 128.562 121.148 130.961 121.148ZM130.961 119.938C129.367 119.938 128.469 118.781 128.469 116.789C128.469 114.789 129.367 113.641 130.961 113.641C132.555 113.641 133.453 114.789 133.453 116.789C133.453 118.781 132.555 119.938 130.961 119.938ZM136.953 121H138.297V116.016C138.297 114.539 139.164 113.641 140.508 113.641C141.852 113.641 142.492 114.359 142.492 115.875V121H143.836V115.547C143.836 113.547 142.781 112.43 140.891 112.43C139.602 112.43 138.781 112.977 138.359 113.906H138.234V112.578H136.953V121ZM146.859 110.398V112.578H145.5V113.703H146.859V118.812C146.859 120.422 147.555 121.062 149.289 121.062C149.555 121.062 149.812 121.031 150.078 120.984V119.852C149.828 119.875 149.695 119.883 149.453 119.883C148.578 119.883 148.203 119.461 148.203 118.469V113.703H150.078V112.578H148.203V110.398H146.859ZM152.188 121H153.531V116.016C153.531 114.594 154.359 113.641 155.867 113.641C157.141 113.641 157.812 114.383 157.812 115.875V121H159.156V115.547C159.156 113.57 158.031 112.43 156.25 112.43C154.961 112.43 154.078 112.977 153.656 113.906H153.531V109.234H152.188V121ZM161.688 121H163.031V109.234H161.688V121ZM166.359 124.047C167.852 124.047 168.523 123.469 169.242 121.516L172.531 112.578H171.102L168.797 119.508H168.672L166.359 112.578H164.906L168.023 121.008L167.867 121.508C167.516 122.523 167.094 122.891 166.32 122.891C166.133 122.891 165.922 122.883 165.758 122.852V124C165.945 124.031 166.18 124.047 166.359 124.047ZM179.406 121H180.75V113.703H182.68V112.578H180.75V111.68C180.75 110.758 181.156 110.289 182.125 110.289C182.367 110.289 182.594 110.297 182.758 110.328V109.234C182.477 109.18 182.18 109.156 181.852 109.156C180.25 109.156 179.406 109.961 179.406 111.641V112.578H178.008V113.703H179.406V121ZM191.453 112.578H190.109V117.562C190.109 119.039 189.297 119.922 187.812 119.922C186.469 119.922 185.906 119.219 185.906 117.703V112.578H184.562V118.031C184.562 120.023 185.547 121.148 187.438 121.148C188.727 121.148 189.625 120.617 190.047 119.68H190.172V121H191.453V112.578ZM193.984 121H195.328V116.016C195.328 114.539 196.195 113.641 197.539 113.641C198.883 113.641 199.523 114.359 199.523 115.875V121H200.867V115.547C200.867 113.547 199.812 112.43 197.922 112.43C196.633 112.43 195.812 112.977 195.391 113.906H195.266V112.578H193.984V121ZM203.328 121H204.672V116.016C204.672 114.539 205.539 113.641 206.883 113.641C208.227 113.641 208.867 114.359 208.867 115.875V121H210.211V115.547C210.211 113.547 209.156 112.43 207.266 112.43C205.977 112.43 205.156 112.977 204.734 113.906H204.609V112.578H203.328V121ZM216.031 113.617C217.367 113.617 218.258 114.602 218.289 116.094H213.648C213.75 114.602 214.688 113.617 216.031 113.617ZM218.25 118.82C217.898 119.562 217.164 119.961 216.078 119.961C214.648 119.961 213.719 118.906 213.648 117.242V117.18H219.703V116.664C219.703 114.047 218.32 112.43 216.047 112.43C213.734 112.43 212.25 114.148 212.25 116.797C212.25 119.461 213.711 121.148 216.047 121.148C217.891 121.148 219.203 120.258 219.594 118.82H218.25ZM221.891 121H223.234V109.234H221.891V121ZM237.234 112.578H235.797L233.492 119.516H233.367L231.062 112.578H229.625L232.742 121H234.117L237.234 112.578ZM239.062 121H240.406V112.578H239.062V121ZM239.734 110.953C240.25 110.953 240.672 110.531 240.672 110.016C240.672 109.5 240.25 109.078 239.734 109.078C239.219 109.078 238.797 109.5 238.797 110.016C238.797 110.531 239.219 110.953 239.734 110.953ZM246.328 113.617C247.664 113.617 248.555 114.602 248.586 116.094H243.945C244.047 114.602 244.984 113.617 246.328 113.617ZM248.547 118.82C248.195 119.562 247.461 119.961 246.375 119.961C244.945 119.961 244.016 118.906 243.945 117.242V117.18H250V116.664C250 114.047 248.617 112.43 246.344 112.43C244.031 112.43 242.547 114.148 242.547 116.797C242.547 119.461 244.008 121.148 246.344 121.148C248.188 121.148 249.5 120.258 249.891 118.82H248.547ZM262.703 112.578H261.352L259.695 119.312H259.57L257.688 112.578H256.398L254.516 119.312H254.391L252.734 112.578H251.375L253.734 121H255.094L256.969 114.484H257.094L258.977 121H260.344L262.703 112.578ZM264.07 114.883C264.07 116.102 264.789 116.781 266.367 117.164L267.812 117.516C268.711 117.734 269.148 118.125 269.148 118.703C269.148 119.477 268.336 120.016 267.203 120.016C266.125 120.016 265.453 119.562 265.227 118.852H263.844C263.992 120.25 265.281 121.148 267.156 121.148C269.07 121.148 270.531 120.109 270.531 118.602C270.531 117.391 269.766 116.703 268.18 116.32L266.883 116.008C265.891 115.766 265.422 115.406 265.422 114.828C265.422 114.078 266.203 113.57 267.203 113.57C268.219 113.57 268.875 114.016 269.055 114.688H270.383C270.203 113.305 268.977 112.43 267.211 112.43C265.422 112.43 264.07 113.484 264.07 114.883Z" fill="#212B36"/>
<path d="M38.9435 123.696C38.9433 123.696 38.9431 123.696 38.9429 123.696L32.9439 117.837C32.352 117.259 32.352 116.319 32.9439 115.741C33.5292 115.169 34.4713 115.169 35.0566 115.741L39.9153 120.486L50.8652 108.012C50.8652 108.012 50.8653 108.012 50.8653 108.012C51.4053 107.396 52.346 107.327 52.9713 107.852L38.9435 123.696ZM38.9435 123.696C39.226 123.973 39.6074 124.125 40.0002 124.125L40.0024 124.125C40.0133 124.125 40.0371 124.125 40.065 124.123C40.4742 124.106 40.8633 123.924 41.1353 123.613C41.1354 123.612 41.1355 123.612 41.1356 123.612L53.1344 109.941L38.9435 123.696Z" fill="#1BDC80" stroke="#1BDC80"/>
<line x1="33" y1="155.5" x2="142" y2="155.5" stroke="#637381"/>
<rect x="198" y="178" width="113" height="20" rx="2" fill="url(#paint0_linear)"/>
<path d="M206.447 189.592C206.482 191.221 207.83 192.229 209.969 192.229C212.184 192.229 213.531 191.162 213.531 189.398C213.531 188.057 212.781 187.301 211.111 186.979L210.021 186.768C209.131 186.592 208.756 186.322 208.756 185.859C208.756 185.297 209.254 184.939 210.01 184.939C210.766 184.939 211.334 185.355 211.381 185.953H213.367C213.332 184.389 211.961 183.316 209.98 183.316C207.941 183.316 206.617 184.4 206.617 186.053C206.617 187.383 207.414 188.227 208.961 188.52L210.074 188.742C211.041 188.936 211.41 189.188 211.41 189.656C211.41 190.213 210.859 190.6 210.057 190.6C209.166 190.6 208.551 190.207 208.498 189.592H206.447ZM215.16 183.545V192H217.311V189.521H218.734C220.615 189.521 221.91 188.344 221.91 186.545C221.91 184.729 220.68 183.545 218.863 183.545H215.16ZM217.311 185.197H218.295C219.203 185.197 219.736 185.66 219.736 186.551C219.736 187.43 219.197 187.898 218.283 187.898H217.311V185.197ZM229.287 190.271H225.643V188.543H229.07V186.961H225.643V185.273H229.287V183.545H223.492V192H229.287V190.271ZM234.812 192.229C236.98 192.229 238.551 190.863 238.621 188.93H236.559C236.436 189.838 235.744 190.436 234.818 190.436C233.635 190.436 232.914 189.416 232.914 187.764C232.914 186.117 233.635 185.109 234.812 185.109C235.738 185.109 236.436 185.73 236.547 186.65H238.615C238.551 184.734 236.939 183.316 234.812 183.316C232.275 183.316 230.723 185.01 230.723 187.77C230.723 190.529 232.281 192.229 234.812 192.229ZM242.33 192V183.545H240.18V192H242.33ZM249.725 192H252.068L249.227 183.545H246.596L243.76 192H245.893L246.438 190.143H249.197L249.725 192ZM247.773 185.449H247.885L248.793 188.596H246.848L247.773 185.449ZM259.234 190.225H255.643V183.545H253.492V192H259.234V190.225ZM267.52 183.316C264.977 183.316 263.348 185.021 263.348 187.77C263.348 190.523 264.965 192.229 267.52 192.229C270.062 192.229 271.686 190.523 271.686 187.77C271.686 185.021 270.057 183.316 267.52 183.316ZM267.52 185.098C268.703 185.098 269.494 186.141 269.494 187.77C269.494 189.404 268.703 190.447 267.52 190.447C266.318 190.447 265.539 189.404 265.539 187.77C265.539 186.141 266.33 185.098 267.52 185.098ZM275.436 192V188.848H278.705V187.201H275.436V185.273H279.039V183.545H273.285V192H275.436ZM282.771 192V188.848H286.041V187.201H282.771V185.273H286.375V183.545H280.621V192H282.771ZM293.752 190.271H290.107V188.543H293.535V186.961H290.107V185.273H293.752V183.545H287.957V192H293.752V190.271ZM297.736 185.168H299.002C299.77 185.168 300.268 185.631 300.268 186.352C300.268 187.084 299.799 187.523 299.008 187.523H297.736V185.168ZM297.736 189.041H298.85L300.297 192H302.711L301.023 188.725C301.949 188.32 302.465 187.371 302.465 186.334C302.465 184.588 301.281 183.545 299.307 183.545H295.586V192H297.736V189.041Z" fill="white"/>
<defs>
<filter id="filter0_d" x="5" y="7" width="340" height="225" filterUnits="userSpaceOnUse" color-interpolation-filters="sRGB">
<feFlood flood-opacity="0" result="BackgroundImageFix"/>
<feColorMatrix in="SourceAlpha" type="matrix" values="0 0 0 0 0 0 0 0 0 0 0 0 0 0 0 0 0 0 127 0"/>
<feOffset/>
<feGaussianBlur stdDeviation="4"/>
<feColorMatrix type="matrix" values="0 0 0 0 0 0 0 0 0 0 0 0 0 0 0 0 0 0 0.13 0"/>
<feBlend mode="normal" in2="BackgroundImageFix" result="effect1_dropShadow"/>
<feBlend mode="normal" in="SourceGraphic" in2="effect1_dropShadow" result="shape"/>
</filter>
<linearGradient id="paint0_linear" x1="198" y1="188" x2="309.063" y2="173.334" gradientUnits="userSpaceOnUse">
<stop stop-color="#FFB801"/>
<stop offset="1" stop-color="#FFA901"/>
</linearGradient>
</defs>
</svg>
