<svg width="28" height="28" viewBox="0 0 28 28" fill="none" xmlns="http://www.w3.org/2000/svg">
<path d="M14 28C21.732 28 28 21.732 28 14C28 6.26801 21.732 0 14 0C6.26801 0 0 6.26801 0 14C0 21.732 6.26801 28 14 28Z" fill="#5C6AC4" fill-opacity="0.3"/>
<circle cx="14" cy="14" r="9" fill="white" stroke="#5C6AC4" stroke-width="2"/>
<mask id="mask0" mask-type="alpha" maskUnits="userSpaceOnUse" x="8" y="8" width="12" height="12">
<path d="M18.8999 13.2999H14.6999V9.0999C14.6999 8.7135 14.387 8.3999 13.9999 8.3999C13.6128 8.3999 13.2999 8.7135 13.2999 9.0999V13.2999H9.0999C8.7128 13.2999 8.3999 13.6135 8.3999 13.9999C8.3999 14.3863 8.7128 14.6999 9.0999 14.6999H13.2999V18.8999C13.2999 19.2863 13.6128 19.5999 13.9999 19.5999C14.387 19.5999 14.6999 19.2863 14.6999 18.8999V14.6999H18.8999C19.287 14.6999 19.5999 14.3863 19.5999 13.9999C19.5999 13.6135 19.287 13.2999 18.8999 13.2999Z" fill="white"/>
</mask>
<g mask="url(#mask0)">
<path d="M18.8999 13.2999H14.6999V9.0999C14.6999 8.7135 14.387 8.3999 13.9999 8.3999C13.6128 8.3999 13.2999 8.7135 13.2999 9.0999V13.2999H9.0999C8.7128 13.2999 8.3999 13.6135 8.3999 13.9999C8.3999 14.3863 8.7128 14.6999 9.0999 14.6999H13.2999V18.8999C13.2999 19.2863 13.6128 19.5999 13.9999 19.5999C14.387 19.5999 14.6999 19.2863 14.6999 18.8999V14.6999H18.8999C19.287 14.6999 19.5999 14.3863 19.5999 13.9999C19.5999 13.6135 19.287 13.2999 18.8999 13.2999Z" fill="#31373D"/>
<path d="M21.7 7H7V21.7H21.7V7Z" fill="#5C6AC4"/>
</g>
</svg>
