<svg width="158" height="158" viewBox="0 0 158 158" fill="none" xmlns="http://www.w3.org/2000/svg">
<circle cx="79" cy="79" r="79" fill="url(#paint0_linear)"/>
<mask id="mask0" mask-type="alpha" maskUnits="userSpaceOnUse" x="0" y="0" width="158" height="158">
<circle cx="79" cy="79" r="79" fill="url(#paint1_linear)"/>
</mask>
<g mask="url(#mask0)">
<path d="M60.911 99.0311L67.7065 104.534L71.9251 107.951L74.4035 109.958L68.8068 106.34L63.863 101.793L60.9099 99.0324C60.9098 99.0323 60.9097 99.0322 60.9096 99.0321C60.9096 99.032 60.9096 99.0318 60.9096 99.0317C60.9097 99.0315 60.9097 99.0314 60.9097 99.0313C60.9098 99.0312 60.9099 99.0311 60.91 99.031C60.9101 99.031 60.9102 99.0309 60.9103 99.0309C60.9103 99.0309 60.9104 99.0309 60.9105 99.0309C60.9106 99.0309 60.9107 99.0309 60.9108 99.0309C60.9109 99.031 60.911 99.031 60.911 99.0311ZM60.9098 99.0301C60.9099 99.0302 60.9101 99.0304 60.9104 99.0305L60.9098 99.0307L60.9097 99.0308C60.9097 99.0307 60.9097 99.0307 60.9097 99.0306C60.9098 99.0305 60.9098 99.0303 60.9098 99.0301Z" fill="url(#paint2_linear)" stroke="#E7E7E7" stroke-width="8"/>
<path d="M52.9974 91.8187L58.4397 65.167H76.3993L82.9301 77.2814L89.4608 75.9354L112.727 96.6645L113.951 101.241L111.638 104.202L108.509 105.01L105.244 109.048H100.073L96.808 113.086L89.4608 114.971H81.2974L52.9974 91.8187Z" fill="url(#paint3_linear)"/>
<path d="M90.8283 113.677L89.7559 113.827C84.3926 114.577 78.9545 113.119 74.6847 109.788L50 90.5291L57.03 65H69.1605C74.0611 65 78.791 66.7992 82.4527 70.0561L88.6652 75.582L111.434 96.3745C112.432 97.2853 113 98.5738 113 99.9245V99.9245C113 101.979 111.694 103.807 109.75 104.473L107.592 105.212M90.8283 113.677L80.0129 103.36M90.8283 113.677V113.677C93.7259 113.677 96.4585 112.329 98.2213 110.029L98.6695 109.444M98.6695 109.444L85.1502 95.8201M98.6695 109.444H99.0143C102.376 109.444 105.547 107.88 107.592 105.212V105.212M107.592 105.212L95.4249 93.0423" stroke="url(#paint4_linear)" stroke-width="2"/>
<path d="M120.117 55.9529L196.462 28V94.9258L114.567 99.3606L93.1291 78.5398C91.0503 76.5208 87.9241 76.0323 85.3284 77.3208L74.9821 83.6795C74.3124 84.0911 73.5417 84.309 72.7557 84.309H72.0009C68.8952 84.309 66.3775 81.7914 66.3775 78.6856C66.3775 77.804 66.6882 76.9507 67.255 76.2754L73.9192 68.3359C77.7193 63.8086 83.3273 61.1941 89.238 61.1941H95.3449C96.8743 61.1941 98.3986 61.0187 99.8879 60.6713L120.117 55.9529Z" fill="url(#paint5_linear)"/>
<path d="M156.692 103.676L122.871 98.7274L204.639 92.6705V104.234L197.87 100.379L200.577 107.537L182.978 101.756C184.037 104.017 181.946 106.474 179.545 105.792L160.506 100.379C160.506 102.411 158.703 103.97 156.692 103.676Z" fill="#F4F6F8"/>
<path d="M44.0774 91.0199L28.4672 87.4672V97.1306H42.3973L44.0774 91.0199Z" fill="#F0F0F0"/>
<path fill-rule="evenodd" clip-rule="evenodd" d="M38.318 54.2093C42.6794 54.4778 57.1908 55.6361 60.8198 59.2122C61.2898 59.6701 61.527 60.3307 61.4718 61.0002C60.5111 72.4469 53.2194 95.7236 52.9059 96.7242L52.9056 96.7252C52.622 97.6325 51.8089 98.2445 50.8943 98.2445H38.191C37.0223 98.2445 36.0737 97.258 36.0737 96.0425V56.4068C36.0737 55.799 36.315 55.2177 36.7386 54.8038C37.162 54.3854 37.7168 54.1785 38.318 54.2093Z" fill="url(#paint6_linear)"/>
<path d="M-31 38.3525L37.5642 53.9353V96.9134C37.5642 98.1675 36.4235 99.1121 35.1914 98.8784L-31 86.3203V38.3525Z" fill="url(#paint7_linear)"/>
<path d="M148.515 103.676L114.695 98.7274L196.462 92.6705V104.234L189.693 100.379C190.781 103.255 188.051 106.108 185.13 105.149L174.802 101.756C175.86 104.017 173.77 106.474 171.368 105.792L152.329 100.379C152.329 102.411 150.526 103.97 148.515 103.676Z" fill="white"/>
</g>
<defs>
<linearGradient id="paint0_linear" x1="79" y1="0" x2="79" y2="158" gradientUnits="userSpaceOnUse">
<stop stop-color="#3D5AFD"/>
<stop offset="1" stop-color="#23309D"/>
</linearGradient>
<linearGradient id="paint1_linear" x1="79" y1="0" x2="79" y2="158" gradientUnits="userSpaceOnUse">
<stop stop-color="#3D5AFD"/>
<stop offset="1" stop-color="#23309D"/>
</linearGradient>
<linearGradient id="paint2_linear" x1="71.0122" y1="104.125" x2="54.5315" y2="110.679" gradientUnits="userSpaceOnUse">
<stop stop-color="#F9FAFB"/>
<stop offset="1" stop-color="white"/>
</linearGradient>
<linearGradient id="paint3_linear" x1="102.25" y1="100.164" x2="53.1861" y2="77.1483" gradientUnits="userSpaceOnUse">
<stop stop-color="#FA9A88"/>
<stop offset="1" stop-color="#FF6D52"/>
</linearGradient>
<linearGradient id="paint4_linear" x1="51.6223" y1="68.5714" x2="116.448" y2="122.337" gradientUnits="userSpaceOnUse">
<stop stop-color="#FB9481"/>
<stop offset="1" stop-color="#FF684B"/>
</linearGradient>
<linearGradient id="paint5_linear" x1="136.631" y1="67.2416" x2="136.098" y2="50.5771" gradientUnits="userSpaceOnUse">
<stop stop-color="white"/>
<stop offset="1" stop-color="#DFE3E8"/>
</linearGradient>
<linearGradient id="paint6_linear" x1="48.7767" y1="54.2063" x2="48.7767" y2="98.2445" gradientUnits="userSpaceOnUse">
<stop stop-color="white"/>
<stop offset="1" stop-color="#E0F5F5"/>
</linearGradient>
<linearGradient id="paint7_linear" x1="0.436552" y1="52.1737" x2="-1.18948" y2="91.7404" gradientUnits="userSpaceOnUse">
<stop stop-color="#D34A6F"/>
<stop offset="1" stop-color="#DC1781"/>
</linearGradient>
</defs>
</svg>
