<svg width="28" height="28" viewBox="0 0 28 28" fill="none" xmlns="http://www.w3.org/2000/svg">
<path d="M14 28C21.732 28 28 21.732 28 14C28 6.26801 21.732 0 14 0C6.26801 0 0 6.26801 0 14C0 21.732 6.26801 28 14 28Z" fill="#5C6AC4" fill-opacity="0.3"/>
<circle cx="14" cy="14" r="9" fill="white" stroke="#5C6AC4" stroke-width="2"/>
<mask id="mask0" mask-type="alpha" maskUnits="userSpaceOnUse" x="11" y="10" width="7" height="9">
<path d="M18 14.0836C18 14.2889 17.8927 14.4785 17.7171 14.5835L11.8837 18.0835C11.791 18.1389 11.6872 18.1669 11.5833 18.1669C11.4842 18.1669 11.385 18.1419 11.2957 18.0911C11.1132 17.9873 11 17.7936 11 17.5836V10.5836C11 10.3736 11.1132 10.1799 11.2957 10.0761C11.4783 9.97169 11.7035 9.97519 11.8837 10.0837L17.7171 13.5837C17.8927 13.6887 18 13.8783 18 14.0836Z" fill="white"/>
</mask>
<g mask="url(#mask0)">
<path d="M18 14.0836C18 14.2889 17.8927 14.4785 17.7171 14.5835L11.8837 18.0835C11.791 18.1389 11.6872 18.1669 11.5833 18.1669C11.4842 18.1669 11.385 18.1419 11.2957 18.0911C11.1132 17.9873 11 17.7936 11 17.5836V10.5836C11 10.3736 11.1132 10.1799 11.2957 10.0761C11.4783 9.97169 11.7035 9.97519 11.8837 10.0837L17.7171 13.5837C17.8927 13.6887 18 13.8783 18 14.0836Z" fill="black"/>
<path d="M20.3333 8.25H8.66663V19.9167H20.3333V8.25Z" fill="#5C6AC4"/>
</g>
</svg>
