<svg width="147" height="147" viewBox="0 0 147 147" fill="none" xmlns="http://www.w3.org/2000/svg">
<path d="M73.5 147C114.093 147 147 114.093 147 73.5C147 32.9071 114.093 0 73.5 0C32.9071 0 0 32.9071 0 73.5C0 114.093 32.9071 147 73.5 147Z" fill="url(#paint0_linear)"/>
<circle cx="73.84" cy="73.84" r="60.84" fill="black" stroke="white" stroke-width="2"/>
<mask id="mask0" mask-type="alpha" maskUnits="userSpaceOnUse" x="55" y="43" width="53" height="62">
<path d="M107.36 73.5454C107.36 75.0813 106.557 76.4994 105.244 77.2847L61.6104 103.465C60.9167 103.879 60.14 104.089 59.3633 104.089C58.6216 104.089 57.8798 103.901 57.2122 103.521C55.8465 102.745 55 101.296 55 99.7254V47.3654C55 45.7946 55.8465 44.3459 57.2122 43.5693C58.5779 42.7882 60.2622 42.8144 61.6104 43.626L105.244 69.806C106.557 70.5914 107.36 72.0095 107.36 73.5454Z" fill="white" fill-opacity="0.6"/>
</mask>
<g mask="url(#mask0)">
<path d="M107.36 73.5454C107.36 75.0813 106.557 76.4994 105.244 77.2847L61.6104 103.465C60.9167 103.879 60.14 104.089 59.3633 104.089C58.6216 104.089 57.8798 103.901 57.2122 103.521C55.8465 102.745 55 101.296 55 99.7254V47.3654C55 45.7946 55.8465 44.3459 57.2122 43.5693C58.5779 42.7882 60.2622 42.8144 61.6104 43.626L105.244 69.806C106.557 70.5914 107.36 72.0095 107.36 73.5454Z" fill="white" fill-opacity="0.6"/>
<path d="M124.814 29.9105H37.5474V117.177H124.814V29.9105Z" fill="white" fill-opacity="0.6"/>
</g>
<defs>
<linearGradient id="paint0_linear" x1="73.5" y1="0" x2="73.5" y2="147" gradientUnits="userSpaceOnUse">
<stop stop-color="#FFD101"/>
<stop offset="1" stop-color="#FFBA04"/>
</linearGradient>
</defs>
</svg>
