<svg width="14" height="14" viewBox="0 0 14 14" fill="none" xmlns="http://www.w3.org/2000/svg">
<rect width="14" height="14" rx="1" fill="#212B36"/>
<path d="M7 12.8036C6.93707 12.8036 6.87413 12.7848 6.81999 12.7473L2.41637 9.69613C2.33104 9.63701 2.28013 9.53975 2.28013 9.4359V5.7067C2.28013 5.67269 2.28561 5.63888 2.29636 5.60662L2.57329 4.77515L2.37258 4.57429C1.87581 4.07709 1.87581 3.26811 2.37258 2.77094C2.37308 2.77043 2.37361 2.76992 2.37412 2.7694C2.86854 2.27581 3.67402 2.26937 4.17477 2.7706L4.3198 2.91573C4.47348 2.80041 5.46938 2 6.99983 2C8.53053 2 9.5266 2.80035 9.68026 2.91567L9.82523 2.77056C10.319 2.27636 11.1245 2.26882 11.6259 2.76937C11.6264 2.76988 11.6269 2.77039 11.6274 2.77091C12.1242 3.26811 12.1242 4.07707 11.6274 4.57425L11.4267 4.77513L11.7036 5.6066C11.7144 5.63886 11.7199 5.67267 11.7199 5.70668V9.4359C11.7199 9.53975 11.669 9.63701 11.5836 9.69613L7.18001 12.7473C7.12587 12.7848 7.06293 12.8036 7 12.8036V12.8036Z" fill="url(#paint0_linear)"/>
<path d="M6.99656 10.1217C5.7574 10.1217 4.62319 9.20937 4.62319 7.91521V7.08699C4.62319 6.54882 4.83447 6.04285 5.2181 5.66227L6.28657 4.6023C6.67805 4.21394 7.31504 4.21396 7.70654 4.60228L8.77501 5.66227C9.15864 6.04285 9.36992 6.54882 9.36992 7.08699V7.91521C9.36992 9.20688 8.23723 10.1217 6.99656 10.1217Z" fill="url(#paint1_linear)"/>
<path d="M6.99656 8.74741C6.37666 8.74741 5.87233 8.29896 5.87233 7.74774C5.87233 7.1965 6.37664 6.74805 6.99656 6.74805C7.61648 6.74805 8.12078 7.1965 8.12078 7.74774C8.12078 8.29896 7.61646 8.74741 6.99656 8.74741Z" fill="#212B36"/>
<path d="M6.9965 9.52246C6.9965 9.52246 6.27873 9.77006 5.60577 9.55004C5.62382 10.4688 6.23933 11.2745 6.9965 11.2745C7.75381 11.2745 8.36932 10.4688 8.38737 9.55004C7.71426 9.77006 6.9965 9.52246 6.9965 9.52246V9.52246Z" fill="#ED435C"/>
<path d="M6.20339 10.3408C6.51182 10.3629 6.78762 10.3049 6.9177 10.2708C6.96943 10.2573 7.02356 10.2573 7.07529 10.2708C7.20537 10.3049 7.48117 10.3629 7.7896 10.3408C7.93848 10.33 8.06044 10.4263 8.09653 10.5531C8.27263 10.2681 8.37985 9.91803 8.38737 9.54952C7.71426 9.76556 6.9965 9.52246 6.9965 9.52246C6.9965 9.52246 6.27873 9.76556 5.60577 9.54952C5.61314 9.91817 5.72051 10.2681 5.89646 10.5531C5.93255 10.4263 6.05451 10.33 6.20339 10.3408V10.3408Z" fill="url(#paint2_linear)"/>
<path d="M4.62835 5.03626C4.82867 5.03626 4.99107 4.8738 4.99107 4.6734C4.99107 4.473 4.82867 4.31055 4.62835 4.31055C4.42802 4.31055 4.26562 4.473 4.26562 4.6734C4.26562 4.8738 4.42802 5.03626 4.62835 5.03626Z" fill="#212B36"/>
<path d="M9.36049 5.03626C9.56082 5.03626 9.72322 4.8738 9.72322 4.6734C9.72322 4.473 9.56082 4.31055 9.36049 4.31055C9.16017 4.31055 8.99777 4.473 8.99777 4.6734C8.99777 4.8738 9.16017 5.03626 9.36049 5.03626Z" fill="#212B36"/>
<defs>
<linearGradient id="paint0_linear" x1="7.0043" y1="2" x2="7.0043" y2="7.02162" gradientUnits="userSpaceOnUse">
<stop stop-color="#F9FAFB"/>
<stop offset="1" stop-color="white"/>
</linearGradient>
<linearGradient id="paint1_linear" x1="6.99785" y1="5.14777" x2="6.99785" y2="10.5069" gradientUnits="userSpaceOnUse">
<stop stop-color="#C4CDD5"/>
<stop offset="1" stop-color="#F9FAFB"/>
</linearGradient>
<linearGradient id="paint2_linear" x1="6.99657" y1="9.52246" x2="7.00087" y2="10.0378" gradientUnits="userSpaceOnUse">
<stop stop-color="#DA2F3C"/>
<stop offset="1" stop-color="#ED435C"/>
</linearGradient>
</defs>
</svg>
