<svg width="84" height="84" viewBox="0 0 84 84" fill="none" xmlns="http://www.w3.org/2000/svg">
<rect x="20" y="9.1084" width="42.8917" height="42.8917" rx="2" transform="rotate(-0.144806 20 9.1084)" fill="#EB4DBA"/>
<path d="M45.0243 18.8864L45.0059 18.8817L44.9868 18.8817L44.7882 18.8822L44.7597 18.8823C44.2968 18.8834 43.904 19.1843 43.8328 19.6445C43.7595 20.1177 43.4992 20.5039 43.0307 20.8423C42.5733 21.1726 42.0535 21.337 41.4585 21.3385C40.8635 21.34 40.3401 21.1813 39.869 20.8497C39.3994 20.5188 39.1448 20.1294 39.0613 19.6544L39.0613 19.6543C38.9805 19.1949 38.5798 18.8979 38.1309 18.899L38.074 18.8992L37.8754 18.8997L37.8563 18.8997L37.8379 18.9045L27.6954 21.547C27.1985 21.6765 26.9107 22.2017 27.0369 22.6878C27.0369 22.6878 27.0369 22.6878 27.0369 22.6878L28.4702 28.2133L28.4702 28.2133C28.5798 28.6351 28.9692 28.9016 29.4121 28.9004L33.0096 28.8913L33.0406 41.1639C33.0419 41.684 33.4521 42.0865 33.9736 42.0852L49.0057 42.0472C49.5202 42.0459 49.9638 41.6481 49.9625 41.1211L49.9315 28.8486L53.5289 28.8395C53.9489 28.8384 54.3341 28.5513 54.4387 28.1484L54.4387 28.1483L55.8725 22.6156C56.0001 22.1231 55.6987 21.6099 55.18 21.4776L45.0243 18.8864ZM53.8272 23.0564L52.7983 26.9797L48.9677 26.9894C48.4745 26.9907 48.038 27.4094 48.0394 27.9296L48.0703 40.1881L34.8996 40.2213L34.8686 27.9629C34.8673 27.4462 34.4606 27.0261 33.9356 27.0274L30.1333 27.037L29.0843 23.1189L37.5279 20.929C37.8571 21.5941 38.3582 22.1395 39.0398 22.5645C39.7625 23.015 40.5718 23.2306 41.4632 23.2283C42.3415 23.2261 43.1353 23.0061 43.8551 22.5523C44.5334 22.1247 45.0451 21.5771 45.3726 20.9092L53.8272 23.0564Z" fill="white" stroke="white" stroke-width="0.3"/>
<rect x="20" y="55" width="21" height="4" rx="1" fill="#EB4DBA"/>
<rect x="20" y="61" width="13" height="4" rx="1" fill="#EB4DBA"/>
<rect x="20" y="68" width="43" height="8" rx="1" fill="#FFDD02"/>
</svg>
