<svg width="382" height="249" viewBox="0 0 382 249" fill="none" xmlns="http://www.w3.org/2000/svg">
<g filter="url(#filter0_d)">
<rect x="11" y="10" width="361" height="229" rx="5" fill="#F4F6F8"/>
</g>
<path d="M32.0107 47.6865C32.1777 49.875 34.0322 51.2988 36.7217 51.2988C39.6221 51.2988 41.459 49.8135 41.459 47.4844C41.459 45.6211 40.4043 44.6016 37.7764 43.9424L36.4492 43.5908C34.7002 43.1426 34.0059 42.5713 34.0059 41.5781C34.0059 40.2949 35.1221 39.4512 36.8096 39.4512C38.3916 39.4512 39.4639 40.2246 39.6836 41.5254H41.2744C41.1426 39.4775 39.3145 38.0186 36.8623 38.0186C34.1816 38.0186 32.3799 39.4775 32.3799 41.6309C32.3799 43.4326 33.373 44.4697 35.667 45.0498L37.293 45.4717C39.042 45.9111 39.833 46.5967 39.833 47.6777C39.833 48.9346 38.5762 49.8574 36.8711 49.8574C35.0693 49.8574 33.8037 49.0137 33.6104 47.6865H32.0107ZM45.6777 51V38.3174H44.0957V51H45.6777ZM56.6113 49.5762H50.4941V38.3174H48.9121V51H56.6113V49.5762ZM63.1416 51L67.8174 38.3174H66.1562L62.4297 48.9521H62.2891L58.5625 38.3174H56.9014L61.5771 51H63.1416ZM77.8984 49.5762H71.623V45.2168H77.5732V43.8105H71.623V39.7412H77.8984V38.3174H70.041V51H77.8984V49.5762ZM82.3457 39.7236H85.3955C87.0303 39.7236 88.0146 40.6289 88.0146 42.1494C88.0146 43.7051 87.0918 44.5752 85.4658 44.5752H82.3457V39.7236ZM82.3457 45.9814H85.4658L88.1816 51H90.0361L87.1006 45.7354C88.6914 45.2344 89.6494 43.8633 89.6494 42.0967C89.6494 39.8115 88.0498 38.3174 85.6064 38.3174H80.7637V51H82.3457V45.9814Z" fill="#637381"/>
<path d="M67.8438 74.9766H70.5547C72.0078 74.9766 72.8828 75.7812 72.8828 77.1328C72.8828 78.5156 72.0625 79.2891 70.6172 79.2891H67.8438V74.9766ZM67.8438 80.5391H70.6172L73.0312 85H74.6797L72.0703 80.3203C73.4844 79.875 74.3359 78.6562 74.3359 77.0859C74.3359 75.0547 72.9141 73.7266 70.7422 73.7266H66.4375V85H67.8438V80.5391ZM79.8438 77.6172C81.1797 77.6172 82.0703 78.6016 82.1016 80.0938H77.4609C77.5625 78.6016 78.5 77.6172 79.8438 77.6172ZM82.0625 82.8203C81.7109 83.5625 80.9766 83.9609 79.8906 83.9609C78.4609 83.9609 77.5312 82.9062 77.4609 81.2422V81.1797H83.5156V80.6641C83.5156 78.0469 82.1328 76.4297 79.8594 76.4297C77.5469 76.4297 76.0625 78.1484 76.0625 80.7969C76.0625 83.4609 77.5234 85.1484 79.8594 85.1484C81.7031 85.1484 83.0156 84.2578 83.4062 82.8203H82.0625ZM85.625 85H86.9688V79.7812C86.9688 78.5938 87.8203 77.6406 88.9219 77.6406C89.9844 77.6406 90.6797 78.2812 90.6797 79.2812V85H92.0234V79.5859C92.0234 78.5156 92.8047 77.6406 93.9766 77.6406C95.1641 77.6406 95.75 78.25 95.75 79.4922V85H97.0938V79.1797C97.0938 77.4141 96.1328 76.4297 94.4141 76.4297C93.25 76.4297 92.2891 77.0156 91.8359 77.9062H91.7109C91.3203 77.0312 90.5234 76.4297 89.3828 76.4297C88.2578 76.4297 87.4141 76.9688 87.0312 77.9062H86.9062V76.5781H85.625V85ZM103.008 85.1484C105.406 85.1484 106.891 83.4922 106.891 80.7891C106.891 78.0781 105.406 76.4297 103.008 76.4297C100.609 76.4297 99.125 78.0781 99.125 80.7891C99.125 83.4922 100.609 85.1484 103.008 85.1484ZM103.008 83.9375C101.414 83.9375 100.516 82.7812 100.516 80.7891C100.516 78.7891 101.414 77.6406 103.008 77.6406C104.602 77.6406 105.5 78.7891 105.5 80.7891C105.5 82.7812 104.602 83.9375 103.008 83.9375ZM115.562 76.5781H114.125L111.82 83.5156H111.695L109.391 76.5781H107.953L111.07 85H112.445L115.562 76.5781ZM120.406 77.6172C121.742 77.6172 122.633 78.6016 122.664 80.0938H118.023C118.125 78.6016 119.062 77.6172 120.406 77.6172ZM122.625 82.8203C122.273 83.5625 121.539 83.9609 120.453 83.9609C119.023 83.9609 118.094 82.9062 118.023 81.2422V81.1797H124.078V80.6641C124.078 78.0469 122.695 76.4297 120.422 76.4297C118.109 76.4297 116.625 78.1484 116.625 80.7969C116.625 83.4609 118.086 85.1484 120.422 85.1484C122.266 85.1484 123.578 84.2578 123.969 82.8203H122.625ZM134.891 85.1484C137.023 85.1484 138.422 83.4219 138.422 80.7891C138.422 78.1406 137.031 76.4297 134.891 76.4297C133.734 76.4297 132.711 77 132.25 77.9062H132.125V73.2344H130.781V85H132.062V83.6562H132.188C132.719 84.5938 133.719 85.1484 134.891 85.1484ZM134.578 77.6406C136.117 77.6406 137.031 78.8203 137.031 80.7891C137.031 82.7578 136.117 83.9375 134.578 83.9375C133.047 83.9375 132.094 82.7344 132.094 80.7891C132.094 78.8438 133.047 77.6406 134.578 77.6406ZM140.531 85H141.875V79.7812C141.875 78.5938 142.805 77.7344 144.086 77.7344C144.352 77.7344 144.836 77.7812 144.945 77.8125V76.4688C144.773 76.4453 144.492 76.4297 144.273 76.4297C143.156 76.4297 142.188 77.0078 141.938 77.8281H141.812V76.5781H140.531V85ZM149.219 83.9688C148.242 83.9688 147.516 83.4688 147.516 82.6094C147.516 81.7656 148.078 81.3203 149.359 81.2344L151.625 81.0859V81.8594C151.625 83.0625 150.602 83.9688 149.219 83.9688ZM148.969 85.1484C150.094 85.1484 151.016 84.6562 151.562 83.7578H151.688V85H152.969V79.2344C152.969 77.4844 151.82 76.4297 149.766 76.4297C147.969 76.4297 146.641 77.3203 146.461 78.6719H147.82C148.008 78.0078 148.711 77.625 149.719 77.625C150.977 77.625 151.625 78.1953 151.625 79.2344V80L149.195 80.1484C147.234 80.2656 146.125 81.1328 146.125 82.6406C146.125 84.1797 147.336 85.1484 148.969 85.1484ZM155.453 85H156.797V80.0156C156.797 78.5391 157.664 77.6406 159.008 77.6406C160.352 77.6406 160.992 78.3594 160.992 79.875V85H162.336V79.5469C162.336 77.5469 161.281 76.4297 159.391 76.4297C158.102 76.4297 157.281 76.9766 156.859 77.9062H156.734V76.5781H155.453V85ZM167.914 85.1484C169.078 85.1484 170.078 84.5938 170.609 83.6562H170.734V85H172.016V73.2344H170.672V77.9062H170.555C170.078 76.9844 169.086 76.4297 167.914 76.4297C165.773 76.4297 164.375 78.1484 164.375 80.7891C164.375 83.4375 165.758 85.1484 167.914 85.1484ZM168.227 77.6406C169.75 77.6406 170.703 78.8594 170.703 80.7891C170.703 82.7344 169.758 83.9375 168.227 83.9375C166.688 83.9375 165.766 82.7578 165.766 80.7891C165.766 78.8281 166.695 77.6406 168.227 77.6406ZM174.656 85H176V76.5781H174.656V85ZM175.328 74.9531C175.844 74.9531 176.266 74.5312 176.266 74.0156C176.266 73.5 175.844 73.0781 175.328 73.0781C174.812 73.0781 174.391 73.5 174.391 74.0156C174.391 74.5312 174.812 74.9531 175.328 74.9531ZM178.562 85H179.906V80.0156C179.906 78.5391 180.773 77.6406 182.117 77.6406C183.461 77.6406 184.102 78.3594 184.102 79.875V85H185.445V79.5469C185.445 77.5469 184.391 76.4297 182.5 76.4297C181.211 76.4297 180.391 76.9766 179.969 77.9062H179.844V76.5781H178.562V85ZM191.312 83.6875C189.75 83.6875 188.875 82.5 188.875 80.6641C188.875 78.8281 189.75 77.6406 191.312 77.6406C192.867 77.6406 193.812 78.8281 193.812 80.6641C193.812 82.5 192.875 83.6875 191.312 83.6875ZM191.375 88.2344C193.672 88.2344 195.125 87.0312 195.125 85.1484V76.5781H193.844V77.9141H193.719C193.234 77.0078 192.195 76.4297 191.016 76.4297C188.852 76.4297 187.484 78.1406 187.484 80.6641C187.484 83.1875 188.836 84.875 191.016 84.875C192.172 84.875 193.125 84.3516 193.656 83.4219H193.781V85.0781C193.781 86.3203 192.883 87.0625 191.375 87.0625C190.164 87.0625 189.414 86.6172 189.266 85.9297H187.844C188.047 87.3203 189.344 88.2344 191.375 88.2344Z" fill="#212B36"/>
<path d="M39.6719 168.055L39.7188 168.062C41.2656 168.438 41.6875 168.984 41.6875 169.844C41.6875 170.742 41.125 171.453 39.6719 171.562V168.055ZM38.7344 166.5C37.3906 166.164 36.9219 165.578 36.9219 164.812C36.9219 164.055 37.5469 163.336 38.7344 163.18V166.5ZM39.6719 166.727V163.172C40.7266 163.305 41.4766 163.922 41.5781 164.977H42.9375C42.8828 163.25 41.4766 162.109 39.6719 161.945V160.594H38.7344V161.953C36.8828 162.117 35.5625 163.227 35.5625 164.906C35.5625 166.445 36.6094 167.312 38.5547 167.781L38.7344 167.828V171.555C37.3828 171.406 36.7812 170.664 36.6406 169.688H35.2812C35.3359 171.508 36.875 172.609 38.7344 172.773V174.133H39.6719V172.781C41.5156 172.641 43.0469 171.617 43.0469 169.734C43.0469 168.094 41.9219 167.266 39.9141 166.781L39.6719 166.727ZM50.7812 173H52.1562V170.664H53.7578V169.406H52.1562V161.727H50.1172C48.5391 164.078 46.8125 166.828 45.2891 169.383V170.664H50.7812V173ZM46.7266 169.32C47.9531 167.25 49.4297 164.922 50.6953 163.031H50.7891V169.414H46.7266V169.32ZM59.5312 173.258C62.2891 173.258 63.8672 171.039 63.8672 167.164C63.8672 163.328 62.0547 161.461 59.625 161.461C57.3125 161.461 55.6719 163.078 55.6719 165.344C55.6719 167.531 57.2266 169.117 59.375 169.117C60.7188 169.117 61.8203 168.477 62.375 167.383H62.5C62.4219 170.383 61.3828 172.008 59.5469 172.008C58.4375 172.008 57.5781 171.391 57.2812 170.375H55.8359C56.1875 172.148 57.6172 173.258 59.5312 173.258ZM59.625 167.898C58.1328 167.898 57.0938 166.836 57.0938 165.297C57.0938 163.82 58.1953 162.695 59.6406 162.695C61.0859 162.695 62.1875 163.836 62.1875 165.344C62.1875 166.836 61.1172 167.898 59.625 167.898ZM66.625 173.078C67.1875 173.078 67.6406 172.617 67.6406 172.062C67.6406 171.5 67.1875 171.047 66.625 171.047C66.0703 171.047 65.6094 171.5 65.6094 172.062C65.6094 172.617 66.0703 173.078 66.625 173.078ZM73.2344 173.258C75.9922 173.258 77.5703 171.039 77.5703 167.164C77.5703 163.328 75.7578 161.461 73.3281 161.461C71.0156 161.461 69.375 163.078 69.375 165.344C69.375 167.531 70.9297 169.117 73.0781 169.117C74.4219 169.117 75.5234 168.477 76.0781 167.383H76.2031C76.125 170.383 75.0859 172.008 73.25 172.008C72.1406 172.008 71.2812 171.391 70.9844 170.375H69.5391C69.8906 172.148 71.3203 173.258 73.2344 173.258ZM73.3281 167.898C71.8359 167.898 70.7969 166.836 70.7969 165.297C70.7969 163.82 71.8984 162.695 73.3438 162.695C74.7891 162.695 75.8906 163.836 75.8906 165.344C75.8906 166.836 74.8203 167.898 73.3281 167.898ZM83.4375 173.258C86.1953 173.258 87.7734 171.039 87.7734 167.164C87.7734 163.328 85.9609 161.461 83.5312 161.461C81.2188 161.461 79.5781 163.078 79.5781 165.344C79.5781 167.531 81.1328 169.117 83.2812 169.117C84.625 169.117 85.7266 168.477 86.2812 167.383H86.4062C86.3281 170.383 85.2891 172.008 83.4531 172.008C82.3438 172.008 81.4844 171.391 81.1875 170.375H79.7422C80.0938 172.148 81.5234 173.258 83.4375 173.258ZM83.5312 167.898C82.0391 167.898 81 166.836 81 165.297C81 163.82 82.1016 162.695 83.5469 162.695C84.9922 162.695 86.0938 163.836 86.0938 165.344C86.0938 166.836 85.0234 167.898 83.5312 167.898ZM89.9844 175.398L94.0469 161.234H92.9062L88.8438 175.398H89.9844ZM95.375 173H96.7188V167.781C96.7188 166.594 97.5703 165.641 98.6719 165.641C99.7344 165.641 100.43 166.281 100.43 167.281V173H101.773V167.586C101.773 166.516 102.555 165.641 103.727 165.641C104.914 165.641 105.5 166.25 105.5 167.492V173H106.844V167.18C106.844 165.414 105.883 164.43 104.164 164.43C103 164.43 102.039 165.016 101.586 165.906H101.461C101.07 165.031 100.273 164.43 99.1328 164.43C98.0078 164.43 97.1641 164.969 96.7812 165.906H96.6562V164.578H95.375V173ZM112.758 173.148C115.156 173.148 116.641 171.492 116.641 168.789C116.641 166.078 115.156 164.43 112.758 164.43C110.359 164.43 108.875 166.078 108.875 168.789C108.875 171.492 110.359 173.148 112.758 173.148ZM112.758 171.938C111.164 171.938 110.266 170.781 110.266 168.789C110.266 166.789 111.164 165.641 112.758 165.641C114.352 165.641 115.25 166.789 115.25 168.789C115.25 170.781 114.352 171.938 112.758 171.938ZM118.75 173H120.094V168.016C120.094 166.539 120.961 165.641 122.305 165.641C123.648 165.641 124.289 166.359 124.289 167.875V173H125.633V167.547C125.633 165.547 124.578 164.43 122.688 164.43C121.398 164.43 120.578 164.977 120.156 165.906H120.031V164.578H118.75V173ZM128.656 162.398V164.578H127.297V165.703H128.656V170.812C128.656 172.422 129.352 173.062 131.086 173.062C131.352 173.062 131.609 173.031 131.875 172.984V171.852C131.625 171.875 131.492 171.883 131.25 171.883C130.375 171.883 130 171.461 130 170.469V165.703H131.875V164.578H130V162.398H128.656ZM133.984 173H135.328V168.016C135.328 166.594 136.156 165.641 137.664 165.641C138.938 165.641 139.609 166.383 139.609 167.875V173H140.953V167.547C140.953 165.57 139.828 164.43 138.047 164.43C136.758 164.43 135.875 164.977 135.453 165.906H135.328V161.234H133.984V173Z" fill="#637381"/>
<path d="M39.1104 203.587C40.958 204.038 41.5381 204.597 41.5381 205.617C41.5381 206.681 40.7861 207.443 39.1104 207.594V203.587ZM37.8535 200.762C36.2744 200.343 35.6406 199.72 35.6406 198.796C35.6406 197.883 36.4033 197.099 37.8535 196.916V200.762ZM39.1104 201.052V196.927C40.3994 197.099 41.291 197.818 41.4414 199.075H43.9443C43.8477 196.594 41.9141 194.95 39.1104 194.725V192.941H37.8535V194.725C35.0498 194.929 33.041 196.54 33.041 199.032C33.041 201.288 34.5557 202.534 37.3057 203.168L37.8535 203.297V207.583C36.2529 207.411 35.458 206.573 35.2754 205.402H32.7725C32.8477 208.023 35.0068 209.581 37.8535 209.774V211.536H39.1104V209.774C41.9678 209.57 44.127 208.002 44.127 205.349C44.127 203.018 42.5908 201.847 39.7119 201.191L39.1104 201.052ZM51.0557 203.104H53C54.9121 203.104 56.0723 204.049 56.0723 205.574C56.0723 207.057 54.8154 208.056 53.0322 208.056C51.2383 208.056 50.0244 207.143 49.9062 205.714H47.2529C47.3818 208.539 49.6914 210.387 53.0645 210.387C56.416 210.387 58.9082 208.453 58.9082 205.778C58.9082 203.673 57.5869 202.309 55.4814 201.986V201.804C57.125 201.374 58.2959 200.128 58.3066 198.259C58.3174 196.024 56.459 194.112 53.1611 194.112C49.7988 194.112 47.6934 196.014 47.5537 198.753H50.1533C50.2715 197.228 51.3242 196.368 53.0107 196.368C54.6543 196.368 55.6318 197.367 55.6318 198.635C55.6318 200.021 54.5361 200.987 52.9463 200.987H51.0557V203.104ZM67.2549 210.376C71.1973 210.376 73.5391 207.293 73.5391 202.072C73.5391 196.948 71.0469 194.112 67.3408 194.112C63.9678 194.112 61.583 196.379 61.583 199.559C61.583 202.534 63.7314 204.704 66.6855 204.704C68.501 204.704 69.9727 203.866 70.7031 202.395H70.8857C70.8535 205.982 69.5537 208.056 67.2871 208.056C65.9551 208.056 64.8916 207.336 64.5586 206.176H61.7979C62.249 208.711 64.4189 210.376 67.2549 210.376ZM67.3516 202.513C65.5469 202.513 64.3008 201.267 64.3008 199.473C64.3008 197.743 65.6113 196.422 67.3623 196.422C69.1133 196.422 70.4238 197.765 70.4238 199.526C70.4238 201.256 69.1455 202.513 67.3516 202.513ZM77.4814 210.226C78.502 210.226 79.2002 209.495 79.2002 208.528C79.2002 207.551 78.502 206.831 77.4814 206.831C76.4717 206.831 75.7627 207.551 75.7627 208.528C75.7627 209.495 76.4717 210.226 77.4814 210.226ZM87.2354 210.376C91.1777 210.376 93.5195 207.293 93.5195 202.072C93.5195 196.948 91.0273 194.112 87.3213 194.112C83.9482 194.112 81.5635 196.379 81.5635 199.559C81.5635 202.534 83.7119 204.704 86.666 204.704C88.4814 204.704 89.9531 203.866 90.6836 202.395H90.8662C90.834 205.982 89.5342 208.056 87.2676 208.056C85.9355 208.056 84.8721 207.336 84.5391 206.176H81.7783C82.2295 208.711 84.3994 210.376 87.2354 210.376ZM87.332 202.513C85.5273 202.513 84.2812 201.267 84.2812 199.473C84.2812 197.743 85.5918 196.422 87.3428 196.422C89.0938 196.422 90.4043 197.765 90.4043 199.526C90.4043 201.256 89.126 202.513 87.332 202.513ZM101.909 210.376C105.852 210.376 108.193 207.293 108.193 202.072C108.193 196.948 105.701 194.112 101.995 194.112C98.6221 194.112 96.2373 196.379 96.2373 199.559C96.2373 202.534 98.3857 204.704 101.34 204.704C103.155 204.704 104.627 203.866 105.357 202.395H105.54C105.508 205.982 104.208 208.056 101.941 208.056C100.609 208.056 99.5459 207.336 99.2129 206.176H96.4521C96.9033 208.711 99.0732 210.376 101.909 210.376ZM102.006 202.513C100.201 202.513 98.9551 201.267 98.9551 199.473C98.9551 197.743 100.266 196.422 102.017 196.422C103.768 196.422 105.078 197.765 105.078 199.526C105.078 201.256 103.8 202.513 102.006 202.513ZM112.007 213.319L117.571 193.704H115.176L109.601 213.319H112.007ZM119.279 210H121.943V202.856C121.943 201.417 122.921 200.332 124.242 200.332C125.553 200.332 126.369 201.116 126.369 202.405V210H128.958V202.685C128.958 201.342 129.871 200.332 131.257 200.332C132.686 200.332 133.405 201.084 133.405 202.599V210H136.059V201.922C136.059 199.483 134.641 198.012 132.288 198.012C130.655 198.012 129.302 198.86 128.722 200.149H128.539C128.045 198.828 126.917 198.012 125.295 198.012C123.737 198.012 122.534 198.807 122.029 200.149H121.847V198.248H119.279V210ZM144.287 210.236C147.8 210.236 149.938 207.938 149.938 204.124C149.938 200.321 147.789 198.012 144.287 198.012C140.796 198.012 138.637 200.332 138.637 204.124C138.637 207.938 140.764 210.236 144.287 210.236ZM144.287 208.002C142.429 208.002 141.365 206.584 141.365 204.124C141.365 201.675 142.429 200.246 144.287 200.246C146.135 200.246 147.198 201.675 147.198 204.124C147.198 206.584 146.146 208.002 144.287 208.002ZM152.623 210H155.287V203.157C155.287 201.428 156.286 200.332 157.876 200.332C159.498 200.332 160.25 201.234 160.25 203.028V210H162.914V202.395C162.914 199.591 161.485 198.012 158.864 198.012C157.113 198.012 155.932 198.817 155.373 200.128H155.19V198.248H152.623V210ZM166.921 195.369V198.323H165.062V200.45H166.921V206.863C166.921 209.141 167.995 210.054 170.691 210.054C171.207 210.054 171.701 210 172.088 209.925V207.841C171.766 207.873 171.562 207.895 171.186 207.895C170.068 207.895 169.574 207.379 169.574 206.219V200.45H172.088V198.323H169.574V195.369H166.921ZM174.859 210H177.523V203.179C177.523 201.492 178.501 200.354 180.252 200.354C181.799 200.354 182.615 201.267 182.615 203.05V210H185.279V202.416C185.279 199.623 183.754 198.033 181.24 198.033C179.489 198.033 178.232 198.828 177.674 200.149H177.48V193.704H174.859V210Z" fill="#212B36"/>
<path d="M39.9429 85.6956C39.9431 85.6958 39.9433 85.696 39.9435 85.6962C40.226 85.9733 40.6074 86.125 41.0002 86.125L41.0024 86.125C41.0133 86.125 41.0371 86.125 41.065 86.1233C41.4742 86.1055 41.8633 85.9236 42.1354 85.6125C42.1354 85.6124 42.1355 85.6124 42.1356 85.6123L54.1344 71.9412C54.6818 71.3191 54.6042 70.382 53.9713 69.8519C53.346 69.3274 52.4053 69.3963 51.8652 70.0116L40.9153 82.4857L36.0566 77.7407C35.4713 77.1692 34.5292 77.1692 33.9439 77.7407C33.352 78.3187 33.352 79.259 33.9439 79.837L39.9429 85.6956Z" fill="#1BDC80" stroke="#1BDC80"/>
<path d="M63.1875 115.906H64.5469C64.5469 114.57 65.4453 113.688 66.7969 113.688C68.125 113.688 68.9297 114.578 68.9297 115.773C68.9297 116.766 68.5078 117.352 67.0703 118.906L63.2578 123.031V124H70.5547V122.734H65.2109V122.609L67.7734 119.961C69.8047 117.859 70.3672 116.922 70.3672 115.625C70.3672 113.797 68.8594 112.461 66.8906 112.461C64.7344 112.461 63.1875 113.898 63.1875 115.906ZM73.5547 126.867L74.7812 122.422H73.2891L72.5469 126.867H73.5547ZM80.6094 124.266C83.1406 124.266 84.5938 122.125 84.5938 118.383C84.5938 114.648 83.1172 112.461 80.6094 112.461C78.0859 112.461 76.6094 114.641 76.6094 118.359C76.6094 122.109 78.0703 124.266 80.6094 124.266ZM80.6094 123.039C78.9453 123.039 78.0234 121.375 78.0234 118.359C78.0234 115.383 78.9609 113.695 80.6094 113.695C82.2578 113.695 83.1797 115.367 83.1797 118.359C83.1797 121.383 82.2734 123.039 80.6094 123.039ZM90.6875 124.266C93.2188 124.266 94.6719 122.125 94.6719 118.383C94.6719 114.648 93.1953 112.461 90.6875 112.461C88.1641 112.461 86.6875 114.641 86.6875 118.359C86.6875 122.109 88.1484 124.266 90.6875 124.266ZM90.6875 123.039C89.0234 123.039 88.1016 121.375 88.1016 118.359C88.1016 115.383 89.0391 113.695 90.6875 113.695C92.3359 113.695 93.2578 115.367 93.2578 118.359C93.2578 121.383 92.3516 123.039 90.6875 123.039ZM100.766 124.266C103.297 124.266 104.75 122.125 104.75 118.383C104.75 114.648 103.273 112.461 100.766 112.461C98.2422 112.461 96.7656 114.641 96.7656 118.359C96.7656 122.109 98.2266 124.266 100.766 124.266ZM100.766 123.039C99.1016 123.039 98.1797 121.375 98.1797 118.359C98.1797 115.383 99.1172 113.695 100.766 113.695C102.414 113.695 103.336 115.367 103.336 118.359C103.336 121.383 102.43 123.039 100.766 123.039ZM111.578 124H112.922V118.781C112.922 117.594 113.773 116.641 114.875 116.641C115.938 116.641 116.633 117.281 116.633 118.281V124H117.977V118.586C117.977 117.516 118.758 116.641 119.93 116.641C121.117 116.641 121.703 117.25 121.703 118.492V124H123.047V118.18C123.047 116.414 122.086 115.43 120.367 115.43C119.203 115.43 118.242 116.016 117.789 116.906H117.664C117.273 116.031 116.477 115.43 115.336 115.43C114.211 115.43 113.367 115.969 112.984 116.906H112.859V115.578H111.578V124ZM128.961 124.148C131.359 124.148 132.844 122.492 132.844 119.789C132.844 117.078 131.359 115.43 128.961 115.43C126.562 115.43 125.078 117.078 125.078 119.789C125.078 122.492 126.562 124.148 128.961 124.148ZM128.961 122.938C127.367 122.938 126.469 121.781 126.469 119.789C126.469 117.789 127.367 116.641 128.961 116.641C130.555 116.641 131.453 117.789 131.453 119.789C131.453 121.781 130.555 122.938 128.961 122.938ZM134.953 124H136.297V119.016C136.297 117.539 137.164 116.641 138.508 116.641C139.852 116.641 140.492 117.359 140.492 118.875V124H141.836V118.547C141.836 116.547 140.781 115.43 138.891 115.43C137.602 115.43 136.781 115.977 136.359 116.906H136.234V115.578H134.953V124ZM144.859 113.398V115.578H143.5V116.703H144.859V121.812C144.859 123.422 145.555 124.062 147.289 124.062C147.555 124.062 147.812 124.031 148.078 123.984V122.852C147.828 122.875 147.695 122.883 147.453 122.883C146.578 122.883 146.203 122.461 146.203 121.469V116.703H148.078V115.578H146.203V113.398H144.859ZM150.188 124H151.531V119.016C151.531 117.594 152.359 116.641 153.867 116.641C155.141 116.641 155.812 117.383 155.812 118.875V124H157.156V118.547C157.156 116.57 156.031 115.43 154.25 115.43C152.961 115.43 152.078 115.977 151.656 116.906H151.531V112.234H150.188V124ZM159.688 124H161.031V112.234H159.688V124ZM164.359 127.047C165.852 127.047 166.523 126.469 167.242 124.516L170.531 115.578H169.102L166.797 122.508H166.672L164.359 115.578H162.906L166.023 124.008L165.867 124.508C165.516 125.523 165.094 125.891 164.32 125.891C164.133 125.891 163.922 125.883 163.758 125.852V127C163.945 127.031 164.18 127.047 164.359 127.047ZM177.406 124H178.75V116.703H180.68V115.578H178.75V114.68C178.75 113.758 179.156 113.289 180.125 113.289C180.367 113.289 180.594 113.297 180.758 113.328V112.234C180.477 112.18 180.18 112.156 179.852 112.156C178.25 112.156 177.406 112.961 177.406 114.641V115.578H176.008V116.703H177.406V124ZM189.453 115.578H188.109V120.562C188.109 122.039 187.297 122.922 185.812 122.922C184.469 122.922 183.906 122.219 183.906 120.703V115.578H182.562V121.031C182.562 123.023 183.547 124.148 185.438 124.148C186.727 124.148 187.625 123.617 188.047 122.68H188.172V124H189.453V115.578ZM191.984 124H193.328V119.016C193.328 117.539 194.195 116.641 195.539 116.641C196.883 116.641 197.523 117.359 197.523 118.875V124H198.867V118.547C198.867 116.547 197.812 115.43 195.922 115.43C194.633 115.43 193.812 115.977 193.391 116.906H193.266V115.578H191.984V124ZM201.328 124H202.672V119.016C202.672 117.539 203.539 116.641 204.883 116.641C206.227 116.641 206.867 117.359 206.867 118.875V124H208.211V118.547C208.211 116.547 207.156 115.43 205.266 115.43C203.977 115.43 203.156 115.977 202.734 116.906H202.609V115.578H201.328V124ZM214.031 116.617C215.367 116.617 216.258 117.602 216.289 119.094H211.648C211.75 117.602 212.688 116.617 214.031 116.617ZM216.25 121.82C215.898 122.562 215.164 122.961 214.078 122.961C212.648 122.961 211.719 121.906 211.648 120.242V120.18H217.703V119.664C217.703 117.047 216.32 115.43 214.047 115.43C211.734 115.43 210.25 117.148 210.25 119.797C210.25 122.461 211.711 124.148 214.047 124.148C215.891 124.148 217.203 123.258 217.594 121.82H216.25ZM219.891 124H221.234V112.234H219.891V124ZM235.234 115.578H233.797L231.492 122.516H231.367L229.062 115.578H227.625L230.742 124H232.117L235.234 115.578ZM237.062 124H238.406V115.578H237.062V124ZM237.734 113.953C238.25 113.953 238.672 113.531 238.672 113.016C238.672 112.5 238.25 112.078 237.734 112.078C237.219 112.078 236.797 112.5 236.797 113.016C236.797 113.531 237.219 113.953 237.734 113.953ZM244.328 116.617C245.664 116.617 246.555 117.602 246.586 119.094H241.945C242.047 117.602 242.984 116.617 244.328 116.617ZM246.547 121.82C246.195 122.562 245.461 122.961 244.375 122.961C242.945 122.961 242.016 121.906 241.945 120.242V120.18H248V119.664C248 117.047 246.617 115.43 244.344 115.43C242.031 115.43 240.547 117.148 240.547 119.797C240.547 122.461 242.008 124.148 244.344 124.148C246.188 124.148 247.5 123.258 247.891 121.82H246.547ZM260.703 115.578H259.352L257.695 122.312H257.57L255.688 115.578H254.398L252.516 122.312H252.391L250.734 115.578H249.375L251.734 124H253.094L254.969 117.484H255.094L256.977 124H258.344L260.703 115.578ZM262.07 117.883C262.07 119.102 262.789 119.781 264.367 120.164L265.812 120.516C266.711 120.734 267.148 121.125 267.148 121.703C267.148 122.477 266.336 123.016 265.203 123.016C264.125 123.016 263.453 122.562 263.227 121.852H261.844C261.992 123.25 263.281 124.148 265.156 124.148C267.07 124.148 268.531 123.109 268.531 121.602C268.531 120.391 267.766 119.703 266.18 119.32L264.883 119.008C263.891 118.766 263.422 118.406 263.422 117.828C263.422 117.078 264.203 116.57 265.203 116.57C266.219 116.57 266.875 117.016 267.055 117.688H268.383C268.203 116.305 266.977 115.43 265.211 115.43C263.422 115.43 262.07 116.484 262.07 117.883Z" fill="#212B36"/>
<path d="M36.9429 126.696C36.9431 126.696 36.9433 126.696 36.9435 126.696C37.226 126.973 37.6074 127.125 38.0002 127.125L38.0024 127.125C38.0133 127.125 38.0371 127.125 38.065 127.123C38.4742 127.106 38.8633 126.924 39.1354 126.613C39.1354 126.612 39.1355 126.612 39.1356 126.612L51.1344 112.941C51.6818 112.319 51.6042 111.382 50.9713 110.852C50.346 110.327 49.4053 110.396 48.8652 111.012L37.9153 123.486L33.0566 118.741C32.4713 118.169 31.5292 118.169 30.9439 118.741C30.352 119.319 30.352 120.259 30.9439 120.837L36.9429 126.696Z" fill="#1BDC80" stroke="#1BDC80"/>
<line x1="31" y1="168.5" x2="140" y2="168.5" stroke="#637381"/>
<rect x="197" y="193" width="113" height="20" rx="2" fill="url(#paint0_linear)"/>
<path d="M205.447 204.592C205.482 206.221 206.83 207.229 208.969 207.229C211.184 207.229 212.531 206.162 212.531 204.398C212.531 203.057 211.781 202.301 210.111 201.979L209.021 201.768C208.131 201.592 207.756 201.322 207.756 200.859C207.756 200.297 208.254 199.939 209.01 199.939C209.766 199.939 210.334 200.355 210.381 200.953H212.367C212.332 199.389 210.961 198.316 208.98 198.316C206.941 198.316 205.617 199.4 205.617 201.053C205.617 202.383 206.414 203.227 207.961 203.52L209.074 203.742C210.041 203.936 210.41 204.188 210.41 204.656C210.41 205.213 209.859 205.6 209.057 205.6C208.166 205.6 207.551 205.207 207.498 204.592H205.447ZM214.16 198.545V207H216.311V204.521H217.734C219.615 204.521 220.91 203.344 220.91 201.545C220.91 199.729 219.68 198.545 217.863 198.545H214.16ZM216.311 200.197H217.295C218.203 200.197 218.736 200.66 218.736 201.551C218.736 202.43 218.197 202.898 217.283 202.898H216.311V200.197ZM228.287 205.271H224.643V203.543H228.07V201.961H224.643V200.273H228.287V198.545H222.492V207H228.287V205.271ZM233.812 207.229C235.98 207.229 237.551 205.863 237.621 203.93H235.559C235.436 204.838 234.744 205.436 233.818 205.436C232.635 205.436 231.914 204.416 231.914 202.764C231.914 201.117 232.635 200.109 233.812 200.109C234.738 200.109 235.436 200.73 235.547 201.65H237.615C237.551 199.734 235.939 198.316 233.812 198.316C231.275 198.316 229.723 200.01 229.723 202.77C229.723 205.529 231.281 207.229 233.812 207.229ZM241.33 207V198.545H239.18V207H241.33ZM248.725 207H251.068L248.227 198.545H245.596L242.76 207H244.893L245.438 205.143H248.197L248.725 207ZM246.773 200.449H246.885L247.793 203.596H245.848L246.773 200.449ZM258.234 205.225H254.643V198.545H252.492V207H258.234V205.225ZM266.52 198.316C263.977 198.316 262.348 200.021 262.348 202.77C262.348 205.523 263.965 207.229 266.52 207.229C269.062 207.229 270.686 205.523 270.686 202.77C270.686 200.021 269.057 198.316 266.52 198.316ZM266.52 200.098C267.703 200.098 268.494 201.141 268.494 202.77C268.494 204.404 267.703 205.447 266.52 205.447C265.318 205.447 264.539 204.404 264.539 202.77C264.539 201.141 265.33 200.098 266.52 200.098ZM274.436 207V203.848H277.705V202.201H274.436V200.273H278.039V198.545H272.285V207H274.436ZM281.771 207V203.848H285.041V202.201H281.771V200.273H285.375V198.545H279.621V207H281.771ZM292.752 205.271H289.107V203.543H292.535V201.961H289.107V200.273H292.752V198.545H286.957V207H292.752V205.271ZM296.736 200.168H298.002C298.77 200.168 299.268 200.631 299.268 201.352C299.268 202.084 298.799 202.523 298.008 202.523H296.736V200.168ZM296.736 204.041H297.85L299.297 207H301.711L300.023 203.725C300.949 203.32 301.465 202.371 301.465 201.334C301.465 199.588 300.281 198.545 298.307 198.545H294.586V207H296.736V204.041Z" fill="white"/>
<defs>
<filter id="filter0_d" x="3" y="2" width="377" height="245" filterUnits="userSpaceOnUse" color-interpolation-filters="sRGB">
<feFlood flood-opacity="0" result="BackgroundImageFix"/>
<feColorMatrix in="SourceAlpha" type="matrix" values="0 0 0 0 0 0 0 0 0 0 0 0 0 0 0 0 0 0 127 0"/>
<feOffset/>
<feGaussianBlur stdDeviation="4"/>
<feColorMatrix type="matrix" values="0 0 0 0 0 0 0 0 0 0 0 0 0 0 0 0 0 0 0.13 0"/>
<feBlend mode="normal" in2="BackgroundImageFix" result="effect1_dropShadow"/>
<feBlend mode="normal" in="SourceGraphic" in2="effect1_dropShadow" result="shape"/>
</filter>
<linearGradient id="paint0_linear" x1="197" y1="203" x2="308.063" y2="188.334" gradientUnits="userSpaceOnUse">
<stop stop-color="#FFB801"/>
<stop offset="1" stop-color="#FFA901"/>
</linearGradient>
</defs>
</svg>
