<svg width="156" height="140" viewBox="0 0 156 140" fill="none" xmlns="http://www.w3.org/2000/svg">
<g filter="url(#filter0_d)">
<rect x="23" y="17" width="110.451" height="106.408" rx="5" fill="url(#paint0_linear)"/>
<path d="M23 99.8967L78.2255 84.8206L133.451 99.8967V119C133.451 121.761 131.212 124 128.451 124H28C25.2386 124 23 121.761 23 119V99.8967Z" fill="url(#paint1_linear)"/>
<path d="M78.2257 113.206C77.7067 113.206 77.1877 113.05 76.7412 112.737L40.4244 87.2949C39.7208 86.8019 39.3009 85.991 39.3009 85.125V54.0294C39.3009 53.7457 39.3461 53.4639 39.4347 53.1949L41.7186 46.2617L40.0633 44.5868C35.9664 40.441 35.9664 33.6954 40.0633 29.5497C40.0675 29.5455 40.0718 29.5413 40.076 29.5369C44.1536 25.4211 50.7963 25.3675 54.926 29.5469L56.1221 30.7571C57.3895 29.7955 65.6027 23.1213 78.2243 23.1213C90.848 23.1213 99.0626 29.795 100.33 30.7565L101.525 29.5466C105.598 25.4257 112.24 25.3629 116.375 29.5367C116.38 29.5409 116.384 29.5452 116.388 29.5496C120.485 33.6954 120.485 40.4408 116.388 44.5865L114.733 46.2615L117.017 53.1947C117.105 53.4637 117.151 53.7456 117.151 54.0292V85.125C117.151 85.991 116.731 86.8019 116.027 87.2949L79.7103 112.737C79.2637 113.05 78.7447 113.206 78.2257 113.206Z" fill="url(#paint2_linear)"/>
<path d="M78.197 90.8376C67.9776 90.8376 58.6238 83.2303 58.6238 72.439V65.5329C58.6238 61.0455 60.3662 56.8264 63.5301 53.653L72.3417 44.8145C75.5702 41.5762 80.8235 41.5764 84.0522 44.8144L92.8639 53.653C96.0277 56.8264 97.7702 61.0455 97.7702 65.5329V72.439C97.7702 83.2095 88.4288 90.8376 78.197 90.8376Z" fill="url(#paint3_linear)"/>
<path d="M78.1974 79.3783C73.0851 79.3783 68.9259 75.6389 68.9259 71.0426C68.9259 66.4462 73.0849 62.7068 78.1974 62.7068C83.3099 62.7068 87.4689 66.4462 87.4689 71.0426C87.4689 75.6389 83.3097 79.3783 78.1974 79.3783Z" fill="#212B36"/>
<path d="M78.1962 85.8455C78.1962 85.8455 72.2768 87.9101 66.727 86.0755C66.8758 93.7367 71.9519 100.455 78.1962 100.455C84.4419 100.455 89.518 93.7367 89.6668 86.0755C84.1157 87.9101 78.1962 85.8455 78.1962 85.8455Z" fill="#ED435C"/>
<path d="M71.6555 92.6692C74.1991 92.8536 76.4736 92.3696 77.5464 92.0857C77.973 91.9729 78.4195 91.9729 78.8461 92.0857C79.9189 92.3696 82.1934 92.8536 84.737 92.6692C85.9648 92.5794 86.9706 93.3825 87.2682 94.4391C88.7205 92.0626 89.6048 89.1439 89.6668 86.0712C84.1157 87.8726 78.1962 85.8455 78.1962 85.8455C78.1962 85.8455 72.2768 87.8726 66.727 86.0712C66.7877 89.1451 67.6732 92.0626 69.1242 94.4391C69.4219 93.3825 70.4277 92.5794 71.6555 92.6692Z" fill="url(#paint4_linear)"/>
<path d="M122.638 96.5764L122.002 86.2828C121.837 83.6118 118.746 82.2191 116.636 83.8652L81.1928 111.515C78.9773 113.244 80.5448 116.785 83.3139 116.308L100.348 113.369L112.937 110.027C114.749 109.546 116.437 108.681 117.885 107.491C121.129 104.827 122.897 100.767 122.638 96.5764Z" fill="url(#paint5_linear)"/>
<path d="M34.3651 96.4843L35.0012 86.1907C35.1663 83.5197 38.2575 82.127 40.3675 83.7731L75.8105 111.423C78.026 113.152 76.4585 116.693 73.6894 116.216L56.6556 113.277L44.0659 109.935C42.254 109.454 40.5665 108.589 39.118 107.399C35.874 104.734 34.1062 100.675 34.3651 96.4843Z" fill="url(#paint6_linear)"/>
<path d="M58.6662 48.4349C60.3182 48.4349 61.6575 47.0803 61.6575 45.4093C61.6575 43.7382 60.3182 42.3836 58.6662 42.3836C57.0141 42.3836 55.6748 43.7382 55.6748 45.4093C55.6748 47.0803 57.0141 48.4349 58.6662 48.4349Z" fill="#212B36"/>
<path d="M97.6925 48.4349C99.3446 48.4349 100.684 47.0803 100.684 45.4093C100.684 43.7382 99.3446 42.3836 97.6925 42.3836C96.0404 42.3836 94.7011 43.7382 94.7011 45.4093C94.7011 47.0803 96.0404 48.4349 97.6925 48.4349Z" fill="#212B36"/>
<path d="M45.3664 51.5632H67.9439V56.8765C67.9439 63.1111 62.8898 68.1653 56.6552 68.1653C50.4205 68.1653 45.3664 63.1111 45.3664 56.8765V51.5632Z" fill="url(#paint7_linear)"/>
<path d="M88.4697 51.5632H111.047V56.8765C111.047 63.1111 105.993 68.1653 99.7585 68.1653C93.5239 68.1653 88.4697 63.1111 88.4697 56.8765V51.5632Z" fill="url(#paint8_linear)"/>
<rect x="65.8916" y="47.4105" width="24.6301" height="2.07526" fill="#2B3541"/>
<rect x="65.8916" y="49.4913" width="2.05251" height="2.07526" fill="#2B3541"/>
<rect x="88.4697" y="49.4913" width="2.05251" height="2.07526" fill="#2B3541"/>
</g>
<defs>
<filter id="filter0_d" x="19" y="17" width="118.451" height="115" filterUnits="userSpaceOnUse" color-interpolation-filters="sRGB">
<feFlood flood-opacity="0" result="BackgroundImageFix"/>
<feColorMatrix in="SourceAlpha" type="matrix" values="0 0 0 0 0 0 0 0 0 0 0 0 0 0 0 0 0 0 127 0"/>
<feOffset dy="4"/>
<feGaussianBlur stdDeviation="2"/>
<feColorMatrix type="matrix" values="0 0 0 0 0 0 0 0 0 0 0 0 0 0 0 0 0 0 0.12 0"/>
<feBlend mode="normal" in2="BackgroundImageFix" result="effect1_dropShadow"/>
<feBlend mode="normal" in="SourceGraphic" in2="effect1_dropShadow" result="shape"/>
</filter>
<linearGradient id="paint0_linear" x1="78.2255" y1="17" x2="78.2255" y2="123.408" gradientUnits="userSpaceOnUse">
<stop stop-color="#3D5AFD"/>
<stop offset="1" stop-color="#1B2581"/>
</linearGradient>
<linearGradient id="paint1_linear" x1="78.2255" y1="99.5245" x2="78.2255" y2="124" gradientUnits="userSpaceOnUse">
<stop stop-color="#28DA6C"/>
<stop offset="1" stop-color="#03DEC4"/>
</linearGradient>
<linearGradient id="paint2_linear" x1="78.2611" y1="23.1213" x2="78.2249" y2="131.167" gradientUnits="userSpaceOnUse">
<stop stop-color="#EFF2F4"/>
<stop offset="0.248907" stop-color="white"/>
</linearGradient>
<linearGradient id="paint3_linear" x1="78.2076" y1="49.3629" x2="78.2076" y2="94.0495" gradientUnits="userSpaceOnUse">
<stop stop-color="#C4CDD5"/>
<stop offset="1" stop-color="#F9FAFB"/>
</linearGradient>
<linearGradient id="paint4_linear" x1="78.1969" y1="85.8455" x2="78.2331" y2="90.1423" gradientUnits="userSpaceOnUse">
<stop stop-color="#DA2F3C"/>
<stop offset="1" stop-color="#ED435C"/>
</linearGradient>
<linearGradient id="paint5_linear" x1="102.474" y1="91.9063" x2="113.687" y2="113.642" gradientUnits="userSpaceOnUse">
<stop stop-color="#28DA6C"/>
<stop offset="1" stop-color="#00F6FF"/>
</linearGradient>
<linearGradient id="paint6_linear" x1="54.5291" y1="91.8142" x2="43.3165" y2="113.55" gradientUnits="userSpaceOnUse">
<stop stop-color="#28DA6C"/>
<stop offset="1" stop-color="#00F6FF"/>
</linearGradient>
<linearGradient id="paint7_linear" x1="56.6552" y1="51.5632" x2="56.6552" y2="68.1653" gradientUnits="userSpaceOnUse">
<stop stop-color="#2C3642"/>
<stop offset="1"/>
</linearGradient>
<linearGradient id="paint8_linear" x1="99.7585" y1="51.5632" x2="99.7585" y2="68.1653" gradientUnits="userSpaceOnUse">
<stop stop-color="#2C3642"/>
<stop offset="1"/>
</linearGradient>
</defs>
</svg>
