<svg width="85" height="85" viewBox="0 0 85 85" fill="none" xmlns="http://www.w3.org/2000/svg">
<rect y="31.0958" width="37.9043" height="37.9043" rx="2" transform="rotate(-0.144806 0 31.0958)" fill="#EB4DBA"/>
<path d="M22.1061 39.7684L22.0938 39.7652L21.1922 40.4272L21.0934 40.4118C21.0934 40.4119 21.0934 40.4119 21.0934 40.4119C21.027 40.8404 20.7908 41.1888 20.3715 41.4917C19.9614 41.7878 19.4954 41.9351 18.9631 41.9364C18.4309 41.9378 17.9617 41.7956 17.5396 41.4985C17.1185 41.2018 16.888 40.8506 16.8125 40.4212L16.8125 40.4211C16.7441 40.0322 16.4048 39.7796 16.0225 39.7806L15.9722 39.7807L15.7966 39.7812L15.7839 39.7812L15.7716 39.7844L6.80853 42.1196C6.80852 42.1196 6.80852 42.1196 6.80852 42.1196C6.38758 42.2293 6.14264 42.6751 6.24987 43.0881C6.24987 43.0881 6.24988 43.0881 6.24988 43.0881L7.51652 47.971L7.51653 47.9711C7.60916 48.3277 7.93884 48.5549 8.31732 48.5539L11.529 48.5458L11.5565 59.4238C11.5576 59.8653 11.9052 60.2067 12.3484 60.2055L25.6326 60.172C26.071 60.1709 26.4467 59.8322 26.4456 59.3862L26.4181 48.5082L29.6298 48.5001C29.9868 48.4991 30.3138 48.2548 30.4024 47.9137L30.4024 47.9136L31.6694 43.0243C31.7776 42.607 31.5223 42.1709 31.0809 42.0583L22.1061 39.7684ZM29.9333 43.3985L29.0093 46.9216L25.5991 46.9302C25.181 46.9313 24.8101 47.287 24.8112 47.7284L24.8387 58.594L13.1343 58.6236L13.1068 47.758C13.1057 47.3189 12.7605 46.9627 12.3149 46.9638L8.92977 46.9723L7.98775 43.4539L15.507 41.5038C15.7948 42.0966 16.2372 42.5821 16.8428 42.9596C17.4758 43.3542 18.1849 43.5434 18.9671 43.5414C19.7375 43.5394 20.433 43.3465 21.0636 42.9489C21.6664 42.5689 22.1184 42.0814 22.4042 41.4864L29.9333 43.3985Z" fill="white" stroke="white" stroke-width="0.2"/>
<rect x="41" y="43" width="44" height="5" rx="1" fill="#EB4DBA"/>
<rect x="41" y="51" width="27" height="5" rx="1" fill="#EB4DBA"/>
<rect x="23" y="11" width="29" height="29" rx="14.5" fill="#FFDA05"/>
<mask id="mask0" mask-type="alpha" maskUnits="userSpaceOnUse" x="29" y="19" width="17" height="14">
<path d="M33.9545 32.3489L29.8459 28.2404C29.3105 27.7049 29.3105 26.8393 29.8459 26.3039C30.3814 25.7684 31.247 25.7684 31.7825 26.3039L34.8447 29.3661L43.47 19.5343C43.963 18.9591 44.8272 18.8934 45.3996 19.385C45.9748 19.8781 46.0419 20.7409 45.5489 21.3147L35.9622 32.2709C35.7144 32.5612 35.3555 32.7338 34.9748 32.7488C34.5598 32.7502 34.2106 32.6064 33.9545 32.3489Z" fill="white"/>
</mask>
<g mask="url(#mask0)">
<path d="M33.9545 32.3489L29.8459 28.2404C29.3105 27.7049 29.3105 26.8393 29.8459 26.3039C30.3814 25.7684 31.247 25.7684 31.7825 26.3039L34.8447 29.3661L43.47 19.5343C43.963 18.9591 44.8272 18.8934 45.3996 19.385C45.9748 19.8781 46.0419 20.7409 45.5489 21.3147L35.9622 32.2709C35.7144 32.5612 35.3555 32.7338 34.9748 32.7488C34.5598 32.7502 34.2106 32.6064 33.9545 32.3489Z" fill="white"/>
<path d="M52.7263 10.8385H23.9663V39.5985H52.7263V10.8385Z" fill="white"/>
</g>
</svg>
