<svg width="170" height="50" viewBox="0 0 170 50" fill="none" xmlns="http://www.w3.org/2000/svg">
<path d="M6.982 47C4.51 47 2.5 45.025 2.5 42.598V8.402C2.5 5.975 4.51 4 6.982 4H163.019C165.49 4 167.501 5.975 167.501 8.402V42.598C167.501 45.025 165.491 47 163.019 47H6.982Z" fill="white"/>
<path d="M163.019 47.375H6.981C4.303 47.375 2.125 45.232 2.125 42.598V8.402C2.125 5.768 4.304 3.625 6.981 3.625H163.018C165.696 3.625 167.874 5.768 167.874 8.402V42.598C167.875 45.232 165.696 47.375 163.019 47.375ZM6.981 4.375C4.717 4.375 2.875 6.182 2.875 8.402V42.598C2.875 44.818 4.717 46.625 6.981 46.625H163.018C165.283 46.625 167.124 44.818 167.124 42.598V8.402C167.124 6.182 165.282 4.375 163.018 4.375H6.981Z" fill="#C3CCD4"/>
<path d="M30.321 16.673C30.232 16.666 28.34 16.525 28.34 16.525C28.34 16.525 27.026 15.221 26.882 15.076C26.847 15.041 26.804 15.017 26.757 15.002L25.82 36.654L33.223 35.046C33.223 35.046 30.553 16.996 30.536 16.873C30.519 16.749 30.41 16.681 30.321 16.673Z" fill="black"/>
<path d="M26.346 15.009C26.33 15.014 26.059 15.097 25.611 15.236C25.172 13.973 24.398 12.813 23.035 12.813C22.997 12.813 22.959 12.815 22.92 12.817C22.532 12.305 22.053 12.082 21.638 12.082C18.464 12.082 16.948 16.05 16.472 18.066C15.239 18.448 14.363 18.72 14.251 18.755C13.563 18.971 13.541 18.993 13.451 19.641C13.383 20.132 11.581 34.062 11.581 34.062L25.482 36.667L26.42 14.992C26.392 14.997 26.366 15.003 26.346 15.009ZM22.816 15.963C22.816 16.011 22.816 16.056 22.815 16.101C22.042 16.34 21.203 16.6 20.362 16.86C20.834 15.037 21.72 14.157 22.494 13.825C22.689 14.314 22.816 15.016 22.816 15.963ZM21.551 12.933C21.688 12.933 21.826 12.979 21.958 13.07C20.941 13.549 19.85 14.754 19.39 17.162C18.717 17.37 18.059 17.574 17.451 17.763C17.991 15.926 19.271 12.933 21.551 12.933ZM22.098 23.665C22.098 23.665 21.276 23.226 20.269 23.226C18.792 23.226 18.718 24.153 18.718 24.386C18.718 25.66 22.039 26.148 22.039 29.132C22.039 31.48 20.55 32.992 18.542 32.992C16.133 32.992 14.9 31.492 14.9 31.492L15.545 29.361C15.545 29.361 16.812 30.448 17.88 30.448C18.578 30.448 18.862 29.898 18.862 29.497C18.862 27.835 16.137 27.761 16.137 25.03C16.137 22.732 17.787 20.508 21.117 20.508C22.4 20.508 23.034 20.876 23.034 20.876L22.098 23.665ZM23.648 15.843C23.648 15.759 23.649 15.677 23.649 15.587C23.649 14.802 23.54 14.17 23.365 13.669C24.067 13.757 24.535 14.556 24.836 15.475C24.483 15.585 24.082 15.709 23.648 15.843Z" fill="black"/>
<path d="M44.271 35.521C41.781 35.521 40.626 33.961 40.386 32.416L41.991 32.176C42.186 33.241 42.711 34.201 44.271 34.201C45.441 34.201 46.281 33.526 46.281 32.521C46.281 31.441 45.711 30.991 44.046 30.542C41.886 30.017 40.746 29.237 40.746 27.392C40.746 25.727 42.111 24.512 44.166 24.512C46.191 24.512 47.436 25.592 47.721 27.182L46.146 27.437C45.936 26.402 45.216 25.817 44.167 25.817C42.967 25.817 42.337 26.402 42.337 27.272C42.337 28.172 42.727 28.622 44.497 29.072C46.672 29.612 47.917 30.362 47.917 32.372C47.916 34.202 46.461 35.521 44.271 35.521Z" fill="black"/>
<path d="M49.446 23.912H51.036V28.727C51.396 27.992 52.221 27.377 53.436 27.377C54.936 27.377 55.971 28.247 55.971 30.317V35.372H54.351V30.407C54.351 29.252 53.871 28.727 52.836 28.727C51.876 28.727 51.036 29.342 51.036 30.542V35.372H49.446V23.912Z" fill="black"/>
<path d="M57.291 31.157C57.291 28.862 58.881 27.377 61.011 27.377C63.141 27.377 64.731 28.847 64.731 31.127V31.742C64.731 34.052 63.126 35.522 60.996 35.522C58.851 35.522 57.291 34.022 57.291 31.772V31.157ZM61.011 34.247C62.301 34.247 63.081 33.287 63.081 31.772V31.142C63.081 29.597 62.286 28.652 61.011 28.652C59.721 28.652 58.926 29.582 58.926 31.127V31.757C58.926 33.302 59.691 34.247 61.011 34.247Z" fill="black"/>
<path d="M67.7 27.527V28.772C68.135 28.022 69.05 27.377 70.16 27.377C72.005 27.377 73.37 28.727 73.37 31.067V31.742C73.37 34.097 72.05 35.522 70.13 35.522C68.96 35.522 68.105 34.922 67.7 34.172V38.057H66.11V27.527H67.7ZM69.771 34.231C71.031 34.231 71.721 33.376 71.721 31.786V31.111C71.721 29.461 70.881 28.651 69.771 28.651C68.556 28.651 67.671 29.461 67.671 31.156V31.741C67.67 33.437 68.495 34.231 69.771 34.231Z" fill="black"/>
<path d="M74.615 25.247C74.615 24.707 75.05 24.287 75.59 24.287C76.145 24.287 76.58 24.707 76.58 25.247C76.58 25.787 76.145 26.207 75.59 26.207C75.035 26.207 74.615 25.787 74.615 25.247ZM74.795 27.527H76.4V35.372H74.795V27.527Z" fill="black"/>
<path d="M78.575 28.802H77.555V27.527H78.575V26.402C78.575 24.752 79.445 23.852 81.11 23.852C81.62 23.852 82.01 23.912 82.325 24.032V25.307C82.115 25.202 81.695 25.127 81.305 25.127C80.48 25.127 80.195 25.607 80.195 26.342V27.527H82.235V28.802H80.195V35.372H78.575V28.802Z" fill="black"/>
<path d="M86.72 32.717L88.58 27.527H90.17L86.135 38.057H84.53L85.865 34.592L82.955 27.527H84.695L86.72 32.717Z" fill="black"/>
<path d="M99.89 32.612H96.095L95.285 35.372H93.71L96.936 24.647H99.2L102.394 35.372H100.684L99.89 32.612ZM96.455 31.352H99.53L97.985 26.042L96.455 31.352Z" fill="black"/>
<path d="M105.185 27.527V28.772C105.621 28.022 106.536 27.377 107.645 27.377C109.491 27.377 110.855 28.727 110.855 31.067V31.742C110.855 34.097 109.536 35.522 107.616 35.522C106.446 35.522 105.591 34.922 105.185 34.172V38.057H103.595V27.527H105.185ZM107.255 34.231C108.515 34.231 109.205 33.376 109.205 31.786V31.111C109.205 29.461 108.365 28.651 107.255 28.651C106.04 28.651 105.155 29.461 105.155 31.156V31.741C105.155 33.437 105.979 34.231 107.255 34.231Z" fill="black"/>
<path d="M113.84 27.527V28.772C114.275 28.022 115.19 27.377 116.3 27.377C118.145 27.377 119.51 28.727 119.51 31.067V31.742C119.51 34.097 118.19 35.522 116.27 35.522C115.1 35.522 114.246 34.922 113.84 34.172V38.057H112.25V27.527H113.84ZM115.91 34.231C117.17 34.231 117.859 33.376 117.859 31.786V31.111C117.859 29.461 117.019 28.651 115.91 28.651C114.694 28.651 113.809 29.461 113.809 31.156V31.741C113.81 33.437 114.635 34.231 115.91 34.231Z" fill="black"/>
<path d="M127.399 35.521C124.909 35.521 123.754 33.961 123.514 32.416L125.118 32.176C125.313 33.241 125.839 34.201 127.398 34.201C128.568 34.201 129.408 33.526 129.408 32.521C129.408 31.441 128.839 30.991 127.174 30.542C125.014 30.017 123.874 29.237 123.874 27.392C123.874 25.727 125.238 24.512 127.294 24.512C129.318 24.512 130.564 25.592 130.849 27.182L129.274 27.437C129.064 26.402 128.344 25.817 127.295 25.817C126.095 25.817 125.465 26.402 125.465 27.272C125.465 28.172 125.855 28.622 127.624 29.072C129.8 29.612 131.044 30.362 131.044 32.372C131.044 34.202 129.59 35.521 127.399 35.521Z" fill="black"/>
<path d="M134.494 25.382V27.527H136.459V28.802H134.494V33.152C134.494 33.872 134.854 34.157 135.515 34.157C135.905 34.157 136.28 34.097 136.55 33.977V35.252C136.249 35.387 135.829 35.477 135.244 35.477C133.64 35.477 132.89 34.682 132.89 33.302V28.802H131.855V27.527H132.89V25.382H134.494Z" fill="black"/>
<path d="M137.45 31.157C137.45 28.862 139.04 27.377 141.17 27.377C143.3 27.377 144.89 28.847 144.89 31.127V31.742C144.89 34.052 143.285 35.522 141.155 35.522C139.01 35.522 137.451 34.022 137.451 31.772V31.157H137.45ZM141.17 34.247C142.46 34.247 143.239 33.287 143.239 31.772V31.142C143.239 29.597 142.444 28.652 141.17 28.652C139.88 28.652 139.085 29.582 139.085 31.127V31.757C139.085 33.302 139.85 34.247 141.17 34.247Z" fill="black"/>
<path d="M146.27 27.527H147.86V28.922C148.339 27.962 149.015 27.407 150.56 27.422V28.937C148.789 28.952 147.86 29.432 147.86 31.067V35.372H146.27V27.527Z" fill="black"/>
<path d="M154.804 35.521C152.659 35.521 151.145 34.111 151.145 31.771V31.156C151.145 28.861 152.645 27.376 154.729 27.376C156.559 27.376 158.165 28.456 158.165 31.081V31.786H152.765C152.781 33.481 153.545 34.276 154.85 34.276C155.991 34.276 156.545 33.571 156.71 32.986L158.105 33.316C157.818 34.382 156.754 35.521 154.804 35.521ZM152.779 30.677H156.574V30.632C156.513 29.192 155.824 28.592 154.728 28.592C153.754 28.592 152.929 29.207 152.779 30.677Z" fill="black"/>
<path d="M41.889 15.15H44.775V15.878H42.808V17.307H44.38V18.021H42.808V20.015H41.889V15.15Z" fill="black"/>
<path d="M46.03 15.15H46.956V20.016H46.03V15.15Z" fill="black"/>
<path d="M48.491 15.15H49.566L51.349 18.525V15.15H52.186V20.016H51.247L49.321 16.375V20.016H48.49V15.15H48.491Z" fill="black"/>
<path d="M55.238 15.15C56.783 15.15 57.559 15.973 57.559 17.314V17.817C57.559 19.144 56.797 20.015 55.238 20.015H53.686V15.15H55.238ZM54.605 15.871V19.288H55.204C56.163 19.288 56.606 18.77 56.606 17.818V17.328C56.606 16.395 56.198 15.871 55.197 15.871H54.605Z" fill="black"/>
<path d="M60.854 15.15H61.779V20.016H60.854V15.15Z" fill="black"/>
<path d="M64.254 15.878H62.981V15.15H66.445V15.878H65.18V20.016H64.255V15.878H64.254Z" fill="black"/>
<path d="M69.38 17.845V17.307C69.38 15.98 70.265 15.088 71.537 15.088C72.816 15.088 73.681 15.952 73.681 17.3V17.824C73.681 19.165 72.844 20.083 71.531 20.083C70.218 20.083 69.38 19.165 69.38 17.845ZM72.729 17.838V17.307C72.729 16.415 72.307 15.817 71.538 15.817C70.769 15.817 70.34 16.416 70.34 17.307V17.838C70.34 18.77 70.776 19.342 71.538 19.342C72.3 19.342 72.729 18.763 72.729 17.838Z" fill="black"/>
<path d="M75.004 15.15H76.079L77.862 18.525V15.15H78.699V20.016H77.76L75.834 16.375V20.016H75.003V15.15H75.004Z" fill="black"/>
<path d="M83.083 15.878H81.81V15.15H85.274V15.878H84.008V20.016H83.083V15.878Z" fill="black"/>
<path d="M86.455 15.15H87.374V17.192H89.253V15.15H90.171V20.016H89.253V17.94H87.374V20.016H86.455V15.15Z" fill="black"/>
<path d="M91.678 15.15H94.584V15.878H92.597V17.171H94.202V17.859H92.597V19.288H94.693V20.016H91.678V15.15Z" fill="black"/>
</svg>
